<svg xmlns="http://www.w3.org/2000/svg" xmlns:xlink="http://www.w3.org/1999/xlink">
	<symbol id="questions-signal1" viewBox="0 0 2080 1880">
		<path fill="#ADE0F0" d="m1113.6 1501.7 112.3.8a90 90 0 0 1 30.8 3.8c9.3 3.6 15.9 11.8 11.2 18-6.3 8.5-27.6 8.5-30.8 17.8-3.3 9.3 13.3 15 26.5 17.7 43.7 9 60.6 18.3 104 27.4 21.6 4.3 56.5 15.3 58.7 30.3 1.4 9.5 9 14.2-3 18.5-12 4.4-26.5 5.2-40.4 6-75.1 3.9-150.8 4.7-226.1 2.5-29.5-.8-60.7-1.9-86.3 7.4-8 2.7-15 6.5-23.5 8.4a126.1 126.1 0 0 1-35.3.9l-394.6-29.3c-21.3-1.6-46.4-4.9-55-18.3-8.4-13.3 7.2-28.6 26.6-34.6 19.4-6 42-6.3 62.2-10.7 20.3-4.4 40.7-15.3 39.7-30-.3-5.5-3.9-11-3.3-16.4 1.3-16.1 31.7-21 55.4-21.6a6256 6256 0 0 1 469.2 3.5"/>
		<path fill="#FFF2CB" d="m888.6 1584.4-112.3-4.6a88.6 88.6 0 0 0-30.9 2.2c-9.2 3-16.3 10.9-12 17.2 5.8 8.7 27 9.8 29.8 19 2.7 9.4-14.2 14.6-27.3 16.5-44 6.8-61.5 15.5-105.4 22.4-21.6 3.3-57.1 12.5-60.1 27.3-2 9.3-9.9 13.6 2.2 18.6 12 4.9 26.2 6.5 40.1 7.9a2826 2826 0 0 0 225.9 13.6c29.5.6 60.6 1.1 85.7 11.5 7.7 3.3 14.8 7.4 23 9.6a123 123 0 0 0 35 2.4l395.7-9.5c21.3-.6 46.7-2.8 56-15.6 9.3-12.8-5.8-29.2-24.9-36-19.1-6.9-41.5-8.5-61.7-13.7-20.2-5.2-39.9-17.5-38-32 .8-5.4 4.4-10.6 4.1-16-.5-16.2-30.6-22.5-54.3-24.4a6238.1 6238.1 0 0 0-469-19.4"/>
		<path fill="#fff" d="M888.6 1577.6c-40.5-1.6-80.9-5-121.3-5-12.3 0-27.9.9-36.9 10.7-6.5 7.1-6.8 17 .6 23.8a40 40 0 0 0 12 6.6c3 1.3 7.4 1.9 9.8 4 3.6 3.3 3.3 1.4.6 5-3.6 4.9-19.4 5.7-24.9 6.5-9 1.4-17.7 3.3-26.8 5.2-29.7 6.8-60 12.3-89.8 19.4-20.2 4.6-41.8 11-49.4 32-3 8.1-6.3 14.4 1.6 20.7 11 9 30.3 9.6 43.4 11.2 79.5 8.7 159.8 12.3 239.8 14.2 18 .5 36 .8 53.8 4.6 16.4 3.6 30.3 12.9 46.2 16.7 16.4 3.8 33.8 2.2 50.8 2l65-1.7 243.9-6 59.5-1.4c16.1-.3 33-.3 48.9-4.6 20.2-5.8 36.6-23.5 21-43.5-21-26.7-62.8-22.9-92.3-32.5a58 58 0 0 1-23-12c-8.7-8.4-3.5-14.5-2.1-24.3s-3.3-17.2-11.2-22.4c-12-8.2-27.9-10.4-41.8-12-22.1-2.7-44.5-3.5-66.6-5.2a6168.7 6168.7 0 0 0-410-15c-8.7 0-8.7 13.7 0 13.7 145.6.5 291.2 6.2 436.7 16.9 16.4 1 33.4 1.6 49.7 4.6 6.9 1.1 13.4 3 19.7 5.8 2.5 1 5 2.4 6.8 4.3 5.2 5.2 2 9.3.6 15.6-5.8 23.8 18 36.9 37.4 43.2 15.6 4.9 32 6.2 47.8 9.8 11.5 2.4 41.5 9.3 41.2 26-.2 14.7-29.7 16.3-39.6 16.9-17.5 1-35.2 1-53 1.6l-219.5 5.5-108.5 2.7c-18 .5-37.7 3-55.7-.5-14.7-2.8-27.6-11.8-42-15.6-30.6-8.2-63.4-6.6-94.8-7.7-36-1-71.8-3-107.9-5.2a1730 1730 0 0 1-104.9-9 154 154 0 0 1-24.8-5.2c-8.8-2.7-4.1-.8-3.3-6.2.5-2 1-3.6 2-5.5 5.4-11 21-14.5 31.9-17.5 27.8-7.6 57-11.5 85.2-18.3 17-4 34.1-6.3 50.8-10 8.4-2.3 21.3-5.8 24.3-15.4 3-9.5-3.6-15.8-11-19.6-4.3-2.5-12-3.3-15.5-6.9-10.7-10.3 19.4-12.3 24.6-12.3 40.4.3 80.8 3.3 121.2 5 8.8.5 8.8-13.2-.2-13.7Z"/>
		<path fill="#939598" d="m1131.6 575.8 16.2 2.5a82 82 0 0 0 45-13.1l15.3-10.1c69.1-46 212.5-141.2 268-182.5l1.6-1.4c15-11.2 33.6-24.8 32.2-55.7-.3-3.8-1.6-4.3-2.2-4.6-8.5-4.4-35.5 9-52.4 20l-8.5 5.4.3-10.1c0-2.5-.3-5-.8-7.4-7.1 1.6-19.4 20.8-27.6 33.6-8.2 12.8-15.9 24.9-23.5 31.1-34.2 28.4-146.1 82.2-183 98.9a84.6 84.6 0 0 1-33.9 7.1h-25l-21.7 86.3Zm15.9 13.1h-.8l-27.9-4.4 26.2-105.4h33.6c10.1 0 20.2-2.2 29.5-6.3 36.6-16.3 147.5-69.6 180.5-97.2 6.3-5.2 14-17.2 21.3-28.7 13.7-21.3 25.7-39.8 38.8-38.5 5 .6 7.1 4.7 8.2 9 14.2-8.4 42-22.9 55.5-15.8 4.9 2.7 7.9 8 7.9 13.7 1.6 36.6-21.3 53.5-36.6 64.7l-1.7 1.3c-55.4 41.3-199 136.9-268.2 182.8l-15.3 10a92 92 0 0 1-51 14.8ZM847 489.5h-25.4a84.6 84.6 0 0 1-33.8-7.1c-36.9-16.4-149.1-70.5-183-98.9a152.8 152.8 0 0 1-23.5-31.1c-8.2-12.8-20.5-32-27.6-33.6a38 38 0 0 0-.8 7.4l.3 10-8.5-5.4c-16.7-10.9-44-24.3-52.4-20 0 .4-1.4 1.2-1.7 4.7-1.3 30.9 17.2 44.8 32.3 55.7l1.6 1.4c55.2 41.3 198.8 136.6 268 182.4l15.2 10.2a79.7 79.7 0 0 0 45 13l16.2-2.4-21.9-86.3Zm-45.3 84.7L786.4 564c-68.8-46-212.7-141.5-268.2-182.8l-1.6-1.3c-15.3-11.2-38-28.1-36.6-64.7-.3-5.8 2.7-11 7.9-13.7 13.4-7.1 41.5 7.4 55.4 15.8 1.1-4.3 3.3-8.7 8.2-9 13.4-1.3 25.2 17.2 38.8 38.5 7.4 11.5 15 23.5 21.3 28.7 33 27.6 144 80.9 180.5 97.2a73.4 73.4 0 0 0 29.5 6.3h33.6l26.3 105.4-27.9 4.4h-.8a92 92 0 0 1-51-14.7Z"/>
		<path fill="#F9A97E" d="m884 1325.8 8.1-88.5a34.7 34.7 0 0 1 69.4 0l-2 46.7c0 3.5 0 7.1.6 10.7l9.6 61.1c1 6.9 1.3 13.7 1 20.8l-8.7 189.8c.6 12-9 22.1-20.7 22.4-11.8.3-22.2-9-22.4-20.8v-1.6l-15.3-105.2-17.8-98.3c-2.4-12.3-3-24.8-1.9-37.1Z"/>
		<path fill="#F9A97E" d="m897.3 1653 14.5-30.9a28 28 0 0 0 2.4-15.6l-1.3-11.7c-.3-2.5 0-5 .5-7.4l5.2-21.3c.5-12 10.4-21.3 22.4-20.7 11.5.2 20.5 9.5 20.8 20.7l3.8 9.3a37 37 0 0 1 2.7 10.4l1.6 14.5c0 1.3.3 2.4.6 3.8l7.1 33.6c.3 1.6.8 3.3 1.6 4.9l3.6 7.6c1 2.5 1 5.5-.6 7.7l-1.3 1.9a8.7 8.7 0 0 1-7.1 3.5h-71.3a6.6 6.6 0 0 1-5.5-3.2c-.5-2-.8-4.7.3-7.1Zm-22.4-615.6 15.8-86.9c2.8-36.8 21.6-72 59.3-72a71.3 71.3 0 0 1 71.3 71.2s2.7 23.8-24.9 71.3a400.9 400.9 0 0 0-15.5 68.5c-8.2 55-18.6 122.4-18.6 122.4a82 82 0 0 0-.8 11.7v13.7a34.7 34.7 0 0 1-69.4 0v-3c0-10.4-.5-21-1.9-31.4l-11.5-88a460.1 460.1 0 0 1-3.8-77.5Z"/>
		<path fill="#F68B62" d="M929.3 1581.4s3.8 32.3 3.8 41.5c0 3.6-8.2 11.2-11.2 18.6-3 7.4-4.7 15-5 22.7h-3a66 66 0 0 1 2.8-27.3c4.4-12 9.8-18.9 8.5-20-4.7-4.6 4-35.5 4-35.5Zm37.9 60.4s-18.6-32.5-4.9-40.2c5.5-3 3.6 8.5 3.6 8.5l1.3 31.7Z"/>
		<path fill="#F9A97E" d="m1111.2 1653.8-14.5-30.9a28 28 0 0 1-2.5-15.5l1.4-11.8c.3-2.4 0-4.9-.6-7.3l-5.4-21.4a21.5 21.5 0 0 0-22.4-20.7 21.3 21.3 0 0 0-20.8 20.7l-3.8 9.3a44.2 44.2 0 0 0-2.7 10.4l-1.7 14.5c0 1.4-.3 2.4-.5 3.8l-7.1 33.6c-.3 1.6-.8 3.3-1.7 5l-3.5 7.6a7.6 7.6 0 0 0 .5 7.6l1.4 2a8.7 8.7 0 0 0 7.1 3.5h71c2.2 0 4.4-1.4 5.5-3.3 1.3-2 1.3-4.7.3-7.1Z"/>
		<path fill="#F9A97E" d="m1124.8 1326.6-8.2-88.5a34.7 34.7 0 0 0-69.4 0l1.7 46.7c0 3.6 0 7.1-.6 10.7l-9.5 61.1a103 103 0 0 0-1.1 20.8l8.7 189.8c-.5 12 9 22.1 20.8 22.4 11.7.3 22.1-9 22.4-20.7v-1.7l15.3-105.1 17.7-98.3c2.8-12.3 3.3-25 2.2-37.2Z"/>
		<path fill="#F9A97E" d="m1133.8 1037.4-14-89.3c-2.6-37-23.4-69.7-61-69.7-39.4 0-71.4 32-71.4 71.3 0 0-2.7 23.8 24.9 71.3 2.2 3.8 10.6 35.5 15.5 68.5 8.2 55 18.6 122.4 18.6 122.4.6 3.8.8 7.6.8 11.7v13.7a34.7 34.7 0 0 0 69.4 0v-3c0-10.4.6-21 2-31.4l11.4-88.2a429 429 0 0 0 3.8-77.3Z"/>
		<path fill="#F68B62" d="M1080.3 1581.4s-3.8 32.3-3.8 41.5c0 3.6 8.2 11.2 11.2 18.6a67 67 0 0 1 4.9 22.7h3a66 66 0 0 0-2.8-27.3c-4.3-12-9.8-18.9-8.4-20 4.6-4.6-4.1-35.5-4.1-35.5Zm-38 60.4s18.9-32.8 5-40.2c-5.5-3-3.6 8.5-3.6 8.5l-1.4 31.7Zm25.2-1277.7 3.2-1.9a8 8 0 0 1 10.1 1.7c1.1 1 1.4 2.4 1.4 4v2.8a55.9 55.9 0 0 1-6 24l-.3.6c-.5 2.2-4.6 15.3-6.3 15.8a6 6 0 0 1-4.3-.8c-.6-.3-.8-.8-.8-1.4l1-42c.3-1.1.9-2.2 2-2.8Zm-126.2 0-3.3-1.9a8 8 0 0 0-10.1 1.7c-1.1 1-1.4 2.4-1.4 4v2.8a56 56 0 0 0 6 24l.3.6c.6 2.2 4.6 15.3 6.3 15.8 1.4.6 3 .3 4.4-.8.5-.3.8-.8.8-1.4l-1.1-42a5 5 0 0 0-2-2.8Z"/>
		<path fill="#F9A97E" d="M1057 493.9c-4.3-2-7.6-6-8.4-10.7l-8.2-38.5H968l-8.2 38.5c-1 4.7-4 8.8-8.4 10.7H1057Z"/>
		<path fill="#F9A97E" d="M1066.4 298.9c-9.6-14.2-27.4-28.7-60.1-28.7-40.4 0-58 21.6-65.6 38.2a61.5 61.5 0 0 0-5.2 28.2 480.4 480.4 0 0 0 8.2 73.4 55 55 0 0 0 18.9 35c6 5.2 12 9.8 18.8 14.2 5.2 3 10.7 5.2 16.4 7a27 27 0 0 0 17.5-.2 55 55 0 0 0 14-6.8c7.6-5.5 14.4-11.5 21-18.3 6.8-6.8 11.4-15 13.9-24.3l9.3-45 3-32.6a65 65 0 0 0-10.1-40.1Zm-36.6-128.1-2.8 1.6a34 34 0 0 1-10.6 4.4l-10.1 2.4c-3.8 1.1-11.5 1.4-15 3.6l-6.3 4.4c-7.1 6.8-14.2 9.3-22.2 3a20 20 0 0 1-2.4-29.8l10.6-12.3c3-3.5 5.8-7.4 8.2-11.2 0 0 23.5-35.5 27.3-36l2.8 4.9a17 17 0 0 0 4.4 4.9l8.4 6.3c2.5 1.9 5.2 2.7 8.2 2.4h3c2.2 0 4.4 1.4 5.2 3.3.8 2 .3 4.1-1.4 5.5l-6.8 8.2a11.8 11.8 0 0 0-3.8 8.7v3.3c0 .5.3 1 .8 1a6 6 0 0 1 4.7 3.6l2.7 8.2c0 2-3.6 8.8-5 9.6Z"/>
		<path fill="#F9A97E" d="m1057 140-11.7 11.4-13 17a9.5 9.5 0 0 1-13.2 2.1c-3.8-2.7-5-8-2.7-12l.8-1.4.5-.5a40 40 0 0 1 14-10.4l1.6-.8 8-5.2 6.5-4.4c3-1.9 7-1.3 9.3 1.4.8.8.8 2.2 0 2.7Zm-43.9-31.2-.8 1.6c-2 2.2-5.5 2.7-7.7.6-2.4-2-3-5.5-1-8l1-1 11-10.2a3.8 3.8 0 0 1 5.1 0c1.7 1.4 2.2 3.6 1.1 5.2l-3.2 4.1c-2.2 2.2-3.9 5-5.5 7.7Z"/>
		<path fill="#F9A97E" d="M1020.8 114a2 2 0 0 0-.6 1 6 6 0 0 1-8.2.3 6 6 0 0 1-1-8.2l15.2-15.5c1.6-1.7 4.4-1.7 5.8 0a4.3 4.3 0 0 1 1.3 5.7v.3l-5.7 6.8c-1.7 2-5.2 7.1-6.8 9.6Zm16.6 13.9a6 6 0 0 1-8 1.6c-2.6-1.3-3.5-4.6-2.1-7.3v-.3l12.8-17.5a4.3 4.3 0 0 1 5.8-1c1.9 1 4 3.5 3.3 5.1v.3l-5.2 8.2c-2 3-5.7 9.8-5.7 9.8.3 0-.9.8-.9 1.1Z"/>
		<path fill="#F9A97E" d="M1029.2 121.3c-2.2 2.8-6 3-8.7.9a6 6 0 0 1-1.4-8v-.2l.6-.6 14.2-17.5a4.3 4.3 0 0 1 6.2-.8c2.2 1.4 3 4.1 2.2 6.3v.6l-5.4 7.3c-2.5 3.6-7.7 12-7.7 12Zm-7.4-24.3c-1.3 1.4-3.8 1.4-5.4 0-1.7-1-2-3.5-.8-5.2l7.9-7.3c1.3-1.1 3.3-1.1 4.3 0a3 3 0 0 1 .6 4.3l-6.6 8.2Z"/>
		<path fill="#F9A97E" d="M1032.8 97.9c-2 1.6-4.4 1.3-6.3-.3a4.3 4.3 0 0 1-1.1-5.8s9.3-9.2 9.5-9.2a3.5 3.5 0 0 1 5 0c1.6 1 2.1 3.2 1 5.2l-8.1 10c.2-.2.2-.2 0 0Zm16.6 10.9a6 6 0 0 1-7 1c-2-1-2.8-3.5-2-5.4l8.5-10.6c1-1.7 2.7-2 4.3-.9 1.7 1.1 3.9 3 3 4.7l-6.8 11.2Z"/>
		<path fill="#F9A97E" d="M1042 102a5 5 0 0 1-6.8.2 4.5 4.5 0 0 1-1.3-6.3l9.5-11.4c1.1-1.7 3.6-2 5.2-.8 1.6 1 2.7 3.8 1.6 5.4l-7.9 12.3-.3.6Zm-13-12.9c-1.2 1.1-3 1.4-4.2.3-1.3-1.1-2.7-3.3-1.6-4.7l.1-.1 6.2-4.2c1.3-.8 3-.8 4.4 0 .8 1 1 2.4 0 3.5l-5 5.2Z"/>
		<path fill="#F9A97E" d="M1036 87.2c-1.3-1-2.1-3-1-4.6l6.5-6c.8-1.1 2.5-1.1 3.6-.3 1.6 1.3 2.1 3.3 1 4.6l-5.1 6.9c-1.4 1-3.6.8-5-.6Zm14.5 11.2c-1.6-.8-2.2-3-1.6-4.6l5.2-6.9a5.2 5.2 0 0 1 5.2-1.3c1.6.8 1.9 2.7 1 4.3v.3l-4 7.7a5 5 0 0 1-5.8.5Z"/>
		<path fill="#F9A97E" d="M1044.5 90a3.5 3.5 0 0 1-1-5v-.7l6.5-7.2c1.3-1.4 3.5-1 4.9.3 1 1 1 2.7.5 3.8l-5.3 8.1c-1.9 1.7-4 1.7-5.6.6Z"/>
		<path fill="#F68B62" d="M967 152.8c3.8 6 7.9 11.4 12.5 16.9 4.7 3.8 9.8 6.3 15.6 8l11.2 2-7.1-5.4-18-6.5-14.3-15Zm7.3-9.3s3.3 1.3 4.4 1.9l6.3 3.3c0-1.7 0-3.3-.3-5-.3-1.6-.8-3.2-1.6-4.6l-3-4.1 2.7 2 3 4.3 1 10.6-9.5-4.9-3-3.5Zm57.1-8.5s-4.6-8-6.3-10.4a189 189 0 0 0-16.4-21.6c-.8-.8-1.9-1.3-2.7-1.9l1 6 17.3 23.3 7.1 4.6Zm5.5 8.5 3.8 4.3 3.5 5-5.4-3.3-2-6Z"/>
		<path fill="#F9A97E" d="m981.7 170.8 2.7 1.6c3.3 2 6.9 3.6 10.7 4.4l10 2.4c3.9 1.1 11.8 1.4 15.1 3.6l6.3 4.4c7 6.8 14.2 9.3 22.1 3a20 20 0 0 0 2.5-29.8l-10.7-12.3c-3-3.5-5.7-7.4-8.2-11.2 0 0-23.5-35.5-27.3-36l-2.7 4.9a19 19 0 0 1-4.4 4.9l-8.5 6.3a11 11 0 0 1-8.2 2.4h-3a5.8 5.8 0 0 0-5.1 3.3c-.9 2-.3 4.1 1.3 5.5l6.8 8.2c2.5 2.2 3.9 5.4 3.9 8.7v3.3c0 .5-.3 1-.8 1a5.7 5.7 0 0 0-4.7 3.6l-2.7 8.2c-.3 2 3.5 8.8 4.9 9.6Z"/>
		<path fill="#F9A97E" d="m954.1 140 11.8 11.4 13 17c3 4 9 4.8 13.2 1.8a9.3 9.3 0 0 0 2.7-11.7l-.8-1.4-.6-.5c-3.8-4.4-8.4-8-13.6-10.4l-2-.8-7.9-5.2-6.5-4.4a6.8 6.8 0 0 0-9.3 1.4c-.8.8-.8 1.9 0 2.7Zm44.3-31.2.8 1.6a5.5 5.5 0 0 0 7.6.6c2.5-2 3-5.5 1.1-8l-1-1-11.3-9.9c-1.3-1.3-3.5-1.6-4.9-.3-1.6 1.4-2.2 3.6-1 5.2l3.2 4.1c1.9 2.2 3.8 5 5.5 7.7Z"/>
		<path fill="#F9A97E" d="M990.7 114c.3.2.6.8.6 1a6 6 0 0 0 8.1.3 6 6 0 0 0 1.1-8.2l-15.3-15.5c-1.6-1.7-4.3-1.7-5.7 0a4.4 4.4 0 0 0-1.4 5.7v.3l5.2 6.5a84 84 0 0 1 7.4 9.9ZM974 127.9a6 6 0 0 0 8 1.6c2.7-1.3 3.5-4.6 2.1-7.3l-.2-.3-12.9-17.5c-1.3-1.9-3.8-2.2-5.7-1-2 1-4 3.5-3.3 5.1v.3l5.2 8.2c2 3 6.4 10.4 6.4 10.4-.3 0 .4.2.4.5Z"/>
		<path fill="#F9A97E" d="M982.2 121.3c2.2 2.5 6 2.8 8.8.6 2.2-2 2.7-5.2 1.3-7.7v-.2c0-.3-.2-.3-.5-.6L977.6 96a4.4 4.4 0 0 0-6.3-.8 5.3 5.3 0 0 0-2.2 6.3l.4.6 5.4 7.3 7.3 12Zm7.4-24.3a4.2 4.2 0 0 0 5.5 0 3 3 0 0 0 .9-4.5l-8.5-8c-1.4-1-2.8-1.1-3.9 0a3.2 3.2 0 0 0-.6 4.5l6.6 8Z"/>
		<path fill="#F9A97E" d="M978.4 97.9c2 1.6 4.4 1.3 6.3-.3 2-1.4 2.2-4.1 1-5.8l-9.5-9.2a3.5 3.5 0 0 0-4.9 0c-1.6 1-1.9 3.2-1 5.2l8.1 10c0-.2 0-.2 0 0ZM962 108.8c2 1.9 5 2.2 7.1 1 2-1 2.8-3.5 2-5.4l-8.3-10.6c-1-1.7-3.2-2-4.9-.9-1.6 1.1-3.2 4-2.4 5.6l6.5 10.3Z"/>
		<path fill="#F9A97E" d="M969.5 102c2 2 4.5 1.9 6.5.2a4.5 4.5 0 0 0 1.3-6.3s-9.5-11.2-9.5-11.4c-1.1-1.7-3.6-2-5.2-.8-2 1-2.5 3.5-1.7 5.4l7.6 11.4 1 1.5ZM983 89c1 1 2.5 1.5 3.6.4 1.4-1.1 2.2-3 1.4-4.4l-.5-.5-5.3-4.1c-1.3-.8-3-.8-4.3 0-.9 1-1.1 2.4-.3 3.5L983 89Z"/>
		<path fill="#F9A97E" d="M975.4 87.2c1.4-1 2-3 .8-4.6l-6.3-6c-.8-1.1-2.4-1.1-3.5-.3-1.6 1.3-2.2 3.3-1.1 4.6l5.2 6.9c1.4 1 3.5.8 5-.6Zm-13.9 11.9c1.6-.8 2.5-2.5 2-4.1l-.5-1-5-6.3c-1.4-1.4-3.6-2-5.3-1.4-1.6.8-1.9 2.7-1 4.4l.8 1.8 3 6c1.4 1.4 4 1.4 6 .6Zm5.2-9.1c1.6-1.2 2.2-3.3 1-5v-.5l-6.2-7.7c-1.4-1.3-3.6-1-5 .3-1 1-1 2.7-.5 3.8l5 8.2c1.6 2 4 2 5.7.8Z"/>
		<path fill="#FCCB0B" d="M1159.5 548.5c2.2-15.3 10.1-86 12-115a2902 2902 0 0 0 3-92c0-3.3-.5-6.3-1.9-9-7.1-15-31.4-65-43.1-82-16.4-24.3-76.8-88.5-76.8-88.5a74 74 0 0 0-15.8 8.5 35.8 35.8 0 0 0-11.5 15.6l87.1 167.7-13 70.2s-5.3 34.6-16.5 49.4c-6 8-13 15-21 21.3l-114.7-.3s-20.5-23-25.1-31.7c-4.7-8.7-11.5-39-11.5-39l-13.1-70s42.9-79.1 56.5-105.9c8-15 30.3-60.6 30.3-60.6a82.2 82.2 0 0 0-26.2-25.2s-65 71.6-81.7 97.3c-15.8 24.5-27.8 58.1-35.2 75.3-1.9 5-3 10.2-3 15.3 0 0-.3 65 1.1 86.6 2 27.9 11.5 98.6 11.7 110.9 1.4 56.8 41.6 193.6 40.2 207.3-1.4 13.7 5.2 14 1.9 21.6-3.3 7.6 1 25.6-1.4 31.1s3.3 6-.2 15.3c-3.6 9.3 2.7 26-1.7 40.4-4.3 14.5-1.9 30-1.9 36.6 0 6.3-3 8.2-3 19.7 0 10.6-1 21.3-3 32-1 .5-1.4 1.9-.8 3v.2a50 50 0 0 0-.8 15.9s24.5 13.9 51.9 13.9c0 0 20.4-.6 50.2-.8 14.5.5 30 .5 46.2 0 14.7 0 30.3.2 45.8.8a110 110 0 0 0 51.7-14c.8-5.1.5-10.3-.6-15.5 0 0 2.2-.8-.5-3.6-2-10.6-2.8-21.3-2.8-32 0-11.4-3-13.3-3-19.6 0-6.3 2.5-22.1-1.9-36.3-4.3-14.2 2-31.1-1.6-40.4-3.6-9.3 2.5-10.1-.3-15.3-2.4-5.5 2-23.5-1.3-31.2-3.3-7.6 3.2-7.9 1.9-21.5-.8-14 39.6-177.6 43.4-206.5Z"/>
		<path fill="#FCCB0B" d="m1062.5 494.7-12.8-8.5c-16.7 6.3-32.2 5.5-45.3 5.5-15.3.5-30.9-1.4-45.6-5.2l-11.2 7.1c-.9 5.7 15.8 20.5 57.9 20.5 44.7 0 57-14.5 57-19.4Z"/>
		<path fill="#231F20" fill-opacity=".3" d="M1073.5 983.3a99.2 99.2 0 0 0 53.8-14 41 41 0 0 0-.6-15.2s2.2-.8-.5-3.6c-2-10.6-2.8-21.3-2.8-32 0-11.4-3-13-3-19.6 0-6.6 2.5-22.1-1.9-36.6a61.9 61.9 0 0 1-1.3-21.3c-11.8 20.2 3.5 30.6-3 48.6-7.2 19.4 4.3 24 4.6 34.7 0 10.7-2.7 18.3 1 23.5 4 5.2 7 14 5.3 14-6.6-.4-2.2 7.6-11 5.4-8.7-2.2-14.4 2.2-9.8 4.4 0 .2-8.2 9-30.8 11.7Zm-159-1.6c-3.8-2.2-6.8-10.1-6.8-14 0-8.7-8-13.9-16.1-9.8-8.2 4-8-3.6-1.1-12.8 6.8-9 10.4-12.9 1.6-29 0 0-4.4-9.8 1.4-32.2 4-16.1 3.3-27-1.4-37.4.3 5.2-.3 10.6-1.6 15.5-4.4 14.5-2 30-2 36.6 0 6.3-3 8.2-3 19.7 0 10.6-1 21.3-3 32-1 .5-1.3 1.9-.8 3v.2c-1 5.2-1.3 10.7-.8 15.9 10.7 5.7 22.1 9.8 33.6 12.3ZM899 781c9.2-7.5-8-6.4-6.6-32.3 0 2.2-.3 3.8-.3 5-1.4 13.6 5.2 13.8 2 21.5a30.6 30.6 0 0 0-1.2 13 19 19 0 0 1 6-7.3Zm-8 48c2-3 4.4-5.5 7.1-7.4 8.5-6-.3-9.3-4.9-17.7 0 1-.3 2.1-.8 3-2.5 5.4 3.3 6-.3 15.3a27 27 0 0 0-1 6.8Zm219-48c-9.2-7.5 8-6.4 6.6-32.3 0 2.2.3 3.8.3 5 1.3 13.6-5.2 13.8-2 21.5 1.4 4.4 1.7 8.7 1.2 13a25.5 25.5 0 0 0-6-7.3Zm7.7 48c-2-3-4.4-5.5-7.1-7.4-8.5-6 .3-9.3 5.2-17.7 0 1 .3 2.1.8 3 2.5 5.4-3.3 6 .3 15.3.5 1.9.8 4.3.8 6.8Z"/>
		<path fill="#EC2227" fill-rule="evenodd" d="m887.5 906.3 116.6.5 117.1.8c.9 3.9 3.9 13.7 4.7 20l.3 2.7c6.5 72.1 11.2 79 27.3 243.6l-132.8 17.2-16.3-129.1-17 129.4-132.7-17.2c15.8-135.2 17.7-148.8 28.1-244.2.3-3-.2-5.4.3-8.4s1.6-6.3 2.5-9.3l1.3-4.7.6-1.3Z" clip-rule="evenodd"/>
		<path fill="#754C29" d="M1078.1 379.4v-.2l12.3-37.7c.5-3.3.5-6.6 0-9.9l-2.5-15.8c-.2-1.6-.2-3.5.3-5.2 1.1-4.4.8-8.7-1-12.8l-9.7-18.9a29.8 29.8 0 0 0-5.4-7.6l-5.5-6a35 35 0 0 0-4-3.8l-4.2-3a87.8 87.8 0 0 0-33.3-15l-3.3-.9a94.9 94.9 0 0 0-31.6-1l-22.2 3.2c-2.7.3-5.2 1-7.6 2.2l-10.4 4.6a8 8 0 0 0-4.9 7.4v.3a3 3 0 0 1-2.2 2.7l-3.3 1c-2.7 1-4.9 2.8-6 5.3l-10 23.5a36.8 36.8 0 0 0-3 16l.2 12.1c0 2 .3 3.5.5 5.5l3.9 22.6v.3l2.4 21.9 1.1 2.4c2 4.4 3.3 9.3 3.6 14.2v.3l16.6 34.7c0 .2.3.5.3.8l13.1 20.7c3.8 6 9.3 10.7 15.6 13.7l12.5 9.3c3 1.4 6.3 1 9-.3l4.1-2.2c.6-.2 1.4-.5 2-.2l9.2 2.4c.6 0 1.1 0 1.7-.3l11.7-4.6a32 32 0 0 0 17-15.3l9.5-17.5c1.1-1.3 2-2.7 2.5-4.3 1.6-5 8.4-14.5 9.3-17.5.2-.6.2-1.1.5-1.4l11.2-25.7Z"/>
		<path fill="#EC2227" d="M1092.8 570h14.9v4.3h-9.4v4.2h8.7v4.3h-8.7v4.8h9.7v4.4h-15.2v-22Zm-13.6 22.4c-1.6 0-3-.2-4.2-.6a7 7 0 0 1-4.5-4.6c-.4-1-.5-2.3-.5-4V570h5.5v13.5l.1 1.9.7 1.1 1.3.8a4.8 4.8 0 0 0 3.3 0 3 3 0 0 0 1.2-.8l.7-1.1.2-1.9V570h5.5v13.3c0 1.6-.2 2.9-.6 4a7 7 0 0 1-4.5 4.5 13 13 0 0 1-4.2.6Zm-20 0c-2 0-3.9-.5-5.5-1.3-1.7-1-3-2.2-4-4-.9-1.6-1.4-3.7-1.4-6.1 0-2.4.5-4.4 1.6-6.1 1-1.8 2.3-3 4-4a11.6 11.6 0 0 1 12.4 1.2c.6.5 1 1 1.2 1.3l-2.7 3.6a6 6 0 0 0-3-2.2c-.6-.3-1.3-.4-2.1-.4-1.1 0-2.1.3-3 .8a5 5 0 0 0-2 2.3c-.5 1-.7 2-.7 3.4 0 1.3.2 2.5.7 3.5a5 5 0 0 0 2 2.3 6.4 6.4 0 0 0 8.2-1.8l2.7 3.7c-.4.6-1 1.2-1.8 1.8-.7.5-1.7 1-2.8 1.4a12 12 0 0 1-3.8.6Zm-21.6 0a15 15 0 0 1-4.7-.8c-1.5-.6-2.8-1.4-3.8-2.3l2.5-4a11 11 0 0 0 2.8 1.8 8 8 0 0 0 3.2.7 5 5 0 0 0 2.5-.5c.6-.3.8-.8.8-1.4 0-.4 0-.8-.4-1l-.7-.7-1-.4-2.1-.8a53 53 0 0 1-.9-.3l-.6-.2a10 10 0 0 1-3-1.6 5.4 5.4 0 0 1-1.5-1.8 6 6 0 0 1-.6-2.8 6.3 6.3 0 0 1 2.6-5c.8-.6 1.6-1 2.5-1.2a12 12 0 0 1 9.1 1c.8.3 1.5.8 2 1.2l-2.2 3.8a8.3 8.3 0 0 0-2.5-1.6c-1-.4-2-.6-3-.6s-1.8.2-2.3.5c-.5.2-.8.7-.8 1.3 0 .4.2.7.4 1l.8.6a45 45 0 0 0 4.6 1.7c1.3.4 2.3 1 3 1.6a5 5 0 0 1 1.6 1.9c.3.7.5 1.6.5 2.7 0 2.1-.8 3.9-2.3 5.2-.8.6-1.7 1-2.7 1.5-1 .3-2.3.5-3.8.5Zm-25.2-22.4h14.8v4.3h-9.4v4.2h8.8v4.3h-8.7v4.8h9.7v4.4h-15.2v-22Zm-20.9 0h8.7c2.6 0 4.6.5 5.9 1.5a6.4 6.4 0 0 1 2.6 5.3c0 1.2-.3 2.4-.8 3.4a6.6 6.6 0 0 1-3.4 2.8l5.5 9h-6.2l-4.6-8H997v8h-5.5v-22Zm8.3 9.9a4 4 0 0 0 2.3-.6c.4-.3.6-.6.8-1a3 3 0 0 0 0-2.6c-.2-.4-.4-.7-.8-1-.6-.3-1.3-.5-2.3-.5H997v5.7h2.8Zm-31.5-9.9h14.3v4.3h-8.8v5h8v4.3h-8v8.4h-5.5v-22Zm-20.9 0h8.7c2.6 0 4.6.5 5.9 1.5a6.4 6.4 0 0 1 2.6 5.3 7 7 0 0 1-.8 3.4 6.6 6.6 0 0 1-3.4 2.8l5.5 9h-6.2l-4.6-8H953v8h-5.5v-22Zm8.3 9.9a4 4 0 0 0 2.3-.6c.4-.3.6-.6.8-1a3 3 0 0 0 0-2.6c-.2-.4-.4-.7-.8-1-.6-.3-1.3-.5-2.3-.5H953v5.7h2.8Zm-21.9 12.5c-1.6 0-3-.2-4.2-.6a7 7 0 0 1-4.5-4.6 14 14 0 0 1-.5-4V570h5.5v13.5c0 .8 0 1.4.2 1.9.1.4.3.8.7 1.1.3.3.7.6 1.2.8a4.8 4.8 0 0 0 3.3 0 3 3 0 0 0 1.2-.8c.3-.3.6-.7.7-1.1l.2-1.9V570h5.5v13.3a13 13 0 0 1-.5 4 7 7 0 0 1-4.5 4.5c-1.2.4-2.6.6-4.3.6Zm-21 0a15 15 0 0 1-4.7-.8c-1.5-.6-2.8-1.4-3.8-2.3l2.6-4a11 11 0 0 0 2.7 1.8 8 8 0 0 0 3.2.7 5 5 0 0 0 2.5-.5 1.5 1.5 0 0 0 .5-2.4l-.8-.7a13 13 0 0 0-1-.4l-2.1-.8-.9-.3-.6-.2a10 10 0 0 1-3-1.6 5.5 5.5 0 0 1-1.5-1.8 6 6 0 0 1-.6-2.8 6.3 6.3 0 0 1 2.6-5c.8-.6 1.6-1 2.5-1.2a11.9 11.9 0 0 1 6.4 0 12.9 12.9 0 0 1 4.7 2.2l-2.1 3.8a8.2 8.2 0 0 0-2.6-1.6c-1-.4-2-.6-3-.6s-1.8.2-2.3.5c-.5.2-.7.7-.7 1.3 0 .4 0 .7.3 1l.8.6a99.9 99.9 0 0 0 4.7 1.7c1.2.4 2.2 1 3 1.6a5.8 5.8 0 0 1 2.1 4.6c0 2.1-.8 3.9-2.4 5.2-.7.6-1.6 1-2.7 1.5-1 .3-2.3.5-3.8.5Zm8.5-281.5a124 124 0 0 0-59.5 18.8 14.4 14.4 0 0 0-7.1 7.4c-2.7 8.7 9 14.5 18.3 16.1 79.7 12.6 150.5 21.6 229.4 5.8 8.8-1.7 29-3.9 35.5-9.9 6.6-6 9.3-14.2 3.6-21-3.6-4.4-9.6-6-15-7.4a382.8 382.8 0 0 0-46.5-7.9"/>
		<path fill="#D32027" d="M1092.8 314.7s-10.3-60.9-11.4-62c-1.1-1-26.2-1.4-26.2-1.4L1011 259l-30.5 3-32.4-15s-20.5 1-20.5 4.3c0 11.5-8.2 59.9-8.2 59.9-.3 3 4.1 4.3 6 6.5 2 2.2 6.3 3.6 9.9 4.4 34.4 7.9 30.6 9.3 67.2 12.5 35.5.6 31 .3 68.2-7.3 3.8-.8 14.5-3 16.7-5.5 2.2-2.4 6-4.6 5.4-7Z"/>
		<path fill="#EC2227" d="M1081.4 253.5c0 8.2-49.2 12.6-84.4 12.6s-67.7-6.6-67.7-14.8c0-8.1 33.5-13 68.5-13s83.6 7 83.6 15.2Z"/>
		<path fill="#EC2227" fill-rule="evenodd" d="M967.7 508.9a46.3 46.3 0 0 1-20-14.5.8.8 0 1 0-1.3 1.1 48 48 0 0 0 20.7 15c9.5 3.5 22.7 5.4 43 5.2 20.4-.1 33.5-5 41.7-9.7a42.1 42.1 0 0 0 11.2-9.8l-.7-.4.7.4a.8.8 0 0 0-1.5-.9m0 0v.2l-.5.6-1.8 2c-1.7 1.8-4.4 4-8.3 6.4a79.8 79.8 0 0 1-40.8 9.6 123 123 0 0 1-42.4-5.2" clip-rule="evenodd"/>
		<path fill="#EC2227" d="M561.6 174.3c15.9-39.8 47.3-71.8 83.9-93.4 44.2-26.2 93.4-30.3 143.6-22.4h.3l6.6-13.9 31.4 42.9-55 6.8 6.6-14c-43.7-6-86-1.6-124.2 22.2-31.2 19.4-56.8 45.6-71 79.2l14.7 5-41 37.3-9.5-54 13.6 4.3Zm855.4 0c-15.8-39.8-47.2-71.8-83.8-93.4-44.3-26.2-93.4-30.3-143.7-22.4h-.2l-6.3-14.2-31.4 42.9 54.9 6.8-6.6-13.9c43.7-6 86-1.6 124.3 22.1 31.1 19.4 56.8 45.6 71 79.2l-14.8 5 40.7 37.4 9.6-54.1-13.7 4.6Z"/>
	</symbol>
	<symbol id="questions-signal2" viewBox="0 0 2080 1880">
		<path fill="#ADE0F0" d="m1177.4 1516.9 110.6.7c10.3 0 21.2.2 30.3 3.7 9.2 3.5 15.6 11.5 11 17.7-6 8.2-27 8.3-30.3 17.4-3.2 9 13.2 15 26.2 17.6 43 8.8 59.7 18.1 102.6 26.9 21.2 4.3 55.7 15 57.9 29.8 1.4 9.3 9 14-3.1 18.3-12 4.3-26.1 5.1-39.8 5.8-74 3.8-148.5 4.7-223 2.5-29-.8-59.8-1.8-85 7.3-7.7 2.7-14.7 6.5-23 8.4a119 119 0 0 1-34.6.8L688 1645.2c-21-1.6-45.8-5-54.2-18.2-8.5-13.1 7-28.3 26.2-34.2 19.1-6 41.3-6.3 61.4-10.6 20.2-4.3 40-15.1 39-29.6-.4-5.3-3.8-10.7-3.3-16.1 1.4-15.8 31.3-20.7 54.6-21.4 153.8-4.6 308.3-3.4 462.5 3.6"/>
		<path fill="#FFF2CB" d="m955.7 1598.3-110.6-4.7a89 89 0 0 0-30.4 2.2c-9.3 3-16.2 10.8-12 17.1 5.7 8.6 26.7 9.7 29.5 18.9 2.8 9.1-13.9 14.2-26.9 16.1-43.4 6.8-60.6 15.3-104 22-21.3 3.3-56.3 12.4-59.2 27-1.8 9.2-9.6 13.4 2.2 18.4a140 140 0 0 0 39.5 7.8c73.7 7.4 148 11.9 222.5 13.4 29.1.6 59.9 1 84.6 11.4 7.6 3.2 14.4 7.2 22.6 9.5 10.8 3 22.9 2.7 34.6 2.5l390-9.4c21-.5 46-2.7 55-15.5 9-12.7-5.7-28.6-24.5-35.5-18.8-6.9-41-8.3-60.9-13.5-19.9-5.2-39.2-17-37.4-31.5.7-5.3 4.3-10.5 4-15.9-.6-15.8-30.1-22.1-53.5-24a6133.2 6133.2 0 0 0-462-19.1"/>
		<path fill="#fff" d="M955.7 1591.6c-39.8-1.7-79.7-4.8-119.5-5-12.1 0-27.3.9-36.2 10.5-6.5 7-6.8 16.7.6 23.3 3.6 2.7 7.6 5 11.8 6.5 3 1.2 7.4 2 9.7 4 3.5 3.3 3.1 1.4.6 5-3.4 5-19 5.6-24.4 6.5a478 478 0 0 0-26.3 5.2c-29.4 6.6-59.2 12.1-88.5 19-20 4.7-41.2 10.8-48.6 31.4-2.9 8-6.3 14.1 1.4 20.4 10.8 8.8 29.8 9.5 43 11 78.4 8.6 157.4 12.1 236.3 14 17.7.5 35.6 1 53 4.8 16 3.4 29.7 12.5 45.5 16.3 16.2 3.9 33.5 2.2 50 1.8l64.1-1.6 240.5-5.8 58.7-1.4c16-.4 32.6-.2 48.1-4.6 20-5.6 36.1-23 20.7-42.7-20.9-26.5-62-22.6-91-32a58 58 0 0 1-22.4-11.7c-8.7-8.3-3.5-14.2-2.1-24 1.4-9.6-3.3-16.8-11-22-11.9-8-27.5-10.3-41.3-11.9-21.8-2.7-43.9-3.6-65.7-5a5944.3 5944.3 0 0 0-404-15c-8.6 0-8.6 13.5 0 13.5 143.6.7 287 6.2 430.4 16.8 16.3 1.2 33 1.6 49 4.6 6.7 1.1 13.2 3 19.4 5.6 2.5 1 4.8 2.4 6.8 4.2 5.2 5.2 2 9.1.5 15.4-5.5 23.4 17.7 36.5 37 42.5 15.2 4.8 31.3 6.3 47 9.8 11.4 2.5 40.8 9.2 40.4 25.4-.3 14.6-29.3 16.2-39 16.8-17.3 1.2-34.8 1.1-52.1 1.5l-216.4 5.4-106.9 2.7c-17.8.4-37.1 3-54.7-.5-14.5-2.7-27.2-11.5-41.6-15.3-30.2-8.1-62.4-6.6-93.4-7.5a3099.8 3099.8 0 0 1-210.4-14.1c-8.4-1-16.6-2.7-24.6-5.1-8.5-2.7-4.1-.8-3.3-6.2.5-1.8 1-3.6 1.8-5.3 5.4-10.8 20.7-14.4 31.5-17.4 27.5-7.5 56.3-11.3 84-18 16.7-4.1 33.7-6.2 50.2-10.1 8.4-2 20.9-5.8 24.1-15 3.2-9.4-3.5-15.6-10.8-19.5-4.4-2.3-11.8-3.2-15.4-6.7-10.6-10 19.2-12 24.2-12 39.8.3 79.8 3.4 119.5 5 8.6.4 8.6-13 0-13.4l-.2-.1Z"/>
		<path fill="#F9A97E" d="m922 1048.3 16.2-88.2c2.7-37.7 22-73.3 60.3-73.3 40 0 72.6 32.4 72.7 72.5 0 0 2.7 24-25.4 72.4-2.4 4-10.8 36.3-15.8 69.7l-18.9 124.4c-.6 4-.9 8-.9 11.9v14a35.3 35.3 0 1 1-70.5 0v-3a248 248 0 0 0-2-31.8l-11.7-89.6a482.5 482.5 0 0 1-4-79Z"/>
		<path fill="#F9A97E" d="m931.3 1341.5 8.2-89.8a35.3 35.3 0 0 1 70.5 0l-1.7 47.5a57 57 0 0 0 .7 10.7l9.6 62.1c1 7 1.5 14 1.1 21l-8.9 192.7a22 22 0 0 1-44 0l-15.5-107-18-99.7a131 131 0 0 1-2-37.5Z"/>
		<path fill="#F9A97E" d="m944.9 1674 14.7-31.3c2.4-5 3.3-10.5 2.7-16l-1.4-12c-.3-2.4-.1-5 .5-7.4l5.4-21.5a22 22 0 0 1 44 0l3.9 9.5c1.4 3.4 2.3 7 2.7 10.6l1.6 14.7.7 3.8 7.3 34.1a22 22 0 0 0 1.6 5l3.7 7.7c1.3 2.5 1 5.5-.6 7.7l-1.5 2a8.7 8.7 0 0 1-7 3.8h-72.5a6.4 6.4 0 0 1-5.6-3.4 8 8 0 0 1-.2-7.3Z"/>
		<path fill="#F68B62" d="M977.4 1601s3.8 33 3.8 42.1c0 3.8-8.3 11.3-11.4 18.9-3 7.4-4.6 15.2-5 23.2h-3a65.3 65.3 0 0 1 2.8-27.8c4.4-12.3 10-19 8.8-20.3-5-4.8 4-36 4-36Zm38.6 61.5s-19-33.2-5-40.8c5.5-3 3.5 8.6 3.5 8.6l1.6 32.2Z"/>
		<path fill="#F9A97E" d="m1162.6 1674.7-14.7-31.3c-2.4-5-3.3-10.5-2.7-16l1.4-12c.3-2.4.1-5-.5-7.4l-5.4-21.5a22 22 0 0 0-44 0l-3.8 9.4c-1.4 3.4-2.3 7-2.7 10.6l-1.7 14.8a37 37 0 0 1-.6 3.8l-7.3 34.1c-.3 1.7-.9 3.3-1.6 4.9l-3.8 7.7c-1.2 2.5-1 5.5.7 7.8l1.5 2a8.7 8.7 0 0 0 7 3.7h72.5c2.3 0 4.5-1.2 5.6-3.3a8 8 0 0 0 .1-7.3Zm23-626.4-14.2-90.8c-2.7-37.6-23.9-70.7-62.2-70.7-40 0-72.5 32.4-72.6 72.5 0 0-2.7 24 25.4 72.4 2.3 4 10.7 36.3 15.8 69.7a77925 77925 0 0 0 18.8 124.4c.6 4 1 8 1 11.9v14a35.3 35.3 0 0 0 70.5 0v-3c0-10.6.6-21.3 2-31.8l11.7-89.6c3.5-26.1 4.7-52.6 3.8-79Z"/>
		<path fill="#F9A97E" d="m1176.3 1342.2-8-89.8a35.3 35.3 0 0 0-70.6 0l1.7 47.5c.2 3.6 0 7.3-.6 10.8l-9.6 62.1c-1.1 7-1.5 14-1.2 21l9 192.7a22 22 0 0 0 44 0l15.5-107 18-99.7c2.4-12.4 3-25 1.8-37.6Z"/>
		<path fill="#F68B62" d="M1131 1601s-3.8 33-3.8 42.1c0 3.8 8.2 11.3 11.4 18.9 3 7.4 4.7 15.2 5 23.2h3.2c1-9.4 0-18.9-3-27.8-4.3-12.3-10-19-8.7-20.3 4.8-4.8-4-36-4-36Zm-38.6 61.5s19-33.2 5-40.8c-5.5-3-3.5 8.6-3.5 8.6l-1.5 32.2ZM1118 364.4l3.4-2a8 8 0 0 1 10.3 1.5 6 6 0 0 1 1.4 4v2.9a58.3 58.3 0 0 1-6.1 24.5l-.3.7c-.5 2.3-4.8 15.7-6.4 16.1-1.5.4-3 .1-4.3-.8-.5-.3-.8-1-.7-1.5l1.1-42.7c0-1 .6-2.1 1.6-2.7Zm-128.3 0-3.4-2a8 8 0 0 0-10.3 1.5 5.9 5.9 0 0 0-1.5 4v2.9a58 58 0 0 0 6.1 24.5l.3.7c.5 2.3 4.8 15.7 6.4 16.1 1.5.4 3 .1 4.3-.8.5-.3.8-1 .7-1.5l-1.1-42.7c0-1-.6-2-1.5-2.7Z"/>
		<path fill="#F9A97E" d="M1107.6 496.1c-4.5-2-7.7-6.1-8.7-11l-8.3-39.2H1017l-8.3 39.3a16 16 0 0 1-8.6 11h107.5Z"/>
		<path fill="#F9A97E" d="M1116.8 298.2c-9.7-14.5-27.8-29.1-61.2-29.1-41 0-59 21.8-66.7 38.8-4 9-6 18.8-5.4 28.7a598.7 598.7 0 0 0 8.4 74.8 55.3 55.3 0 0 0 19.3 35.3c6 5.3 12.4 10 19 14.4 5.3 3 10.9 5.3 16.6 7.1 5.8 1.9 12 1.8 17.8-.3 4.9-1.8 9.6-4 14-6.8 7.8-5.5 15-11.7 21.5-18.5a55.7 55.7 0 0 0 14.2-24.7l9.4-45.8 3.2-33c1.4-14.4-2-28.8-10-41ZM514.3 488.6l2.7 1.7c3.3 2.1 6.4 4.7 9 7.6l7.1 8c2.7 3.2 6.6 10 10.3 11.9l6.8 3.6c9.5 3.2 14.9 8.6 13.1 18.7a20.5 20.5 0 0 1-23.6 16.6c-.7 0-1.3-.3-2-.4l-16-3.8c-4.7-1-9.4-1.8-14.1-2.2 0 0-43.1-4.6-45.3-7.8l3-4.7c1.3-2 2.2-4 2.5-6.3l1.9-10.6c.5-3-.1-6-1.6-8.6l-1.3-2.7c-1-2-.8-4.4.7-6.2 1.3-1.5 9.5-3 15.4-2.3l10.1 1 3.1.3c.5-.3.8-.8.6-1.3a6 6 0 0 1 1-5.9l6.2-6.3c1.1-1.3 9-1.2 10.4-.3Z"/>
		<path fill="#F9A97E" d="m470.1 487 16.6 1.7 21.5-.7a9.5 9.5 0 0 1 2.4 18.9l-1.7.1h-.6c-6-.1-11.7-1.6-17-4.2l-1.8-.9c-3-1.1-6-2-9-2.8l-7.8-2.3a7 7 0 0 1-5-8 2 2 0 0 1 2.4-1.8Zm-4.3 45.4h1.8a5.5 5.5 0 0 1 4.2 6.8 5.8 5.8 0 0 1-6.7 4.6l-1.4-.5-14.2-5.4a3.6 3.6 0 0 1-2.7-4.3v-.1a4.3 4.3 0 0 1 4.3-3.5l5.2 1.2a43 43 0 0 0 9.5 1.2Z"/>
		<path fill="#F9A97E" d="M467.2 523.2h1.3a6 6 0 0 1 4 7.3 6.1 6.1 0 0 1-6.7 4.8l-21.4-6.6a4.2 4.2 0 0 1-2.7-5.4c.4-2.3 2.3-4 4.6-4h.4l8.4 1.7c2.7 1.1 9.1 1.9 12 2.2ZM477 501c3.1.2 0 3.8 0 7 0 3.1-2.6 5.5-5.7 5.4h-.3l-21.8-3.4a4.3 4.3 0 0 1-3.6-4.8c.2-2.4 1.2-5.4 3.3-5.4h.4l10 .9 17.8.3Z"/>
		<path fill="#F9A97E" d="M469.9 512a6.3 6.3 0 0 1-1.8 12.4h-.2l-.7-.2-22.3-4.8a4.5 4.5 0 0 1-3.8-5.2v-.2a5.5 5.5 0 0 1 4.8-4.9h.6l9.3 1.5c4 .7 14 1.4 14 1.4Zm-18.6 18a4 4 0 0 1 2.5 4.8c-.4 2-2.3 3.3-4.3 3l-10.2-3.7a3.3 3.3 0 0 1-2.1-4.1 3.1 3.1 0 0 1 3.5-2.6l10.6 2.6Z"/>
		<path fill="#F9A97E" d="M446.7 519.7c2.3 1 3.4 3.4 2.7 5.7a4.3 4.3 0 0 1-4.8 3.6l-13-4.2a3.5 3.5 0 0 1-2.2-4.4c.5-2 2.3-3.7 4-3.3l13 2.7h.3Zm2.3-20c2.1.1 4.4 3.6 4.2 6.1 0 2.3-1.8 4.2-4.1 4.2l-13.5-2.2c-2-.3-3.2-2.1-3-4 0-2 1-4.9 2.7-4.8l13.2.7h.5Z"/>
		<path fill="#F9A97E" d="M446.3 509.4c2.4.3 3.9 3.4 3.5 6a4.6 4.6 0 0 1-5 4l-14.8-3.3c-2-.3-3.4-2.3-3-4.3.3-2.1 2.2-4.4 4.2-4.2l14.7 1.6.4.2Zm-5.6 18.1a3 3 0 0 1 2.2 3.7c-.3 1.8-1.9 3-3.6 3l-.5-.2-6.4-2.7a3.8 3.8 0 0 1-2-3.9c.5-1.3 1.8-2 3.1-1.8l7.2 1.9Zm-5.1-5.7c-.3 1.8-1.9 3-3.7 3h-.4l-8.3-2.9a2.7 2.7 0 0 1-2-3c.6-2.2 2.2-3.5 3.7-3.1l8.6 1.4c1.8.7 2.7 2.7 2.1 4.6Zm3.4-17.5c0 1.8-1.4 3.3-3.2 3.4h-.3l-8.7-1.6c-.5-.1-3.6-1.5-3.6-4.2a3.2 3.2 0 0 1 3.6-3l8.7.1c1.7.1 3.7 3.2 3.6 5.3Z"/>
		<path fill="#F9A97E" d="M434 512.8c-.1 2-1.8 3.5-3.8 3.4h-.4l-9.5-2.2a3.6 3.6 0 0 1 1.2-6.9l9.7.8c2 0 3.2 2.8 2.9 5Zm780.3-369.1 1.8 2.7a38 38 0 0 0 7.7 8.8l8.1 6.9c3.1 2.7 10 6.4 12 10l3.7 6.8c3.3 9.4 8.8 14.7 18.9 12.8a20.5 20.5 0 0 0 15.8-25.8l-4-16c-1.2-4.6-2-9.3-2.5-14 0 0-5.4-43.1-8.6-45l-4.6 3c-1.9 1.4-4 2.3-6.3 2.7l-10.5 2c-3 .6-6 0-8.7-1.5l-2.7-1.2c-2-1-4.5-.7-6.2.8a4.9 4.9 0 0 0-1.3 5.4l2.5 10.4c1.2 3.2 1 6.7-.4 9.7l-1.3 3c-.3.5-.8.8-1.4.6a6 6 0 0 0-5.8 1.2l-6.3 6.2c-1 1.4-.8 9 .1 10.5Z"/>
		<path fill="#F9A97E" d="m1203.3 103.2 5.5 15.8 4.3 21.2a9.5 9.5 0 1 0 18.6-3.7l-.2-.6c-1.5-5.7-4.3-11-8-15.6l-1.3-1.5a77 77 0 0 1-4.9-8l-4-7a7 7 0 0 0-9-3 2 2 0 0 0-1 2.4Zm54.1-8.6a5 5 0 0 0 0 1.8c.8 3 3.8 4.8 6.7 4h.2c3-.6 5-3.6 4.4-6.7a5 5 0 0 0-.5-1.4l-5.7-14c-.5-2-2.5-3-4.4-2.6h-.1a4 4 0 0 0-3.4 4.4l1.3 5.1c.8 3 1.3 6.2 1.5 9.4Z"/>
		<path fill="#F9A97E" d="M1248.2 96c0 .5 0 1 .2 1.4v.1a6 6 0 0 0 7.3 4 6.2 6.2 0 0 0 4.7-6.9l-7-21.2a4.3 4.3 0 0 0-5.4-2.7 4.8 4.8 0 0 0-3.9 4.6v.4l1.9 8.4c1 2.7 1.8 9 2.2 12Zm-21.4 5.1a5.8 5.8 0 0 0 6.4 5c3-.1 5.5-2.7 5.3-5.8v-.3l-3.7-21.7a4.4 4.4 0 0 0-5-3.5c-2.3.1-5.3 1.2-5.3 3.3v.3l1 10 1.4 12.6v.1Z"/>
		<path fill="#F9A97E" d="M1237 99a6.3 6.3 0 0 0 12.4-2v-.3a3 3 0 0 0-.2-.6l-5-22.2a4.7 4.7 0 0 0-5.3-3.7h-.1a5.6 5.6 0 0 0-4.8 4.9v.5l1.6 9.2c.7 4 1.4 14.2 1.4 14.2Zm17.7-19a4 4 0 0 0 4.9 2.5c2-.3 3.3-2.2 3-4.2l-4-10.2a3.4 3.4 0 0 0-4.1-2 3.1 3.1 0 0 0-2.5 3.5l2.7 10.5Z"/>
		<path fill="#F9A97E" d="M1244.4 75.8a4.6 4.6 0 0 0 5.7 2.6 4.3 4.3 0 0 0 3.5-4.9l-4.4-12.8a3.5 3.5 0 0 0-4.4-2.2c-2 .5-3.7 2.4-3.3 4.1l2.7 13 .2.2Zm-20 2.5c.1 2.2 3.6 4.3 6.1 4.2 2.3 0 4.2-2 4.2-4.3l-2.5-13.5a3.5 3.5 0 0 0-4-2.8c-2 .1-4.9 1-4.7 2.8l.8 13.2v.4Z"/>
		<path fill="#F9A97E" d="M1234 75.3c.3 2.4 3.5 3.9 6.1 3.5a4.6 4.6 0 0 0 4-5l-3.5-14.6a3.7 3.7 0 0 0-4.4-3c-2 .4-4.4 2.4-4 4.3l1.8 14.7v.1Zm18-5.7a3 3 0 0 0 3.7 2.1c1.8-.4 3.3-2 3-3.6l-.2-.5-2.7-6.3a3.8 3.8 0 0 0-4-2c-1.2.5-2 1.8-1.6 3.2l1.8 7.1Zm-5.7-5c1.8-.3 3-2 2.9-3.8v-.2l-3-8.2a2.7 2.7 0 0 0-3-1.9c-2.2.5-3.5 2.2-3.1 3.7l1.5 8.5a4 4 0 0 0 4.7 1.9Zm-17.5 3.7a3.5 3.5 0 0 0 3.4-3.4l-1.8-8.6c-.1-.6-1.5-3.6-4.2-3.5a3.2 3.2 0 0 0-3 3.6l.3 8.6c.1 1.6 3.2 3.5 5.3 3.3Z"/>
		<path fill="#F9A97E" d="M1237.3 63.2c2-.2 3.4-2 3.3-3.9V59l-2.4-9.5a3.6 3.6 0 0 0-7 1.4l1 9.6c.2 1.8 3 3 5 2.7Z"/>
		<path fill="#754C29" d="M1129 380v-.4l12.4-38.3a28 28 0 0 0 0-10l-2.7-16.2a12 12 0 0 1 .3-5.3c1.3-4.3.9-8.9-1.1-12.9l-9.6-19.2a35.8 35.8 0 0 0-5.4-7.8l-5.6-6a29.9 29.9 0 0 0-4.3-3.9l-4-3a88.5 88.5 0 0 0-33.7-15.2l-3.4-.7a88.7 88.7 0 0 0-32.3-1l-22.4 3.4c-2.7.4-5.4 1.2-7.9 2.4l-10.4 4.7a8.4 8.4 0 0 0-5 7.6v.2a3 3 0 0 1-2.2 2.9l-3.4 1c-2.8.7-5 2.7-6 5.3L972 291.5a37 37 0 0 0-3.1 16.1l.3 12.3c0 1.9.2 3.7.5 5.6l4 23v.2l2.6 22.2 1.1 2.6a46.8 46.8 0 0 1 3.7 14.7l17 35.2c0 .3.1.5.3.7l13.2 21a36 36 0 0 0 15.8 13.9l12.7 9.3c3 1.3 6.4 1.2 9.2-.3l4-2.2c.6-.4 1.3-.5 2-.4l9.5 2.6c.5 0 1 0 1.6-.2l11.8-4.7a33 33 0 0 0 17.4-15.5l9.8-17.7c1-1.3 1.9-2.8 2.5-4.4 1.7-5 8.5-14.8 9.5-17.8l.4-1.5L1129 380Z"/>
		<path fill="#FCCB0B" d="M1211.7 551.7c.8-6.1 15.1-22.8 26.2-39.1 16.7-24.8 30.1-40.4 38.8-54.8 9.8-16.2 33.3-67.6 33.3-67.6a41 41 0 0 0 4.2-16.9c.6-18.8 1.7-62.5-.3-79.5-4-32.3-31-126-31-126l-37.4 1.7s.7 112.7 8 161c1.4 9.6-2.7 38.8-2.7 38.8s-32.7 44.7-44.5 59c-8 9.7-16.8 18.9-33.5 37.5-9.8 11-59.8 31.3-59.8 31.3L996 496s-79.1 4.3-107.8 10.5c-23 5-71 8.8-94.8 10.4-24.8 1.7-99.3 6.1-99.3 6.1s-36.1-3-48.2-3.2c-23.2-.6-93 1.8-93 1.8-4.2 4.1-7 9.5-7.8 15.3a46.9 46.9 0 0 0 0 20.7s91.6 22.9 122.8 26.9c33 4.2 99.4 4.3 132.6 4.9 13.4.2 24.4.6 53.5 0 26-.6 48.5-1.7 48.5-1.7 10.5 65.8 38 162.2 37 173.7-1.5 13.9 5.1 14.1 1.8 21.9-3.3 7.8 1.2 26.2-1.4 31.6-2.6 5.4 3.3 6.2-.3 15.6-3.5 9.4 2.9 26.4-1.6 41-4.5 14.7-1.9 30.5-1.9 37.1 0 6.6-3 8.3-3 20-.2 11-1.2 21.7-3.2 32.4a2.2 2.2 0 0 0-.6 3.1 50.2 50.2 0 0 0-.8 16.1s25 14.3 52.9 14.3c0 0 20.9-.5 51.1-.7 14.7.6 30.5.7 47 0 15.1 0 31 .3 46.7.7 27.9.7 52.5-14.3 52.5-14.3.7-5.2.5-10.5-.5-15.7 0 0 2-.8-.7-3.5a194 194 0 0 1-3-32.5c0-11.8-3-13.4-3-20 0-6.7 2.7-22.5-1.9-37-4.6-14.7 1.9-31.7-1.7-41.2-3.5-9.4 2.4-10.1-.2-15.5-2.6-5.5 1.9-23.9-1.4-31.7-3.3-7.8 3.3-8 1.9-21.9-1.5-13.9 39.5-179.9 43.5-209.5Z"/>
		<path fill="#FCCB0B" d="m1113 497.2-13-8.7c-17 6.3-32.7 5.3-46.1 5.6a164 164 0 0 1-46.5-5.4L996 496c-.8 5.8 16.2 20.8 59 20.7 45.4 0 58-14.7 58-19.5Z"/>
		<path fill="#231F20" fill-opacity=".3" d="M1124 993.5a104 104 0 0 0 54.8-14c.7-5.3.5-10.6-.5-15.8 0 0 2-.8-.7-3.5a194 194 0 0 1-3-32.5c0-11.8-3-13.4-3-20 0-6.7 2.7-22.5-1.9-37.1-1.8-7-2.2-14.3-1.2-21.5-11.9 20.4 3.7 31-3 49.5-7.1 19.8 4.5 24.5 4.7 35.2.2 10.8-2.9 18.6 1.2 23.8 4.1 5.1 6.9 14.2 5.4 14.2-6.5-.2-2.3 7.7-11 5.4-8.8-2.3-14.9 2.2-10.2 4.5-.1 0-8.4 9-31.5 11.8Zm-161.5-1.8c-4-2.1-7-10.2-7-14 .2-9-7.9-14.1-16.3-10-8.4 4-8-3.7-1.1-13 6.8-9.2 10.7-12.9 1.5-29.5 0 0-4.4-10.1 1.5-32.6 4.3-16.4 3.4-27.6-1.5-38a48 48 0 0 1-1.6 15.9c-4.5 14.6-1.8 30.4-1.8 37 0 6.6-3.1 8.3-3.1 20.1-.2 10.8-1.2 21.6-3.2 32.3a2.2 2.2 0 0 0-.6 3.1 50.2 50.2 0 0 0-.8 16.2 125 125 0 0 0 34 12.5Zm-16-203.8c9.4-7.4-8-6.5-6.7-32.6 0 2.1-.2 3.8-.3 5-1.5 14 5.2 14.2 1.8 22a34 34 0 0 0-1.1 13.3 21 21 0 0 1 6.3-7.7Zm-7.9 48.7c1.8-3 4.3-5.6 7.2-7.6 8.6-6.1-.3-9.4-5.1-18.2a10 10 0 0 1-.8 3.2c-2.6 5.3 3.4 6-.2 15.5-.8 2.3-1.1 4.7-1.1 7Zm222.7-48.7c-9.4-7.4 8-6.5 6.7-32.6 0 2.1.2 3.8.3 5 1.4 14-5.2 14.2-1.9 22 1.3 4.3 1.7 8.9 1.2 13.3-1.5-3-3.6-5.7-6.3-7.7Zm7.9 48.7c-1.9-3-4.3-5.6-7.2-7.6-8.7-6.1.3-9.4 5-18.2.2 1 .4 2.1.8 3.2 2.7 5.3-3.3 6 .3 15.5.7 2.3 1.1 4.7 1 7Z"/>
		<path fill="#EC2227" fill-rule="evenodd" d="m935 915.2 118.8.4 119.2.8c1 3.8 4 14 4.8 20.2l.3 3c6.6 73 11.5 80 27.8 247.6l-135.2 17.5-16.7-131.3-17 131.5-135.2-17.5c16.2-137.3 18.1-151.3 28.7-248 .3-3-.2-5.5.3-8.7.5-3.3 1.7-6.5 2.5-9.4l1.3-4.6.4-1.5Z" clip-rule="evenodd"/>
		<path fill="#EC2227" d="M1153.7 591h16v4.6h-10.1v4.5h9.3v4.7h-9.3v5.2h10.4v4.7h-16.3V591Zm-14.6 24c-1.8 0-3.3-.2-4.5-.6a7.5 7.5 0 0 1-4.9-4.9 16 16 0 0 1-.5-4.2V591h5.9v14.6c0 .8 0 1.4.2 2 .1.4.4.8.7 1.2l1.3.8c.5.2 1.2.3 1.8.3l1.8-.3 1.3-.8c.3-.4.6-.8.7-1.3a7 7 0 0 0 .2-2V591h6v14.3a14 14 0 0 1-.6 4.2 7.5 7.5 0 0 1-4.9 5 14 14 0 0 1-4.5.6Zm-21.5 0a10.8 10.8 0 0 1-10.1-5.5c-1-1.9-1.6-4-1.6-6.7 0-2.5.6-4.7 1.7-6.6a10 10 0 0 1 4.3-4.1 12.5 12.5 0 0 1 10.5-.6 10 10 0 0 1 4.1 3.1l-2.9 4a3 3 0 0 0-1.2-1.3c-.5-.5-1.2-.8-2-1.1a6 6 0 0 0-2.3-.4 6 6 0 0 0-3.2.8c-.9.6-1.6 1.4-2.1 2.4-.6 1-.8 2.3-.8 3.7 0 1.4.2 2.7.7 3.8a6 6 0 0 0 5.4 3.3 6.8 6.8 0 0 0 4.3-1.5l1.3-1.4 2.9 4.1c-.4.7-1 1.3-1.9 1.9a11 11 0 0 1-3 1.6 13 13 0 0 1-4.1.6Zm-23.2 0c-1.7 0-3.4-.2-5-.8-1.7-.7-3-1.5-4.2-2.5l2.8-4.2a12 12 0 0 0 3 1.9c1.2.5 2.3.7 3.4.7 1.2 0 2.1-.1 2.7-.5.6-.3.9-.9.9-1.5 0-.5-.1-.8-.4-1.1l-.8-.7-1.1-.5-2.3-.8a148.9 148.9 0 0 0-1.6-.5c-1.3-.5-2.4-1-3.2-1.7a5.7 5.7 0 0 1-1.6-2c-.4-.8-.6-1.8-.6-3 0-1.3.2-2.3.8-3.2.5-1 1.2-1.7 2-2.3a9 9 0 0 1 2.6-1.2 12.8 12.8 0 0 1 9.8 1 9 9 0 0 1 2.1 1.4l-2.3 4a9 9 0 0 0-2.7-1.6 8.5 8.5 0 0 0-3.2-.7c-1.1 0-2 .2-2.5.5s-.8.8-.8 1.5c0 .4.1.7.4 1a88.9 88.9 0 0 0 5.8 2.5c1.3.4 2.4 1 3.3 1.7a6 6 0 0 1 1.6 2c.4.8.6 1.8.6 3a7 7 0 0 1-2.6 5.5 9 9 0 0 1-2.8 1.6 12 12 0 0 1-4 .6Zm-27.1-24h16v4.6h-10v4.5h9.3v4.7h-9.4v5.2h10.5v4.7h-16.4V591Zm-22.3 0h9.3c2.8 0 4.9.5 6.3 1.6.8.6 1.5 1.4 2 2.4s.8 2 .8 3.3c0 1.4-.3 2.6-.9 3.7-.8 1.3-2 2.3-3.6 3l6 9.7h-6.8l-4.9-8.7h-2.4v8.7h-5.9V591Zm8.8 10.6c1 0 2-.2 2.5-.6.4-.3.7-.6.9-1l.3-1.5c0-.4-.1-1-.3-1.3a3 3 0 0 0-.9-1c-.6-.5-1.4-.7-2.5-.7h-3v6.1h3ZM1020 591h15.4v4.6h-9.5v5.3h8.7v4.7h-8.7v9h-6V591Zm-22.4 0h9.4c2.7 0 4.8.5 6.3 1.6.8.6 1.5 1.4 2 2.4s.8 2 .8 3.3a7 7 0 0 1-4.5 6.7l5.9 9.7h-6.8l-4.8-8.7h-2.4v8.7h-5.9V591Zm9 10.6c1 0 1.8-.2 2.4-.6.4-.3.6-.6.8-1l.3-1.5c0-.4 0-1-.3-1.3-.2-.5-.4-.8-.8-1-.6-.5-1.5-.7-2.5-.7h-3v6.1h3ZM983 615c-1.7 0-3.3-.2-4.5-.6a7.5 7.5 0 0 1-4.9-4.9 16 16 0 0 1-.5-4.2V591h5.9v14.6c0 .8 0 1.4.2 2 .1.4.4.8.7 1.2l1.3.8 1.8.3c.7 0 1.3-.1 1.8-.3.6-.2 1-.5 1.3-.8.4-.4.6-.8.7-1.3a7 7 0 0 0 .2-2V591h6v14.3c0 1.7-.3 3.1-.6 4.2-.4 1.2-1 2.1-1.7 3-.9.9-2 1.5-3.2 2a14 14 0 0 1-4.5.6Zm-22.5 0c-1.8 0-3.5-.2-5.1-.8a15 15 0 0 1-4.1-2.5l2.8-4.2c.8.7 1.7 1.3 2.9 1.9 1.2.5 2.3.7 3.5.7 1.2 0 2-.1 2.6-.5.6-.3 1-.9 1-1.5 0-.5-.2-.8-.5-1.1l-.8-.7-1.1-.5-2.2-.8a114 114 0 0 1-1.6-.5c-1.3-.5-2.4-1-3.2-1.7a5.9 5.9 0 0 1-1.7-2c-.4-.8-.6-1.8-.6-3 0-1.3.3-2.3.8-3.2.6-1 1.3-1.7 2-2.3a9 9 0 0 1 2.7-1.2 12.8 12.8 0 0 1 9.8 1 9 9 0 0 1 2 1.4l-2.2 4a8.8 8.8 0 0 0-2.8-1.6c-1-.4-2.1-.7-3.2-.7a5 5 0 0 0-2.4.5c-.6.3-.9.8-.9 1.5 0 .4.2.7.4 1l.9.6a86.2 86.2 0 0 0 5 1.9c1.3.4 2.4 1 3.2 1.7.7.5 1.2 1.2 1.6 2 .4.8.6 1.8.6 3a7 7 0 0 1-2.5 5.5 9 9 0 0 1-2.9 1.6c-1 .4-2.4.6-4 .6Zm5.2-303.4a128.9 128.9 0 0 0-61.7 19.5 15.6 15.6 0 0 0-7.4 7.8c-3 9.1 9.5 15 18.9 16.5 82.5 13 155.9 22.3 237.9 6 9-1.7 29.9-3.8 36.6-10.1 6.8-6.4 9.6-14.7 3.7-21.9-3.7-4.6-9.7-6.3-15.4-7.6-16-3.7-32-6.4-48.3-8"/>
		<path fill="#D32027" d="M1143.6 315.6s-10.8-63.2-12-64.2c-1.3-1-22.3-3-27.2-1.6-23.5 6.6-28.7 12-43 14.6l-.2-1.5c-33 1.1-36-7.7-67.8-17.6-4.9-1.5-21.3 1-21.3 4.5 0 11.7-8.7 62-8.7 62-.4 3 4.2 4.4 6.2 7 2 2.5 6.5 3.6 10.3 4.5 35.7 8 31.9 9.5 69.8 13 36.6.6 32.3.3 70.9-7.6 3.8-.8 15-3.2 17.2-5.8 2.2-2.5 6.3-4.6 5.8-7.3Z"/>
		<path fill="#EC2227" d="M1131.6 252.3c0 8.6-51.2 13.1-87.5 13.1-36.4 0-70.3-6.7-70.3-15.3 0-8.6 34.8-13.7 71.2-13.7 36.4 0 86.6 7.3 86.6 15.9Z"/>
		<path stroke="#EC2227" stroke-linecap="round" stroke-miterlimit="10" stroke-width="1.7" d="M986.6 500.7s6.8 14.9 62.8 16.4c56 1.5 63.4-17.8 63.4-17.8"/>
		<path fill="#EC2227" d="m1161.4 65.4 49.5 21.8-1.3-14.6c43.5-3.3 87.3-1.8 130.4 4.4a137 137 0 0 1 42.5 12.3c8.4 4.3 26.7 10.3 30.5 19.3 5.9 14.2-15 26-27.7 31-13.5 5.4-7.6 27.4 6 22 28-11.1 46.2-38.6 30-67.3-10.8-18.8-32-28.3-51.9-34.2-25.4-7.5-53.1-9-79.5-10.3a704 704 0 0 0-82.2.2l-1.2-14.7-45.1 30.1Zm188.2 95.8-49.4-21.7 1.2 14.6a594.7 594.7 0 0 1-130.4-4.5 136.3 136.3 0 0 1-42.5-12.2 41.2 41.2 0 0 1-20.5-19.3c-5.8-14.2 5-26 17.7-31 13.5-5.4 7.6-27.4-6-22-28 11-46.2 38.5-30 67.3 10.8 18.8 32 28.3 51.9 34.2 25.4 7.5 53.1 9 79.5 10.3 27.4 1.6 54.8 1.5 82.2-.2l1.2 14.7 45.1-30.2Z"/>
	</symbol>
	<symbol id="questions-signal3" viewBox="0 0 2080 1880">

	</symbol>
	<symbol id="questions-signal4" viewBox="0 0 2080 1880">

	</symbol>
	<symbol id="questions-signal5" viewBox="0 0 2080 1880">

	</symbol>
	<symbol id="questions-signal6" viewBox="0 0 2080 1880">

	</symbol>
	<symbol id="questions-signal7" viewBox="0 0 2080 1880">

	</symbol>
	<symbol id="questions-signal8" viewBox="0 0 2080 1880">

	</symbol>
	<symbol id="questions-signal9" viewBox="0 0 2080 1880">

	</symbol>
	<symbol id="questions-signal10" viewBox="0 0 2080 1880">

	</symbol>
	<symbol id="questions-signal11" viewBox="0 0 2080 1880">

	</symbol>
	<symbol id="questions-signal12" viewBox="0 0 2080 1880">

	</symbol>
	<symbol id="questions-signal13" viewBox="0 0 2080 1880">

	</symbol>
	<symbol id="questions-signal14" viewBox="0 0 2080 1880">

	</symbol>
</svg>
