<svg xmlns="http://www.w3.org/2000/svg" xmlns:xlink="http://www.w3.org/1999/xlink">
	<symbol id="questions-signal1" viewBox="0 0 2080 1880">
		<path fill="#ADE0F0" d="m1113.6 1501.7 112.3.8a90 90 0 0 1 30.8 3.8c9.3 3.6 15.9 11.8 11.2 18-6.3 8.5-27.6 8.5-30.8 17.8-3.3 9.3 13.3 15 26.5 17.7 43.7 9 60.6 18.3 104 27.4 21.6 4.3 56.5 15.3 58.7 30.3 1.4 9.5 9 14.2-3 18.5-12 4.4-26.5 5.2-40.4 6-75.1 3.9-150.8 4.7-226.1 2.5-29.5-.8-60.7-1.9-86.3 7.4-8 2.7-15 6.5-23.5 8.4a126.1 126.1 0 0 1-35.3.9l-394.6-29.3c-21.3-1.6-46.4-4.9-55-18.3-8.4-13.3 7.2-28.6 26.6-34.6 19.4-6 42-6.3 62.2-10.7 20.3-4.4 40.7-15.3 39.7-30-.3-5.5-3.9-11-3.3-16.4 1.3-16.1 31.7-21 55.4-21.6a6256 6256 0 0 1 469.2 3.5"/>
		<path fill="#FFF2CB" d="m888.6 1584.4-112.3-4.6a88.6 88.6 0 0 0-30.9 2.2c-9.2 3-16.3 10.9-12 17.2 5.8 8.7 27 9.8 29.8 19 2.7 9.4-14.2 14.6-27.3 16.5-44 6.8-61.5 15.5-105.4 22.4-21.6 3.3-57.1 12.5-60.1 27.3-2 9.3-9.9 13.6 2.2 18.6 12 4.9 26.2 6.5 40.1 7.9a2826 2826 0 0 0 225.9 13.6c29.5.6 60.6 1.1 85.7 11.5 7.7 3.3 14.8 7.4 23 9.6a123 123 0 0 0 35 2.4l395.7-9.5c21.3-.6 46.7-2.8 56-15.6 9.3-12.8-5.8-29.2-24.9-36-19.1-6.9-41.5-8.5-61.7-13.7-20.2-5.2-39.9-17.5-38-32 .8-5.4 4.4-10.6 4.1-16-.5-16.2-30.6-22.5-54.3-24.4a6238.1 6238.1 0 0 0-469-19.4"/>
		<path fill="#fff" d="M888.6 1577.6c-40.5-1.6-80.9-5-121.3-5-12.3 0-27.9.9-36.9 10.7-6.5 7.1-6.8 17 .6 23.8a40 40 0 0 0 12 6.6c3 1.3 7.4 1.9 9.8 4 3.6 3.3 3.3 1.4.6 5-3.6 4.9-19.4 5.7-24.9 6.5-9 1.4-17.7 3.3-26.8 5.2-29.7 6.8-60 12.3-89.8 19.4-20.2 4.6-41.8 11-49.4 32-3 8.1-6.3 14.4 1.6 20.7 11 9 30.3 9.6 43.4 11.2 79.5 8.7 159.8 12.3 239.8 14.2 18 .5 36 .8 53.8 4.6 16.4 3.6 30.3 12.9 46.2 16.7 16.4 3.8 33.8 2.2 50.8 2l65-1.7 243.9-6 59.5-1.4c16.1-.3 33-.3 48.9-4.6 20.2-5.8 36.6-23.5 21-43.5-21-26.7-62.8-22.9-92.3-32.5a58 58 0 0 1-23-12c-8.7-8.4-3.5-14.5-2.1-24.3s-3.3-17.2-11.2-22.4c-12-8.2-27.9-10.4-41.8-12-22.1-2.7-44.5-3.5-66.6-5.2a6168.7 6168.7 0 0 0-410-15c-8.7 0-8.7 13.7 0 13.7 145.6.5 291.2 6.2 436.7 16.9 16.4 1 33.4 1.6 49.7 4.6 6.9 1.1 13.4 3 19.7 5.8 2.5 1 5 2.4 6.8 4.3 5.2 5.2 2 9.3.6 15.6-5.8 23.8 18 36.9 37.4 43.2 15.6 4.9 32 6.2 47.8 9.8 11.5 2.4 41.5 9.3 41.2 26-.2 14.7-29.7 16.3-39.6 16.9-17.5 1-35.2 1-53 1.6l-219.5 5.5-108.5 2.7c-18 .5-37.7 3-55.7-.5-14.7-2.8-27.6-11.8-42-15.6-30.6-8.2-63.4-6.6-94.8-7.7-36-1-71.8-3-107.9-5.2a1730 1730 0 0 1-104.9-9 154 154 0 0 1-24.8-5.2c-8.8-2.7-4.1-.8-3.3-6.2.5-2 1-3.6 2-5.5 5.4-11 21-14.5 31.9-17.5 27.8-7.6 57-11.5 85.2-18.3 17-4 34.1-6.3 50.8-10 8.4-2.3 21.3-5.8 24.3-15.4 3-9.5-3.6-15.8-11-19.6-4.3-2.5-12-3.3-15.5-6.9-10.7-10.3 19.4-12.3 24.6-12.3 40.4.3 80.8 3.3 121.2 5 8.8.5 8.8-13.2-.2-13.7Z"/>
		<path fill="#939598" d="m1131.6 575.8 16.2 2.5a82 82 0 0 0 45-13.1l15.3-10.1c69.1-46 212.5-141.2 268-182.5l1.6-1.4c15-11.2 33.6-24.8 32.2-55.7-.3-3.8-1.6-4.3-2.2-4.6-8.5-4.4-35.5 9-52.4 20l-8.5 5.4.3-10.1c0-2.5-.3-5-.8-7.4-7.1 1.6-19.4 20.8-27.6 33.6-8.2 12.8-15.9 24.9-23.5 31.1-34.2 28.4-146.1 82.2-183 98.9a84.6 84.6 0 0 1-33.9 7.1h-25l-21.7 86.3Zm15.9 13.1h-.8l-27.9-4.4 26.2-105.4h33.6c10.1 0 20.2-2.2 29.5-6.3 36.6-16.3 147.5-69.6 180.5-97.2 6.3-5.2 14-17.2 21.3-28.7 13.7-21.3 25.7-39.8 38.8-38.5 5 .6 7.1 4.7 8.2 9 14.2-8.4 42-22.9 55.5-15.8 4.9 2.7 7.9 8 7.9 13.7 1.6 36.6-21.3 53.5-36.6 64.7l-1.7 1.3c-55.4 41.3-199 136.9-268.2 182.8l-15.3 10a92 92 0 0 1-51 14.8ZM847 489.5h-25.4a84.6 84.6 0 0 1-33.8-7.1c-36.9-16.4-149.1-70.5-183-98.9a152.8 152.8 0 0 1-23.5-31.1c-8.2-12.8-20.5-32-27.6-33.6a38 38 0 0 0-.8 7.4l.3 10-8.5-5.4c-16.7-10.9-44-24.3-52.4-20 0 .4-1.4 1.2-1.7 4.7-1.3 30.9 17.2 44.8 32.3 55.7l1.6 1.4c55.2 41.3 198.8 136.6 268 182.4l15.2 10.2a79.7 79.7 0 0 0 45 13l16.2-2.4-21.9-86.3Zm-45.3 84.7L786.4 564c-68.8-46-212.7-141.5-268.2-182.8l-1.6-1.3c-15.3-11.2-38-28.1-36.6-64.7-.3-5.8 2.7-11 7.9-13.7 13.4-7.1 41.5 7.4 55.4 15.8 1.1-4.3 3.3-8.7 8.2-9 13.4-1.3 25.2 17.2 38.8 38.5 7.4 11.5 15 23.5 21.3 28.7 33 27.6 144 80.9 180.5 97.2a73.4 73.4 0 0 0 29.5 6.3h33.6l26.3 105.4-27.9 4.4h-.8a92 92 0 0 1-51-14.7Z"/>
		<path fill="#F9A97E" d="m884 1325.8 8.1-88.5a34.7 34.7 0 0 1 69.4 0l-2 46.7c0 3.5 0 7.1.6 10.7l9.6 61.1c1 6.9 1.3 13.7 1 20.8l-8.7 189.8c.6 12-9 22.1-20.7 22.4-11.8.3-22.2-9-22.4-20.8v-1.6l-15.3-105.2-17.8-98.3c-2.4-12.3-3-24.8-1.9-37.1Z"/>
		<path fill="#F9A97E" d="m897.3 1653 14.5-30.9a28 28 0 0 0 2.4-15.6l-1.3-11.7c-.3-2.5 0-5 .5-7.4l5.2-21.3c.5-12 10.4-21.3 22.4-20.7 11.5.2 20.5 9.5 20.8 20.7l3.8 9.3a37 37 0 0 1 2.7 10.4l1.6 14.5c0 1.3.3 2.4.6 3.8l7.1 33.6c.3 1.6.8 3.3 1.6 4.9l3.6 7.6c1 2.5 1 5.5-.6 7.7l-1.3 1.9a8.7 8.7 0 0 1-7.1 3.5h-71.3a6.6 6.6 0 0 1-5.5-3.2c-.5-2-.8-4.7.3-7.1Zm-22.4-615.6 15.8-86.9c2.8-36.8 21.6-72 59.3-72a71.3 71.3 0 0 1 71.3 71.2s2.7 23.8-24.9 71.3a400.9 400.9 0 0 0-15.5 68.5c-8.2 55-18.6 122.4-18.6 122.4a82 82 0 0 0-.8 11.7v13.7a34.7 34.7 0 0 1-69.4 0v-3c0-10.4-.5-21-1.9-31.4l-11.5-88a460.1 460.1 0 0 1-3.8-77.5Z"/>
		<path fill="#F68B62" d="M929.3 1581.4s3.8 32.3 3.8 41.5c0 3.6-8.2 11.2-11.2 18.6-3 7.4-4.7 15-5 22.7h-3a66 66 0 0 1 2.8-27.3c4.4-12 9.8-18.9 8.5-20-4.7-4.6 4-35.5 4-35.5Zm37.9 60.4s-18.6-32.5-4.9-40.2c5.5-3 3.6 8.5 3.6 8.5l1.3 31.7Z"/>
		<path fill="#F9A97E" d="m1111.2 1653.8-14.5-30.9a28 28 0 0 1-2.5-15.5l1.4-11.8c.3-2.4 0-4.9-.6-7.3l-5.4-21.4a21.5 21.5 0 0 0-22.4-20.7 21.3 21.3 0 0 0-20.8 20.7l-3.8 9.3a44.2 44.2 0 0 0-2.7 10.4l-1.7 14.5c0 1.4-.3 2.4-.5 3.8l-7.1 33.6c-.3 1.6-.8 3.3-1.7 5l-3.5 7.6a7.6 7.6 0 0 0 .5 7.6l1.4 2a8.7 8.7 0 0 0 7.1 3.5h71c2.2 0 4.4-1.4 5.5-3.3 1.3-2 1.3-4.7.3-7.1Z"/>
		<path fill="#F9A97E" d="m1124.8 1326.6-8.2-88.5a34.7 34.7 0 0 0-69.4 0l1.7 46.7c0 3.6 0 7.1-.6 10.7l-9.5 61.1a103 103 0 0 0-1.1 20.8l8.7 189.8c-.5 12 9 22.1 20.8 22.4 11.7.3 22.1-9 22.4-20.7v-1.7l15.3-105.1 17.7-98.3c2.8-12.3 3.3-25 2.2-37.2Z"/>
		<path fill="#F9A97E" d="m1133.8 1037.4-14-89.3c-2.6-37-23.4-69.7-61-69.7-39.4 0-71.4 32-71.4 71.3 0 0-2.7 23.8 24.9 71.3 2.2 3.8 10.6 35.5 15.5 68.5 8.2 55 18.6 122.4 18.6 122.4.6 3.8.8 7.6.8 11.7v13.7a34.7 34.7 0 0 0 69.4 0v-3c0-10.4.6-21 2-31.4l11.4-88.2a429 429 0 0 0 3.8-77.3Z"/>
		<path fill="#F68B62" d="M1080.3 1581.4s-3.8 32.3-3.8 41.5c0 3.6 8.2 11.2 11.2 18.6a67 67 0 0 1 4.9 22.7h3a66 66 0 0 0-2.8-27.3c-4.3-12-9.8-18.9-8.4-20 4.6-4.6-4.1-35.5-4.1-35.5Zm-38 60.4s18.9-32.8 5-40.2c-5.5-3-3.6 8.5-3.6 8.5l-1.4 31.7Zm25.2-1277.7 3.2-1.9a8 8 0 0 1 10.1 1.7c1.1 1 1.4 2.4 1.4 4v2.8a55.9 55.9 0 0 1-6 24l-.3.6c-.5 2.2-4.6 15.3-6.3 15.8a6 6 0 0 1-4.3-.8c-.6-.3-.8-.8-.8-1.4l1-42c.3-1.1.9-2.2 2-2.8Zm-126.2 0-3.3-1.9a8 8 0 0 0-10.1 1.7c-1.1 1-1.4 2.4-1.4 4v2.8a56 56 0 0 0 6 24l.3.6c.6 2.2 4.6 15.3 6.3 15.8 1.4.6 3 .3 4.4-.8.5-.3.8-.8.8-1.4l-1.1-42a5 5 0 0 0-2-2.8Z"/>
		<path fill="#F9A97E" d="M1057 493.9c-4.3-2-7.6-6-8.4-10.7l-8.2-38.5H968l-8.2 38.5c-1 4.7-4 8.8-8.4 10.7H1057Z"/>
		<path fill="#F9A97E" d="M1066.4 298.9c-9.6-14.2-27.4-28.7-60.1-28.7-40.4 0-58 21.6-65.6 38.2a61.5 61.5 0 0 0-5.2 28.2 480.4 480.4 0 0 0 8.2 73.4 55 55 0 0 0 18.9 35c6 5.2 12 9.8 18.8 14.2 5.2 3 10.7 5.2 16.4 7a27 27 0 0 0 17.5-.2 55 55 0 0 0 14-6.8c7.6-5.5 14.4-11.5 21-18.3 6.8-6.8 11.4-15 13.9-24.3l9.3-45 3-32.6a65 65 0 0 0-10.1-40.1Zm-36.6-128.1-2.8 1.6a34 34 0 0 1-10.6 4.4l-10.1 2.4c-3.8 1.1-11.5 1.4-15 3.6l-6.3 4.4c-7.1 6.8-14.2 9.3-22.2 3a20 20 0 0 1-2.4-29.8l10.6-12.3c3-3.5 5.8-7.4 8.2-11.2 0 0 23.5-35.5 27.3-36l2.8 4.9a17 17 0 0 0 4.4 4.9l8.4 6.3c2.5 1.9 5.2 2.7 8.2 2.4h3c2.2 0 4.4 1.4 5.2 3.3.8 2 .3 4.1-1.4 5.5l-6.8 8.2a11.8 11.8 0 0 0-3.8 8.7v3.3c0 .5.3 1 .8 1a6 6 0 0 1 4.7 3.6l2.7 8.2c0 2-3.6 8.8-5 9.6Z"/>
		<path fill="#F9A97E" d="m1057 140-11.7 11.4-13 17a9.5 9.5 0 0 1-13.2 2.1c-3.8-2.7-5-8-2.7-12l.8-1.4.5-.5a40 40 0 0 1 14-10.4l1.6-.8 8-5.2 6.5-4.4c3-1.9 7-1.3 9.3 1.4.8.8.8 2.2 0 2.7Zm-43.9-31.2-.8 1.6c-2 2.2-5.5 2.7-7.7.6-2.4-2-3-5.5-1-8l1-1 11-10.2a3.8 3.8 0 0 1 5.1 0c1.7 1.4 2.2 3.6 1.1 5.2l-3.2 4.1c-2.2 2.2-3.9 5-5.5 7.7Z"/>
		<path fill="#F9A97E" d="M1020.8 114a2 2 0 0 0-.6 1 6 6 0 0 1-8.2.3 6 6 0 0 1-1-8.2l15.2-15.5c1.6-1.7 4.4-1.7 5.8 0a4.3 4.3 0 0 1 1.3 5.7v.3l-5.7 6.8c-1.7 2-5.2 7.1-6.8 9.6Zm16.6 13.9a6 6 0 0 1-8 1.6c-2.6-1.3-3.5-4.6-2.1-7.3v-.3l12.8-17.5a4.3 4.3 0 0 1 5.8-1c1.9 1 4 3.5 3.3 5.1v.3l-5.2 8.2c-2 3-5.7 9.8-5.7 9.8.3 0-.9.8-.9 1.1Z"/>
		<path fill="#F9A97E" d="M1029.2 121.3c-2.2 2.8-6 3-8.7.9a6 6 0 0 1-1.4-8v-.2l.6-.6 14.2-17.5a4.3 4.3 0 0 1 6.2-.8c2.2 1.4 3 4.1 2.2 6.3v.6l-5.4 7.3c-2.5 3.6-7.7 12-7.7 12Zm-7.4-24.3c-1.3 1.4-3.8 1.4-5.4 0-1.7-1-2-3.5-.8-5.2l7.9-7.3c1.3-1.1 3.3-1.1 4.3 0a3 3 0 0 1 .6 4.3l-6.6 8.2Z"/>
		<path fill="#F9A97E" d="M1032.8 97.9c-2 1.6-4.4 1.3-6.3-.3a4.3 4.3 0 0 1-1.1-5.8s9.3-9.2 9.5-9.2a3.5 3.5 0 0 1 5 0c1.6 1 2.1 3.2 1 5.2l-8.1 10c.2-.2.2-.2 0 0Zm16.6 10.9a6 6 0 0 1-7 1c-2-1-2.8-3.5-2-5.4l8.5-10.6c1-1.7 2.7-2 4.3-.9 1.7 1.1 3.9 3 3 4.7l-6.8 11.2Z"/>
		<path fill="#F9A97E" d="M1042 102a5 5 0 0 1-6.8.2 4.5 4.5 0 0 1-1.3-6.3l9.5-11.4c1.1-1.7 3.6-2 5.2-.8 1.6 1 2.7 3.8 1.6 5.4l-7.9 12.3-.3.6Zm-13-12.9c-1.2 1.1-3 1.4-4.2.3-1.3-1.1-2.7-3.3-1.6-4.7l.1-.1 6.2-4.2c1.3-.8 3-.8 4.4 0 .8 1 1 2.4 0 3.5l-5 5.2Z"/>
		<path fill="#F9A97E" d="M1036 87.2c-1.3-1-2.1-3-1-4.6l6.5-6c.8-1.1 2.5-1.1 3.6-.3 1.6 1.3 2.1 3.3 1 4.6l-5.1 6.9c-1.4 1-3.6.8-5-.6Zm14.5 11.2c-1.6-.8-2.2-3-1.6-4.6l5.2-6.9a5.2 5.2 0 0 1 5.2-1.3c1.6.8 1.9 2.7 1 4.3v.3l-4 7.7a5 5 0 0 1-5.8.5Z"/>
		<path fill="#F9A97E" d="M1044.5 90a3.5 3.5 0 0 1-1-5v-.7l6.5-7.2c1.3-1.4 3.5-1 4.9.3 1 1 1 2.7.5 3.8l-5.3 8.1c-1.9 1.7-4 1.7-5.6.6Z"/>
		<path fill="#F68B62" d="M967 152.8c3.8 6 7.9 11.4 12.5 16.9 4.7 3.8 9.8 6.3 15.6 8l11.2 2-7.1-5.4-18-6.5-14.3-15Zm7.3-9.3s3.3 1.3 4.4 1.9l6.3 3.3c0-1.7 0-3.3-.3-5-.3-1.6-.8-3.2-1.6-4.6l-3-4.1 2.7 2 3 4.3 1 10.6-9.5-4.9-3-3.5Zm57.1-8.5s-4.6-8-6.3-10.4a189 189 0 0 0-16.4-21.6c-.8-.8-1.9-1.3-2.7-1.9l1 6 17.3 23.3 7.1 4.6Zm5.5 8.5 3.8 4.3 3.5 5-5.4-3.3-2-6Z"/>
		<path fill="#F9A97E" d="m981.7 170.8 2.7 1.6c3.3 2 6.9 3.6 10.7 4.4l10 2.4c3.9 1.1 11.8 1.4 15.1 3.6l6.3 4.4c7 6.8 14.2 9.3 22.1 3a20 20 0 0 0 2.5-29.8l-10.7-12.3c-3-3.5-5.7-7.4-8.2-11.2 0 0-23.5-35.5-27.3-36l-2.7 4.9a19 19 0 0 1-4.4 4.9l-8.5 6.3a11 11 0 0 1-8.2 2.4h-3a5.8 5.8 0 0 0-5.1 3.3c-.9 2-.3 4.1 1.3 5.5l6.8 8.2c2.5 2.2 3.9 5.4 3.9 8.7v3.3c0 .5-.3 1-.8 1a5.7 5.7 0 0 0-4.7 3.6l-2.7 8.2c-.3 2 3.5 8.8 4.9 9.6Z"/>
		<path fill="#F9A97E" d="m954.1 140 11.8 11.4 13 17c3 4 9 4.8 13.2 1.8a9.3 9.3 0 0 0 2.7-11.7l-.8-1.4-.6-.5c-3.8-4.4-8.4-8-13.6-10.4l-2-.8-7.9-5.2-6.5-4.4a6.8 6.8 0 0 0-9.3 1.4c-.8.8-.8 1.9 0 2.7Zm44.3-31.2.8 1.6a5.5 5.5 0 0 0 7.6.6c2.5-2 3-5.5 1.1-8l-1-1-11.3-9.9c-1.3-1.3-3.5-1.6-4.9-.3-1.6 1.4-2.2 3.6-1 5.2l3.2 4.1c1.9 2.2 3.8 5 5.5 7.7Z"/>
		<path fill="#F9A97E" d="M990.7 114c.3.2.6.8.6 1a6 6 0 0 0 8.1.3 6 6 0 0 0 1.1-8.2l-15.3-15.5c-1.6-1.7-4.3-1.7-5.7 0a4.4 4.4 0 0 0-1.4 5.7v.3l5.2 6.5a84 84 0 0 1 7.4 9.9ZM974 127.9a6 6 0 0 0 8 1.6c2.7-1.3 3.5-4.6 2.1-7.3l-.2-.3-12.9-17.5c-1.3-1.9-3.8-2.2-5.7-1-2 1-4 3.5-3.3 5.1v.3l5.2 8.2c2 3 6.4 10.4 6.4 10.4-.3 0 .4.2.4.5Z"/>
		<path fill="#F9A97E" d="M982.2 121.3c2.2 2.5 6 2.8 8.8.6 2.2-2 2.7-5.2 1.3-7.7v-.2c0-.3-.2-.3-.5-.6L977.6 96a4.4 4.4 0 0 0-6.3-.8 5.3 5.3 0 0 0-2.2 6.3l.4.6 5.4 7.3 7.3 12Zm7.4-24.3a4.2 4.2 0 0 0 5.5 0 3 3 0 0 0 .9-4.5l-8.5-8c-1.4-1-2.8-1.1-3.9 0a3.2 3.2 0 0 0-.6 4.5l6.6 8Z"/>
		<path fill="#F9A97E" d="M978.4 97.9c2 1.6 4.4 1.3 6.3-.3 2-1.4 2.2-4.1 1-5.8l-9.5-9.2a3.5 3.5 0 0 0-4.9 0c-1.6 1-1.9 3.2-1 5.2l8.1 10c0-.2 0-.2 0 0ZM962 108.8c2 1.9 5 2.2 7.1 1 2-1 2.8-3.5 2-5.4l-8.3-10.6c-1-1.7-3.2-2-4.9-.9-1.6 1.1-3.2 4-2.4 5.6l6.5 10.3Z"/>
		<path fill="#F9A97E" d="M969.5 102c2 2 4.5 1.9 6.5.2a4.5 4.5 0 0 0 1.3-6.3s-9.5-11.2-9.5-11.4c-1.1-1.7-3.6-2-5.2-.8-2 1-2.5 3.5-1.7 5.4l7.6 11.4 1 1.5ZM983 89c1 1 2.5 1.5 3.6.4 1.4-1.1 2.2-3 1.4-4.4l-.5-.5-5.3-4.1c-1.3-.8-3-.8-4.3 0-.9 1-1.1 2.4-.3 3.5L983 89Z"/>
		<path fill="#F9A97E" d="M975.4 87.2c1.4-1 2-3 .8-4.6l-6.3-6c-.8-1.1-2.4-1.1-3.5-.3-1.6 1.3-2.2 3.3-1.1 4.6l5.2 6.9c1.4 1 3.5.8 5-.6Zm-13.9 11.9c1.6-.8 2.5-2.5 2-4.1l-.5-1-5-6.3c-1.4-1.4-3.6-2-5.3-1.4-1.6.8-1.9 2.7-1 4.4l.8 1.8 3 6c1.4 1.4 4 1.4 6 .6Zm5.2-9.1c1.6-1.2 2.2-3.3 1-5v-.5l-6.2-7.7c-1.4-1.3-3.6-1-5 .3-1 1-1 2.7-.5 3.8l5 8.2c1.6 2 4 2 5.7.8Z"/>
		<path fill="#FCCB0B" d="M1159.5 548.5c2.2-15.3 10.1-86 12-115a2902 2902 0 0 0 3-92c0-3.3-.5-6.3-1.9-9-7.1-15-31.4-65-43.1-82-16.4-24.3-76.8-88.5-76.8-88.5a74 74 0 0 0-15.8 8.5 35.8 35.8 0 0 0-11.5 15.6l87.1 167.7-13 70.2s-5.3 34.6-16.5 49.4c-6 8-13 15-21 21.3l-114.7-.3s-20.5-23-25.1-31.7c-4.7-8.7-11.5-39-11.5-39l-13.1-70s42.9-79.1 56.5-105.9c8-15 30.3-60.6 30.3-60.6a82.2 82.2 0 0 0-26.2-25.2s-65 71.6-81.7 97.3c-15.8 24.5-27.8 58.1-35.2 75.3-1.9 5-3 10.2-3 15.3 0 0-.3 65 1.1 86.6 2 27.9 11.5 98.6 11.7 110.9 1.4 56.8 41.6 193.6 40.2 207.3-1.4 13.7 5.2 14 1.9 21.6-3.3 7.6 1 25.6-1.4 31.1s3.3 6-.2 15.3c-3.6 9.3 2.7 26-1.7 40.4-4.3 14.5-1.9 30-1.9 36.6 0 6.3-3 8.2-3 19.7 0 10.6-1 21.3-3 32-1 .5-1.4 1.9-.8 3v.2a50 50 0 0 0-.8 15.9s24.5 13.9 51.9 13.9c0 0 20.4-.6 50.2-.8 14.5.5 30 .5 46.2 0 14.7 0 30.3.2 45.8.8a110 110 0 0 0 51.7-14c.8-5.1.5-10.3-.6-15.5 0 0 2.2-.8-.5-3.6-2-10.6-2.8-21.3-2.8-32 0-11.4-3-13.3-3-19.6 0-6.3 2.5-22.1-1.9-36.3-4.3-14.2 2-31.1-1.6-40.4-3.6-9.3 2.5-10.1-.3-15.3-2.4-5.5 2-23.5-1.3-31.2-3.3-7.6 3.2-7.9 1.9-21.5-.8-14 39.6-177.6 43.4-206.5Z"/>
		<path fill="#FCCB0B" d="m1062.5 494.7-12.8-8.5c-16.7 6.3-32.2 5.5-45.3 5.5-15.3.5-30.9-1.4-45.6-5.2l-11.2 7.1c-.9 5.7 15.8 20.5 57.9 20.5 44.7 0 57-14.5 57-19.4Z"/>
		<path fill="#231F20" fill-opacity=".3" d="M1073.5 983.3a99.2 99.2 0 0 0 53.8-14 41 41 0 0 0-.6-15.2s2.2-.8-.5-3.6c-2-10.6-2.8-21.3-2.8-32 0-11.4-3-13-3-19.6 0-6.6 2.5-22.1-1.9-36.6a61.9 61.9 0 0 1-1.3-21.3c-11.8 20.2 3.5 30.6-3 48.6-7.2 19.4 4.3 24 4.6 34.7 0 10.7-2.7 18.3 1 23.5 4 5.2 7 14 5.3 14-6.6-.4-2.2 7.6-11 5.4-8.7-2.2-14.4 2.2-9.8 4.4 0 .2-8.2 9-30.8 11.7Zm-159-1.6c-3.8-2.2-6.8-10.1-6.8-14 0-8.7-8-13.9-16.1-9.8-8.2 4-8-3.6-1.1-12.8 6.8-9 10.4-12.9 1.6-29 0 0-4.4-9.8 1.4-32.2 4-16.1 3.3-27-1.4-37.4.3 5.2-.3 10.6-1.6 15.5-4.4 14.5-2 30-2 36.6 0 6.3-3 8.2-3 19.7 0 10.6-1 21.3-3 32-1 .5-1.3 1.9-.8 3v.2c-1 5.2-1.3 10.7-.8 15.9 10.7 5.7 22.1 9.8 33.6 12.3ZM899 781c9.2-7.5-8-6.4-6.6-32.3 0 2.2-.3 3.8-.3 5-1.4 13.6 5.2 13.8 2 21.5a30.6 30.6 0 0 0-1.2 13 19 19 0 0 1 6-7.3Zm-8 48c2-3 4.4-5.5 7.1-7.4 8.5-6-.3-9.3-4.9-17.7 0 1-.3 2.1-.8 3-2.5 5.4 3.3 6-.3 15.3a27 27 0 0 0-1 6.8Zm219-48c-9.2-7.5 8-6.4 6.6-32.3 0 2.2.3 3.8.3 5 1.3 13.6-5.2 13.8-2 21.5 1.4 4.4 1.7 8.7 1.2 13a25.5 25.5 0 0 0-6-7.3Zm7.7 48c-2-3-4.4-5.5-7.1-7.4-8.5-6 .3-9.3 5.2-17.7 0 1 .3 2.1.8 3 2.5 5.4-3.3 6 .3 15.3.5 1.9.8 4.3.8 6.8Z"/>
		<path fill="#EC2227" fill-rule="evenodd" d="m887.5 906.3 116.6.5 117.1.8c.9 3.9 3.9 13.7 4.7 20l.3 2.7c6.5 72.1 11.2 79 27.3 243.6l-132.8 17.2-16.3-129.1-17 129.4-132.7-17.2c15.8-135.2 17.7-148.8 28.1-244.2.3-3-.2-5.4.3-8.4s1.6-6.3 2.5-9.3l1.3-4.7.6-1.3Z" clip-rule="evenodd"/>
		<path fill="#754C29" d="M1078.1 379.4v-.2l12.3-37.7c.5-3.3.5-6.6 0-9.9l-2.5-15.8c-.2-1.6-.2-3.5.3-5.2 1.1-4.4.8-8.7-1-12.8l-9.7-18.9a29.8 29.8 0 0 0-5.4-7.6l-5.5-6a35 35 0 0 0-4-3.8l-4.2-3a87.8 87.8 0 0 0-33.3-15l-3.3-.9a94.9 94.9 0 0 0-31.6-1l-22.2 3.2c-2.7.3-5.2 1-7.6 2.2l-10.4 4.6a8 8 0 0 0-4.9 7.4v.3a3 3 0 0 1-2.2 2.7l-3.3 1c-2.7 1-4.9 2.8-6 5.3l-10 23.5a36.8 36.8 0 0 0-3 16l.2 12.1c0 2 .3 3.5.5 5.5l3.9 22.6v.3l2.4 21.9 1.1 2.4c2 4.4 3.3 9.3 3.6 14.2v.3l16.6 34.7c0 .2.3.5.3.8l13.1 20.7c3.8 6 9.3 10.7 15.6 13.7l12.5 9.3c3 1.4 6.3 1 9-.3l4.1-2.2c.6-.2 1.4-.5 2-.2l9.2 2.4c.6 0 1.1 0 1.7-.3l11.7-4.6a32 32 0 0 0 17-15.3l9.5-17.5c1.1-1.3 2-2.7 2.5-4.3 1.6-5 8.4-14.5 9.3-17.5.2-.6.2-1.1.5-1.4l11.2-25.7Z"/>
		<path fill="#EC2227" d="M1092.8 570h14.9v4.3h-9.4v4.2h8.7v4.3h-8.7v4.8h9.7v4.4h-15.2v-22Zm-13.6 22.4c-1.6 0-3-.2-4.2-.6a7 7 0 0 1-4.5-4.6c-.4-1-.5-2.3-.5-4V570h5.5v13.5l.1 1.9.7 1.1 1.3.8a4.8 4.8 0 0 0 3.3 0 3 3 0 0 0 1.2-.8l.7-1.1.2-1.9V570h5.5v13.3c0 1.6-.2 2.9-.6 4a7 7 0 0 1-4.5 4.5 13 13 0 0 1-4.2.6Zm-20 0c-2 0-3.9-.5-5.5-1.3-1.7-1-3-2.2-4-4-.9-1.6-1.4-3.7-1.4-6.1 0-2.4.5-4.4 1.6-6.1 1-1.8 2.3-3 4-4a11.6 11.6 0 0 1 12.4 1.2c.6.5 1 1 1.2 1.3l-2.7 3.6a6 6 0 0 0-3-2.2c-.6-.3-1.3-.4-2.1-.4-1.1 0-2.1.3-3 .8a5 5 0 0 0-2 2.3c-.5 1-.7 2-.7 3.4 0 1.3.2 2.5.7 3.5a5 5 0 0 0 2 2.3 6.4 6.4 0 0 0 8.2-1.8l2.7 3.7c-.4.6-1 1.2-1.8 1.8-.7.5-1.7 1-2.8 1.4a12 12 0 0 1-3.8.6Zm-21.6 0a15 15 0 0 1-4.7-.8c-1.5-.6-2.8-1.4-3.8-2.3l2.5-4a11 11 0 0 0 2.8 1.8 8 8 0 0 0 3.2.7 5 5 0 0 0 2.5-.5c.6-.3.8-.8.8-1.4 0-.4 0-.8-.4-1l-.7-.7-1-.4-2.1-.8a53 53 0 0 1-.9-.3l-.6-.2a10 10 0 0 1-3-1.6 5.4 5.4 0 0 1-1.5-1.8 6 6 0 0 1-.6-2.8 6.3 6.3 0 0 1 2.6-5c.8-.6 1.6-1 2.5-1.2a12 12 0 0 1 9.1 1c.8.3 1.5.8 2 1.2l-2.2 3.8a8.3 8.3 0 0 0-2.5-1.6c-1-.4-2-.6-3-.6s-1.8.2-2.3.5c-.5.2-.8.7-.8 1.3 0 .4.2.7.4 1l.8.6a45 45 0 0 0 4.6 1.7c1.3.4 2.3 1 3 1.6a5 5 0 0 1 1.6 1.9c.3.7.5 1.6.5 2.7 0 2.1-.8 3.9-2.3 5.2-.8.6-1.7 1-2.7 1.5-1 .3-2.3.5-3.8.5Zm-25.2-22.4h14.8v4.3h-9.4v4.2h8.8v4.3h-8.7v4.8h9.7v4.4h-15.2v-22Zm-20.9 0h8.7c2.6 0 4.6.5 5.9 1.5a6.4 6.4 0 0 1 2.6 5.3c0 1.2-.3 2.4-.8 3.4a6.6 6.6 0 0 1-3.4 2.8l5.5 9h-6.2l-4.6-8H997v8h-5.5v-22Zm8.3 9.9a4 4 0 0 0 2.3-.6c.4-.3.6-.6.8-1a3 3 0 0 0 0-2.6c-.2-.4-.4-.7-.8-1-.6-.3-1.3-.5-2.3-.5H997v5.7h2.8Zm-31.5-9.9h14.3v4.3h-8.8v5h8v4.3h-8v8.4h-5.5v-22Zm-20.9 0h8.7c2.6 0 4.6.5 5.9 1.5a6.4 6.4 0 0 1 2.6 5.3 7 7 0 0 1-.8 3.4 6.6 6.6 0 0 1-3.4 2.8l5.5 9h-6.2l-4.6-8H953v8h-5.5v-22Zm8.3 9.9a4 4 0 0 0 2.3-.6c.4-.3.6-.6.8-1a3 3 0 0 0 0-2.6c-.2-.4-.4-.7-.8-1-.6-.3-1.3-.5-2.3-.5H953v5.7h2.8Zm-21.9 12.5c-1.6 0-3-.2-4.2-.6a7 7 0 0 1-4.5-4.6 14 14 0 0 1-.5-4V570h5.5v13.5c0 .8 0 1.4.2 1.9.1.4.3.8.7 1.1.3.3.7.6 1.2.8a4.8 4.8 0 0 0 3.3 0 3 3 0 0 0 1.2-.8c.3-.3.6-.7.7-1.1l.2-1.9V570h5.5v13.3a13 13 0 0 1-.5 4 7 7 0 0 1-4.5 4.5c-1.2.4-2.6.6-4.3.6Zm-21 0a15 15 0 0 1-4.7-.8c-1.5-.6-2.8-1.4-3.8-2.3l2.6-4a11 11 0 0 0 2.7 1.8 8 8 0 0 0 3.2.7 5 5 0 0 0 2.5-.5 1.5 1.5 0 0 0 .5-2.4l-.8-.7a13 13 0 0 0-1-.4l-2.1-.8-.9-.3-.6-.2a10 10 0 0 1-3-1.6 5.5 5.5 0 0 1-1.5-1.8 6 6 0 0 1-.6-2.8 6.3 6.3 0 0 1 2.6-5c.8-.6 1.6-1 2.5-1.2a11.9 11.9 0 0 1 6.4 0 12.9 12.9 0 0 1 4.7 2.2l-2.1 3.8a8.2 8.2 0 0 0-2.6-1.6c-1-.4-2-.6-3-.6s-1.8.2-2.3.5c-.5.2-.7.7-.7 1.3 0 .4 0 .7.3 1l.8.6a99.9 99.9 0 0 0 4.7 1.7c1.2.4 2.2 1 3 1.6a5.8 5.8 0 0 1 2.1 4.6c0 2.1-.8 3.9-2.4 5.2-.7.6-1.6 1-2.7 1.5-1 .3-2.3.5-3.8.5Zm8.5-281.5a124 124 0 0 0-59.5 18.8 14.4 14.4 0 0 0-7.1 7.4c-2.7 8.7 9 14.5 18.3 16.1 79.7 12.6 150.5 21.6 229.4 5.8 8.8-1.7 29-3.9 35.5-9.9 6.6-6 9.3-14.2 3.6-21-3.6-4.4-9.6-6-15-7.4a382.8 382.8 0 0 0-46.5-7.9"/>
		<path fill="#D32027" d="M1092.8 314.7s-10.3-60.9-11.4-62c-1.1-1-26.2-1.4-26.2-1.4L1011 259l-30.5 3-32.4-15s-20.5 1-20.5 4.3c0 11.5-8.2 59.9-8.2 59.9-.3 3 4.1 4.3 6 6.5 2 2.2 6.3 3.6 9.9 4.4 34.4 7.9 30.6 9.3 67.2 12.5 35.5.6 31 .3 68.2-7.3 3.8-.8 14.5-3 16.7-5.5 2.2-2.4 6-4.6 5.4-7Z"/>
		<path fill="#EC2227" d="M1081.4 253.5c0 8.2-49.2 12.6-84.4 12.6s-67.7-6.6-67.7-14.8c0-8.1 33.5-13 68.5-13s83.6 7 83.6 15.2Z"/>
		<path fill="#EC2227" fill-rule="evenodd" d="M967.7 508.9a46.3 46.3 0 0 1-20-14.5.8.8 0 1 0-1.3 1.1 48 48 0 0 0 20.7 15c9.5 3.5 22.7 5.4 43 5.2 20.4-.1 33.5-5 41.7-9.7a42.1 42.1 0 0 0 11.2-9.8l-.7-.4.7.4a.8.8 0 0 0-1.5-.9m0 0v.2l-.5.6-1.8 2c-1.7 1.8-4.4 4-8.3 6.4a79.8 79.8 0 0 1-40.8 9.6 123 123 0 0 1-42.4-5.2" clip-rule="evenodd"/>
		<path fill="#EC2227" d="M561.6 174.3c15.9-39.8 47.3-71.8 83.9-93.4 44.2-26.2 93.4-30.3 143.6-22.4h.3l6.6-13.9 31.4 42.9-55 6.8 6.6-14c-43.7-6-86-1.6-124.2 22.2-31.2 19.4-56.8 45.6-71 79.2l14.7 5-41 37.3-9.5-54 13.6 4.3Zm855.4 0c-15.8-39.8-47.2-71.8-83.8-93.4-44.3-26.2-93.4-30.3-143.7-22.4h-.2l-6.3-14.2-31.4 42.9 54.9 6.8-6.6-13.9c43.7-6 86-1.6 124.3 22.1 31.1 19.4 56.8 45.6 71 79.2l-14.8 5 40.7 37.4 9.6-54.1-13.7 4.6Z"/>
	</symbol>
	<symbol id="questions-signal2" viewBox="0 0 2080 1880">
		<path fill="#ADE0F0" d="m1177.4 1516.9 110.6.7c10.3 0 21.2.2 30.3 3.7 9.2 3.5 15.6 11.5 11 17.7-6 8.2-27 8.3-30.3 17.4-3.2 9 13.2 15 26.2 17.6 43 8.8 59.7 18.1 102.6 26.9 21.2 4.3 55.7 15 57.9 29.8 1.4 9.3 9 14-3.1 18.3-12 4.3-26.1 5.1-39.8 5.8-74 3.8-148.5 4.7-223 2.5-29-.8-59.8-1.8-85 7.3-7.7 2.7-14.7 6.5-23 8.4a119 119 0 0 1-34.6.8L688 1645.2c-21-1.6-45.8-5-54.2-18.2-8.5-13.1 7-28.3 26.2-34.2 19.1-6 41.3-6.3 61.4-10.6 20.2-4.3 40-15.1 39-29.6-.4-5.3-3.8-10.7-3.3-16.1 1.4-15.8 31.3-20.7 54.6-21.4 153.8-4.6 308.3-3.4 462.5 3.6"/>
		<path fill="#FFF2CB" d="m955.7 1598.3-110.6-4.7a89 89 0 0 0-30.4 2.2c-9.3 3-16.2 10.8-12 17.1 5.7 8.6 26.7 9.7 29.5 18.9 2.8 9.1-13.9 14.2-26.9 16.1-43.4 6.8-60.6 15.3-104 22-21.3 3.3-56.3 12.4-59.2 27-1.8 9.2-9.6 13.4 2.2 18.4a140 140 0 0 0 39.5 7.8c73.7 7.4 148 11.9 222.5 13.4 29.1.6 59.9 1 84.6 11.4 7.6 3.2 14.4 7.2 22.6 9.5 10.8 3 22.9 2.7 34.6 2.5l390-9.4c21-.5 46-2.7 55-15.5 9-12.7-5.7-28.6-24.5-35.5-18.8-6.9-41-8.3-60.9-13.5-19.9-5.2-39.2-17-37.4-31.5.7-5.3 4.3-10.5 4-15.9-.6-15.8-30.1-22.1-53.5-24a6133.2 6133.2 0 0 0-462-19.1"/>
		<path fill="#fff" d="M955.7 1591.6c-39.8-1.7-79.7-4.8-119.5-5-12.1 0-27.3.9-36.2 10.5-6.5 7-6.8 16.7.6 23.3 3.6 2.7 7.6 5 11.8 6.5 3 1.2 7.4 2 9.7 4 3.5 3.3 3.1 1.4.6 5-3.4 5-19 5.6-24.4 6.5a478 478 0 0 0-26.3 5.2c-29.4 6.6-59.2 12.1-88.5 19-20 4.7-41.2 10.8-48.6 31.4-2.9 8-6.3 14.1 1.4 20.4 10.8 8.8 29.8 9.5 43 11 78.4 8.6 157.4 12.1 236.3 14 17.7.5 35.6 1 53 4.8 16 3.4 29.7 12.5 45.5 16.3 16.2 3.9 33.5 2.2 50 1.8l64.1-1.6 240.5-5.8 58.7-1.4c16-.4 32.6-.2 48.1-4.6 20-5.6 36.1-23 20.7-42.7-20.9-26.5-62-22.6-91-32a58 58 0 0 1-22.4-11.7c-8.7-8.3-3.5-14.2-2.1-24 1.4-9.6-3.3-16.8-11-22-11.9-8-27.5-10.3-41.3-11.9-21.8-2.7-43.9-3.6-65.7-5a5944.3 5944.3 0 0 0-404-15c-8.6 0-8.6 13.5 0 13.5 143.6.7 287 6.2 430.4 16.8 16.3 1.2 33 1.6 49 4.6 6.7 1.1 13.2 3 19.4 5.6 2.5 1 4.8 2.4 6.8 4.2 5.2 5.2 2 9.1.5 15.4-5.5 23.4 17.7 36.5 37 42.5 15.2 4.8 31.3 6.3 47 9.8 11.4 2.5 40.8 9.2 40.4 25.4-.3 14.6-29.3 16.2-39 16.8-17.3 1.2-34.8 1.1-52.1 1.5l-216.4 5.4-106.9 2.7c-17.8.4-37.1 3-54.7-.5-14.5-2.7-27.2-11.5-41.6-15.3-30.2-8.1-62.4-6.6-93.4-7.5a3099.8 3099.8 0 0 1-210.4-14.1c-8.4-1-16.6-2.7-24.6-5.1-8.5-2.7-4.1-.8-3.3-6.2.5-1.8 1-3.6 1.8-5.3 5.4-10.8 20.7-14.4 31.5-17.4 27.5-7.5 56.3-11.3 84-18 16.7-4.1 33.7-6.2 50.2-10.1 8.4-2 20.9-5.8 24.1-15 3.2-9.4-3.5-15.6-10.8-19.5-4.4-2.3-11.8-3.2-15.4-6.7-10.6-10 19.2-12 24.2-12 39.8.3 79.8 3.4 119.5 5 8.6.4 8.6-13 0-13.4l-.2-.1Z"/>
		<path fill="#F9A97E" d="m922 1048.3 16.2-88.2c2.7-37.7 22-73.3 60.3-73.3 40 0 72.6 32.4 72.7 72.5 0 0 2.7 24-25.4 72.4-2.4 4-10.8 36.3-15.8 69.7l-18.9 124.4c-.6 4-.9 8-.9 11.9v14a35.3 35.3 0 1 1-70.5 0v-3a248 248 0 0 0-2-31.8l-11.7-89.6a482.5 482.5 0 0 1-4-79Z"/>
		<path fill="#F9A97E" d="m931.3 1341.5 8.2-89.8a35.3 35.3 0 0 1 70.5 0l-1.7 47.5a57 57 0 0 0 .7 10.7l9.6 62.1c1 7 1.5 14 1.1 21l-8.9 192.7a22 22 0 0 1-44 0l-15.5-107-18-99.7a131 131 0 0 1-2-37.5Z"/>
		<path fill="#F9A97E" d="m944.9 1674 14.7-31.3c2.4-5 3.3-10.5 2.7-16l-1.4-12c-.3-2.4-.1-5 .5-7.4l5.4-21.5a22 22 0 0 1 44 0l3.9 9.5c1.4 3.4 2.3 7 2.7 10.6l1.6 14.7.7 3.8 7.3 34.1a22 22 0 0 0 1.6 5l3.7 7.7c1.3 2.5 1 5.5-.6 7.7l-1.5 2a8.7 8.7 0 0 1-7 3.8h-72.5a6.4 6.4 0 0 1-5.6-3.4 8 8 0 0 1-.2-7.3Z"/>
		<path fill="#F68B62" d="M977.4 1601s3.8 33 3.8 42.1c0 3.8-8.3 11.3-11.4 18.9-3 7.4-4.6 15.2-5 23.2h-3a65.3 65.3 0 0 1 2.8-27.8c4.4-12.3 10-19 8.8-20.3-5-4.8 4-36 4-36Zm38.6 61.5s-19-33.2-5-40.8c5.5-3 3.5 8.6 3.5 8.6l1.6 32.2Z"/>
		<path fill="#F9A97E" d="m1162.6 1674.7-14.7-31.3c-2.4-5-3.3-10.5-2.7-16l1.4-12c.3-2.4.1-5-.5-7.4l-5.4-21.5a22 22 0 0 0-44 0l-3.8 9.4c-1.4 3.4-2.3 7-2.7 10.6l-1.7 14.8a37 37 0 0 1-.6 3.8l-7.3 34.1c-.3 1.7-.9 3.3-1.6 4.9l-3.8 7.7c-1.2 2.5-1 5.5.7 7.8l1.5 2a8.7 8.7 0 0 0 7 3.7h72.5c2.3 0 4.5-1.2 5.6-3.3a8 8 0 0 0 .1-7.3Zm23-626.4-14.2-90.8c-2.7-37.6-23.9-70.7-62.2-70.7-40 0-72.5 32.4-72.6 72.5 0 0-2.7 24 25.4 72.4 2.3 4 10.7 36.3 15.8 69.7a77925 77925 0 0 0 18.8 124.4c.6 4 1 8 1 11.9v14a35.3 35.3 0 0 0 70.5 0v-3c0-10.6.6-21.3 2-31.8l11.7-89.6c3.5-26.1 4.7-52.6 3.8-79Z"/>
		<path fill="#F9A97E" d="m1176.3 1342.2-8-89.8a35.3 35.3 0 0 0-70.6 0l1.7 47.5c.2 3.6 0 7.3-.6 10.8l-9.6 62.1c-1.1 7-1.5 14-1.2 21l9 192.7a22 22 0 0 0 44 0l15.5-107 18-99.7c2.4-12.4 3-25 1.8-37.6Z"/>
		<path fill="#F68B62" d="M1131 1601s-3.8 33-3.8 42.1c0 3.8 8.2 11.3 11.4 18.9 3 7.4 4.7 15.2 5 23.2h3.2c1-9.4 0-18.9-3-27.8-4.3-12.3-10-19-8.7-20.3 4.8-4.8-4-36-4-36Zm-38.6 61.5s19-33.2 5-40.8c-5.5-3-3.5 8.6-3.5 8.6l-1.5 32.2ZM1118 364.4l3.4-2a8 8 0 0 1 10.3 1.5 6 6 0 0 1 1.4 4v2.9a58.3 58.3 0 0 1-6.1 24.5l-.3.7c-.5 2.3-4.8 15.7-6.4 16.1-1.5.4-3 .1-4.3-.8-.5-.3-.8-1-.7-1.5l1.1-42.7c0-1 .6-2.1 1.6-2.7Zm-128.3 0-3.4-2a8 8 0 0 0-10.3 1.5 5.9 5.9 0 0 0-1.5 4v2.9a58 58 0 0 0 6.1 24.5l.3.7c.5 2.3 4.8 15.7 6.4 16.1 1.5.4 3 .1 4.3-.8.5-.3.8-1 .7-1.5l-1.1-42.7c0-1-.6-2-1.5-2.7Z"/>
		<path fill="#F9A97E" d="M1107.6 496.1c-4.5-2-7.7-6.1-8.7-11l-8.3-39.2H1017l-8.3 39.3a16 16 0 0 1-8.6 11h107.5Z"/>
		<path fill="#F9A97E" d="M1116.8 298.2c-9.7-14.5-27.8-29.1-61.2-29.1-41 0-59 21.8-66.7 38.8-4 9-6 18.8-5.4 28.7a598.7 598.7 0 0 0 8.4 74.8 55.3 55.3 0 0 0 19.3 35.3c6 5.3 12.4 10 19 14.4 5.3 3 10.9 5.3 16.6 7.1 5.8 1.9 12 1.8 17.8-.3 4.9-1.8 9.6-4 14-6.8 7.8-5.5 15-11.7 21.5-18.5a55.7 55.7 0 0 0 14.2-24.7l9.4-45.8 3.2-33c1.4-14.4-2-28.8-10-41ZM514.3 488.6l2.7 1.7c3.3 2.1 6.4 4.7 9 7.6l7.1 8c2.7 3.2 6.6 10 10.3 11.9l6.8 3.6c9.5 3.2 14.9 8.6 13.1 18.7a20.5 20.5 0 0 1-23.6 16.6c-.7 0-1.3-.3-2-.4l-16-3.8c-4.7-1-9.4-1.8-14.1-2.2 0 0-43.1-4.6-45.3-7.8l3-4.7c1.3-2 2.2-4 2.5-6.3l1.9-10.6c.5-3-.1-6-1.6-8.6l-1.3-2.7c-1-2-.8-4.4.7-6.2 1.3-1.5 9.5-3 15.4-2.3l10.1 1 3.1.3c.5-.3.8-.8.6-1.3a6 6 0 0 1 1-5.9l6.2-6.3c1.1-1.3 9-1.2 10.4-.3Z"/>
		<path fill="#F9A97E" d="m470.1 487 16.6 1.7 21.5-.7a9.5 9.5 0 0 1 2.4 18.9l-1.7.1h-.6c-6-.1-11.7-1.6-17-4.2l-1.8-.9c-3-1.1-6-2-9-2.8l-7.8-2.3a7 7 0 0 1-5-8 2 2 0 0 1 2.4-1.8Zm-4.3 45.4h1.8a5.5 5.5 0 0 1 4.2 6.8 5.8 5.8 0 0 1-6.7 4.6l-1.4-.5-14.2-5.4a3.6 3.6 0 0 1-2.7-4.3v-.1a4.3 4.3 0 0 1 4.3-3.5l5.2 1.2a43 43 0 0 0 9.5 1.2Z"/>
		<path fill="#F9A97E" d="M467.2 523.2h1.3a6 6 0 0 1 4 7.3 6.1 6.1 0 0 1-6.7 4.8l-21.4-6.6a4.2 4.2 0 0 1-2.7-5.4c.4-2.3 2.3-4 4.6-4h.4l8.4 1.7c2.7 1.1 9.1 1.9 12 2.2ZM477 501c3.1.2 0 3.8 0 7 0 3.1-2.6 5.5-5.7 5.4h-.3l-21.8-3.4a4.3 4.3 0 0 1-3.6-4.8c.2-2.4 1.2-5.4 3.3-5.4h.4l10 .9 17.8.3Z"/>
		<path fill="#F9A97E" d="M469.9 512a6.3 6.3 0 0 1-1.8 12.4h-.2l-.7-.2-22.3-4.8a4.5 4.5 0 0 1-3.8-5.2v-.2a5.5 5.5 0 0 1 4.8-4.9h.6l9.3 1.5c4 .7 14 1.4 14 1.4Zm-18.6 18a4 4 0 0 1 2.5 4.8c-.4 2-2.3 3.3-4.3 3l-10.2-3.7a3.3 3.3 0 0 1-2.1-4.1 3.1 3.1 0 0 1 3.5-2.6l10.6 2.6Z"/>
		<path fill="#F9A97E" d="M446.7 519.7c2.3 1 3.4 3.4 2.7 5.7a4.3 4.3 0 0 1-4.8 3.6l-13-4.2a3.5 3.5 0 0 1-2.2-4.4c.5-2 2.3-3.7 4-3.3l13 2.7h.3Zm2.3-20c2.1.1 4.4 3.6 4.2 6.1 0 2.3-1.8 4.2-4.1 4.2l-13.5-2.2c-2-.3-3.2-2.1-3-4 0-2 1-4.9 2.7-4.8l13.2.7h.5Z"/>
		<path fill="#F9A97E" d="M446.3 509.4c2.4.3 3.9 3.4 3.5 6a4.6 4.6 0 0 1-5 4l-14.8-3.3c-2-.3-3.4-2.3-3-4.3.3-2.1 2.2-4.4 4.2-4.2l14.7 1.6.4.2Zm-5.6 18.1a3 3 0 0 1 2.2 3.7c-.3 1.8-1.9 3-3.6 3l-.5-.2-6.4-2.7a3.8 3.8 0 0 1-2-3.9c.5-1.3 1.8-2 3.1-1.8l7.2 1.9Zm-5.1-5.7c-.3 1.8-1.9 3-3.7 3h-.4l-8.3-2.9a2.7 2.7 0 0 1-2-3c.6-2.2 2.2-3.5 3.7-3.1l8.6 1.4c1.8.7 2.7 2.7 2.1 4.6Zm3.4-17.5c0 1.8-1.4 3.3-3.2 3.4h-.3l-8.7-1.6c-.5-.1-3.6-1.5-3.6-4.2a3.2 3.2 0 0 1 3.6-3l8.7.1c1.7.1 3.7 3.2 3.6 5.3Z"/>
		<path fill="#F9A97E" d="M434 512.8c-.1 2-1.8 3.5-3.8 3.4h-.4l-9.5-2.2a3.6 3.6 0 0 1 1.2-6.9l9.7.8c2 0 3.2 2.8 2.9 5Zm780.3-369.1 1.8 2.7a38 38 0 0 0 7.7 8.8l8.1 6.9c3.1 2.7 10 6.4 12 10l3.7 6.8c3.3 9.4 8.8 14.7 18.9 12.8a20.5 20.5 0 0 0 15.8-25.8l-4-16c-1.2-4.6-2-9.3-2.5-14 0 0-5.4-43.1-8.6-45l-4.6 3c-1.9 1.4-4 2.3-6.3 2.7l-10.5 2c-3 .6-6 0-8.7-1.5l-2.7-1.2c-2-1-4.5-.7-6.2.8a4.9 4.9 0 0 0-1.3 5.4l2.5 10.4c1.2 3.2 1 6.7-.4 9.7l-1.3 3c-.3.5-.8.8-1.4.6a6 6 0 0 0-5.8 1.2l-6.3 6.2c-1 1.4-.8 9 .1 10.5Z"/>
		<path fill="#F9A97E" d="m1203.3 103.2 5.5 15.8 4.3 21.2a9.5 9.5 0 1 0 18.6-3.7l-.2-.6c-1.5-5.7-4.3-11-8-15.6l-1.3-1.5a77 77 0 0 1-4.9-8l-4-7a7 7 0 0 0-9-3 2 2 0 0 0-1 2.4Zm54.1-8.6a5 5 0 0 0 0 1.8c.8 3 3.8 4.8 6.7 4h.2c3-.6 5-3.6 4.4-6.7a5 5 0 0 0-.5-1.4l-5.7-14c-.5-2-2.5-3-4.4-2.6h-.1a4 4 0 0 0-3.4 4.4l1.3 5.1c.8 3 1.3 6.2 1.5 9.4Z"/>
		<path fill="#F9A97E" d="M1248.2 96c0 .5 0 1 .2 1.4v.1a6 6 0 0 0 7.3 4 6.2 6.2 0 0 0 4.7-6.9l-7-21.2a4.3 4.3 0 0 0-5.4-2.7 4.8 4.8 0 0 0-3.9 4.6v.4l1.9 8.4c1 2.7 1.8 9 2.2 12Zm-21.4 5.1a5.8 5.8 0 0 0 6.4 5c3-.1 5.5-2.7 5.3-5.8v-.3l-3.7-21.7a4.4 4.4 0 0 0-5-3.5c-2.3.1-5.3 1.2-5.3 3.3v.3l1 10 1.4 12.6v.1Z"/>
		<path fill="#F9A97E" d="M1237 99a6.3 6.3 0 0 0 12.4-2v-.3a3 3 0 0 0-.2-.6l-5-22.2a4.7 4.7 0 0 0-5.3-3.7h-.1a5.6 5.6 0 0 0-4.8 4.9v.5l1.6 9.2c.7 4 1.4 14.2 1.4 14.2Zm17.7-19a4 4 0 0 0 4.9 2.5c2-.3 3.3-2.2 3-4.2l-4-10.2a3.4 3.4 0 0 0-4.1-2 3.1 3.1 0 0 0-2.5 3.5l2.7 10.5Z"/>
		<path fill="#F9A97E" d="M1244.4 75.8a4.6 4.6 0 0 0 5.7 2.6 4.3 4.3 0 0 0 3.5-4.9l-4.4-12.8a3.5 3.5 0 0 0-4.4-2.2c-2 .5-3.7 2.4-3.3 4.1l2.7 13 .2.2Zm-20 2.5c.1 2.2 3.6 4.3 6.1 4.2 2.3 0 4.2-2 4.2-4.3l-2.5-13.5a3.5 3.5 0 0 0-4-2.8c-2 .1-4.9 1-4.7 2.8l.8 13.2v.4Z"/>
		<path fill="#F9A97E" d="M1234 75.3c.3 2.4 3.5 3.9 6.1 3.5a4.6 4.6 0 0 0 4-5l-3.5-14.6a3.7 3.7 0 0 0-4.4-3c-2 .4-4.4 2.4-4 4.3l1.8 14.7v.1Zm18-5.7a3 3 0 0 0 3.7 2.1c1.8-.4 3.3-2 3-3.6l-.2-.5-2.7-6.3a3.8 3.8 0 0 0-4-2c-1.2.5-2 1.8-1.6 3.2l1.8 7.1Zm-5.7-5c1.8-.3 3-2 2.9-3.8v-.2l-3-8.2a2.7 2.7 0 0 0-3-1.9c-2.2.5-3.5 2.2-3.1 3.7l1.5 8.5a4 4 0 0 0 4.7 1.9Zm-17.5 3.7a3.5 3.5 0 0 0 3.4-3.4l-1.8-8.6c-.1-.6-1.5-3.6-4.2-3.5a3.2 3.2 0 0 0-3 3.6l.3 8.6c.1 1.6 3.2 3.5 5.3 3.3Z"/>
		<path fill="#F9A97E" d="M1237.3 63.2c2-.2 3.4-2 3.3-3.9V59l-2.4-9.5a3.6 3.6 0 0 0-7 1.4l1 9.6c.2 1.8 3 3 5 2.7Z"/>
		<path fill="#754C29" d="M1129 380v-.4l12.4-38.3a28 28 0 0 0 0-10l-2.7-16.2a12 12 0 0 1 .3-5.3c1.3-4.3.9-8.9-1.1-12.9l-9.6-19.2a35.8 35.8 0 0 0-5.4-7.8l-5.6-6a29.9 29.9 0 0 0-4.3-3.9l-4-3a88.5 88.5 0 0 0-33.7-15.2l-3.4-.7a88.7 88.7 0 0 0-32.3-1l-22.4 3.4c-2.7.4-5.4 1.2-7.9 2.4l-10.4 4.7a8.4 8.4 0 0 0-5 7.6v.2a3 3 0 0 1-2.2 2.9l-3.4 1c-2.8.7-5 2.7-6 5.3L972 291.5a37 37 0 0 0-3.1 16.1l.3 12.3c0 1.9.2 3.7.5 5.6l4 23v.2l2.6 22.2 1.1 2.6a46.8 46.8 0 0 1 3.7 14.7l17 35.2c0 .3.1.5.3.7l13.2 21a36 36 0 0 0 15.8 13.9l12.7 9.3c3 1.3 6.4 1.2 9.2-.3l4-2.2c.6-.4 1.3-.5 2-.4l9.5 2.6c.5 0 1 0 1.6-.2l11.8-4.7a33 33 0 0 0 17.4-15.5l9.8-17.7c1-1.3 1.9-2.8 2.5-4.4 1.7-5 8.5-14.8 9.5-17.8l.4-1.5L1129 380Z"/>
		<path fill="#FCCB0B" d="M1211.7 551.7c.8-6.1 15.1-22.8 26.2-39.1 16.7-24.8 30.1-40.4 38.8-54.8 9.8-16.2 33.3-67.6 33.3-67.6a41 41 0 0 0 4.2-16.9c.6-18.8 1.7-62.5-.3-79.5-4-32.3-31-126-31-126l-37.4 1.7s.7 112.7 8 161c1.4 9.6-2.7 38.8-2.7 38.8s-32.7 44.7-44.5 59c-8 9.7-16.8 18.9-33.5 37.5-9.8 11-59.8 31.3-59.8 31.3L996 496s-79.1 4.3-107.8 10.5c-23 5-71 8.8-94.8 10.4-24.8 1.7-99.3 6.1-99.3 6.1s-36.1-3-48.2-3.2c-23.2-.6-93 1.8-93 1.8-4.2 4.1-7 9.5-7.8 15.3a46.9 46.9 0 0 0 0 20.7s91.6 22.9 122.8 26.9c33 4.2 99.4 4.3 132.6 4.9 13.4.2 24.4.6 53.5 0 26-.6 48.5-1.7 48.5-1.7 10.5 65.8 38 162.2 37 173.7-1.5 13.9 5.1 14.1 1.8 21.9-3.3 7.8 1.2 26.2-1.4 31.6-2.6 5.4 3.3 6.2-.3 15.6-3.5 9.4 2.9 26.4-1.6 41-4.5 14.7-1.9 30.5-1.9 37.1 0 6.6-3 8.3-3 20-.2 11-1.2 21.7-3.2 32.4a2.2 2.2 0 0 0-.6 3.1 50.2 50.2 0 0 0-.8 16.1s25 14.3 52.9 14.3c0 0 20.9-.5 51.1-.7 14.7.6 30.5.7 47 0 15.1 0 31 .3 46.7.7 27.9.7 52.5-14.3 52.5-14.3.7-5.2.5-10.5-.5-15.7 0 0 2-.8-.7-3.5a194 194 0 0 1-3-32.5c0-11.8-3-13.4-3-20 0-6.7 2.7-22.5-1.9-37-4.6-14.7 1.9-31.7-1.7-41.2-3.5-9.4 2.4-10.1-.2-15.5-2.6-5.5 1.9-23.9-1.4-31.7-3.3-7.8 3.3-8 1.9-21.9-1.5-13.9 39.5-179.9 43.5-209.5Z"/>
		<path fill="#FCCB0B" d="m1113 497.2-13-8.7c-17 6.3-32.7 5.3-46.1 5.6a164 164 0 0 1-46.5-5.4L996 496c-.8 5.8 16.2 20.8 59 20.7 45.4 0 58-14.7 58-19.5Z"/>
		<path fill="#231F20" fill-opacity=".3" d="M1124 993.5a104 104 0 0 0 54.8-14c.7-5.3.5-10.6-.5-15.8 0 0 2-.8-.7-3.5a194 194 0 0 1-3-32.5c0-11.8-3-13.4-3-20 0-6.7 2.7-22.5-1.9-37.1-1.8-7-2.2-14.3-1.2-21.5-11.9 20.4 3.7 31-3 49.5-7.1 19.8 4.5 24.5 4.7 35.2.2 10.8-2.9 18.6 1.2 23.8 4.1 5.1 6.9 14.2 5.4 14.2-6.5-.2-2.3 7.7-11 5.4-8.8-2.3-14.9 2.2-10.2 4.5-.1 0-8.4 9-31.5 11.8Zm-161.5-1.8c-4-2.1-7-10.2-7-14 .2-9-7.9-14.1-16.3-10-8.4 4-8-3.7-1.1-13 6.8-9.2 10.7-12.9 1.5-29.5 0 0-4.4-10.1 1.5-32.6 4.3-16.4 3.4-27.6-1.5-38a48 48 0 0 1-1.6 15.9c-4.5 14.6-1.8 30.4-1.8 37 0 6.6-3.1 8.3-3.1 20.1-.2 10.8-1.2 21.6-3.2 32.3a2.2 2.2 0 0 0-.6 3.1 50.2 50.2 0 0 0-.8 16.2 125 125 0 0 0 34 12.5Zm-16-203.8c9.4-7.4-8-6.5-6.7-32.6 0 2.1-.2 3.8-.3 5-1.5 14 5.2 14.2 1.8 22a34 34 0 0 0-1.1 13.3 21 21 0 0 1 6.3-7.7Zm-7.9 48.7c1.8-3 4.3-5.6 7.2-7.6 8.6-6.1-.3-9.4-5.1-18.2a10 10 0 0 1-.8 3.2c-2.6 5.3 3.4 6-.2 15.5-.8 2.3-1.1 4.7-1.1 7Zm222.7-48.7c-9.4-7.4 8-6.5 6.7-32.6 0 2.1.2 3.8.3 5 1.4 14-5.2 14.2-1.9 22 1.3 4.3 1.7 8.9 1.2 13.3-1.5-3-3.6-5.7-6.3-7.7Zm7.9 48.7c-1.9-3-4.3-5.6-7.2-7.6-8.7-6.1.3-9.4 5-18.2.2 1 .4 2.1.8 3.2 2.7 5.3-3.3 6 .3 15.5.7 2.3 1.1 4.7 1 7Z"/>
		<path fill="#EC2227" fill-rule="evenodd" d="m935 915.2 118.8.4 119.2.8c1 3.8 4 14 4.8 20.2l.3 3c6.6 73 11.5 80 27.8 247.6l-135.2 17.5-16.7-131.3-17 131.5-135.2-17.5c16.2-137.3 18.1-151.3 28.7-248 .3-3-.2-5.5.3-8.7.5-3.3 1.7-6.5 2.5-9.4l1.3-4.6.4-1.5Z" clip-rule="evenodd"/>
		<path fill="#EC2227" d="M1153.7 591h16v4.6h-10.1v4.5h9.3v4.7h-9.3v5.2h10.4v4.7h-16.3V591Zm-14.6 24c-1.8 0-3.3-.2-4.5-.6a7.5 7.5 0 0 1-4.9-4.9 16 16 0 0 1-.5-4.2V591h5.9v14.6c0 .8 0 1.4.2 2 .1.4.4.8.7 1.2l1.3.8c.5.2 1.2.3 1.8.3l1.8-.3 1.3-.8c.3-.4.6-.8.7-1.3a7 7 0 0 0 .2-2V591h6v14.3a14 14 0 0 1-.6 4.2 7.5 7.5 0 0 1-4.9 5 14 14 0 0 1-4.5.6Zm-21.5 0a10.8 10.8 0 0 1-10.1-5.5c-1-1.9-1.6-4-1.6-6.7 0-2.5.6-4.7 1.7-6.6a10 10 0 0 1 4.3-4.1 12.5 12.5 0 0 1 10.5-.6 10 10 0 0 1 4.1 3.1l-2.9 4a3 3 0 0 0-1.2-1.3c-.5-.5-1.2-.8-2-1.1a6 6 0 0 0-2.3-.4 6 6 0 0 0-3.2.8c-.9.6-1.6 1.4-2.1 2.4-.6 1-.8 2.3-.8 3.7 0 1.4.2 2.7.7 3.8a6 6 0 0 0 5.4 3.3 6.8 6.8 0 0 0 4.3-1.5l1.3-1.4 2.9 4.1c-.4.7-1 1.3-1.9 1.9a11 11 0 0 1-3 1.6 13 13 0 0 1-4.1.6Zm-23.2 0c-1.7 0-3.4-.2-5-.8-1.7-.7-3-1.5-4.2-2.5l2.8-4.2a12 12 0 0 0 3 1.9c1.2.5 2.3.7 3.4.7 1.2 0 2.1-.1 2.7-.5.6-.3.9-.9.9-1.5 0-.5-.1-.8-.4-1.1l-.8-.7-1.1-.5-2.3-.8a148.9 148.9 0 0 0-1.6-.5c-1.3-.5-2.4-1-3.2-1.7a5.7 5.7 0 0 1-1.6-2c-.4-.8-.6-1.8-.6-3 0-1.3.2-2.3.8-3.2.5-1 1.2-1.7 2-2.3a9 9 0 0 1 2.6-1.2 12.8 12.8 0 0 1 9.8 1 9 9 0 0 1 2.1 1.4l-2.3 4a9 9 0 0 0-2.7-1.6 8.5 8.5 0 0 0-3.2-.7c-1.1 0-2 .2-2.5.5s-.8.8-.8 1.5c0 .4.1.7.4 1a88.9 88.9 0 0 0 5.8 2.5c1.3.4 2.4 1 3.3 1.7a6 6 0 0 1 1.6 2c.4.8.6 1.8.6 3a7 7 0 0 1-2.6 5.5 9 9 0 0 1-2.8 1.6 12 12 0 0 1-4 .6Zm-27.1-24h16v4.6h-10v4.5h9.3v4.7h-9.4v5.2h10.5v4.7h-16.4V591Zm-22.3 0h9.3c2.8 0 4.9.5 6.3 1.6.8.6 1.5 1.4 2 2.4s.8 2 .8 3.3c0 1.4-.3 2.6-.9 3.7-.8 1.3-2 2.3-3.6 3l6 9.7h-6.8l-4.9-8.7h-2.4v8.7h-5.9V591Zm8.8 10.6c1 0 2-.2 2.5-.6.4-.3.7-.6.9-1l.3-1.5c0-.4-.1-1-.3-1.3a3 3 0 0 0-.9-1c-.6-.5-1.4-.7-2.5-.7h-3v6.1h3ZM1020 591h15.4v4.6h-9.5v5.3h8.7v4.7h-8.7v9h-6V591Zm-22.4 0h9.4c2.7 0 4.8.5 6.3 1.6.8.6 1.5 1.4 2 2.4s.8 2 .8 3.3a7 7 0 0 1-4.5 6.7l5.9 9.7h-6.8l-4.8-8.7h-2.4v8.7h-5.9V591Zm9 10.6c1 0 1.8-.2 2.4-.6.4-.3.6-.6.8-1l.3-1.5c0-.4 0-1-.3-1.3-.2-.5-.4-.8-.8-1-.6-.5-1.5-.7-2.5-.7h-3v6.1h3ZM983 615c-1.7 0-3.3-.2-4.5-.6a7.5 7.5 0 0 1-4.9-4.9 16 16 0 0 1-.5-4.2V591h5.9v14.6c0 .8 0 1.4.2 2 .1.4.4.8.7 1.2l1.3.8 1.8.3c.7 0 1.3-.1 1.8-.3.6-.2 1-.5 1.3-.8.4-.4.6-.8.7-1.3a7 7 0 0 0 .2-2V591h6v14.3c0 1.7-.3 3.1-.6 4.2-.4 1.2-1 2.1-1.7 3-.9.9-2 1.5-3.2 2a14 14 0 0 1-4.5.6Zm-22.5 0c-1.8 0-3.5-.2-5.1-.8a15 15 0 0 1-4.1-2.5l2.8-4.2c.8.7 1.7 1.3 2.9 1.9 1.2.5 2.3.7 3.5.7 1.2 0 2-.1 2.6-.5.6-.3 1-.9 1-1.5 0-.5-.2-.8-.5-1.1l-.8-.7-1.1-.5-2.2-.8a114 114 0 0 1-1.6-.5c-1.3-.5-2.4-1-3.2-1.7a5.9 5.9 0 0 1-1.7-2c-.4-.8-.6-1.8-.6-3 0-1.3.3-2.3.8-3.2.6-1 1.3-1.7 2-2.3a9 9 0 0 1 2.7-1.2 12.8 12.8 0 0 1 9.8 1 9 9 0 0 1 2 1.4l-2.2 4a8.8 8.8 0 0 0-2.8-1.6c-1-.4-2.1-.7-3.2-.7a5 5 0 0 0-2.4.5c-.6.3-.9.8-.9 1.5 0 .4.2.7.4 1l.9.6a86.2 86.2 0 0 0 5 1.9c1.3.4 2.4 1 3.2 1.7.7.5 1.2 1.2 1.6 2 .4.8.6 1.8.6 3a7 7 0 0 1-2.5 5.5 9 9 0 0 1-2.9 1.6c-1 .4-2.4.6-4 .6Zm5.2-303.4a128.9 128.9 0 0 0-61.7 19.5 15.6 15.6 0 0 0-7.4 7.8c-3 9.1 9.5 15 18.9 16.5 82.5 13 155.9 22.3 237.9 6 9-1.7 29.9-3.8 36.6-10.1 6.8-6.4 9.6-14.7 3.7-21.9-3.7-4.6-9.7-6.3-15.4-7.6-16-3.7-32-6.4-48.3-8"/>
		<path fill="#D32027" d="M1143.6 315.6s-10.8-63.2-12-64.2c-1.3-1-22.3-3-27.2-1.6-23.5 6.6-28.7 12-43 14.6l-.2-1.5c-33 1.1-36-7.7-67.8-17.6-4.9-1.5-21.3 1-21.3 4.5 0 11.7-8.7 62-8.7 62-.4 3 4.2 4.4 6.2 7 2 2.5 6.5 3.6 10.3 4.5 35.7 8 31.9 9.5 69.8 13 36.6.6 32.3.3 70.9-7.6 3.8-.8 15-3.2 17.2-5.8 2.2-2.5 6.3-4.6 5.8-7.3Z"/>
		<path fill="#EC2227" d="M1131.6 252.3c0 8.6-51.2 13.1-87.5 13.1-36.4 0-70.3-6.7-70.3-15.3 0-8.6 34.8-13.7 71.2-13.7 36.4 0 86.6 7.3 86.6 15.9Z"/>
		<path stroke="#EC2227" stroke-linecap="round" stroke-miterlimit="10" stroke-width="1.7" d="M986.6 500.7s6.8 14.9 62.8 16.4c56 1.5 63.4-17.8 63.4-17.8"/>
		<path fill="#EC2227" d="m1161.4 65.4 49.5 21.8-1.3-14.6c43.5-3.3 87.3-1.8 130.4 4.4a137 137 0 0 1 42.5 12.3c8.4 4.3 26.7 10.3 30.5 19.3 5.9 14.2-15 26-27.7 31-13.5 5.4-7.6 27.4 6 22 28-11.1 46.2-38.6 30-67.3-10.8-18.8-32-28.3-51.9-34.2-25.4-7.5-53.1-9-79.5-10.3a704 704 0 0 0-82.2.2l-1.2-14.7-45.1 30.1Zm188.2 95.8-49.4-21.7 1.2 14.6a594.7 594.7 0 0 1-130.4-4.5 136.3 136.3 0 0 1-42.5-12.2 41.2 41.2 0 0 1-20.5-19.3c-5.8-14.2 5-26 17.7-31 13.5-5.4 7.6-27.4-6-22-28 11-46.2 38.5-30 67.3 10.8 18.8 32 28.3 51.9 34.2 25.4 7.5 53.1 9 79.5 10.3 27.4 1.6 54.8 1.5 82.2-.2l1.2 14.7 45.1-30.2Z"/>
	</symbol>
	<symbol id="questions-signal3" viewBox="0 0 2080 1880">
		<path fill="#ADE0F0" d="m1108.4 1513.3 108.6.7c10 0 20.9.3 29.9 3.7 9 3.5 15.3 11.4 10.8 17.2-6 8.2-26.7 8.2-29.8 17.2-3.2 9 13 14.5 25.6 17.2 42.3 8.7 58.7 17.7 100.7 26.4 20.9 4.2 54.7 14.8 56.8 29.3 1.3 9.3 8.7 13.8-2.9 18-11.6 4.3-25.6 5-39.1 5.8-72.7 3.7-145.9 4.5-218.8 2.7-28.6-.8-58.7-1.9-83.6 7.1-7.6 2.7-14.5 6.4-22.7 8.2a122 122 0 0 1-34 .8l-382.3-28.5c-20.6-1.6-44.9-4.8-53.1-17.8-8.2-12.9 6.9-27.7 25.6-33.5 18.8-5.8 40.7-6.1 60.3-10.3 19.6-4.3 39.4-14.8 38.3-29.1-.5-5.3-3.7-10.6-3.1-15.9 1.3-15.5 30.6-20.3 53.6-20.8a6031 6031 0 0 1 454 3.4"/>
		<path fill="#FFF2CB" d="m890.6 1593-108.6-4.7c-10-.5-20.9-.8-29.9 2.1-9 3-15.8 10.6-11.6 16.7 5.5 8.4 26.2 9.5 29 18.5 3 9-13.7 14-26.4 15.8-42.5 6.6-59.4 15.1-102 21.4-20.9 3.2-55.2 12.2-58.1 26.5-1.9 9-9.6 13.2 2 18 11.7 4.7 25.4 6.3 39 7.6 72.3 7.4 145.3 11.6 218.5 13.2 28.5.6 58.7 1 83 11.1 7.4 3.2 14 7.2 22.2 9.3 10.6 2.9 22.5 2.6 33.8 2.4l382.7-9c20.7-.6 45.2-2.7 54.2-15 9-12.5-5.5-28.4-24-35-18.5-6.6-40.2-8.2-59.8-13.2-19.5-5-38.5-16.7-36.7-31 .5-5.2 4.2-10.2 4-15.5-.6-15.6-29.6-21.7-52.6-23.5a6037.5 6037.5 0 0 0-453.8-18.8"/>
		<path fill="#fff" d="M890.6 1586.5c-39.1-1.6-78.2-4.8-117.3-4.8-12 0-26.7.8-35.5 10.3-6.3 6.9-6.6 16.4.6 23 3.4 2.7 7.4 5 11.6 6.3 3 1.4 7.1 1.9 9.5 4 3.5 3.2 3.2 1.3.5 4.8-3.4 4.7-18.7 5.5-24 6.3-8.7 1.6-17.2 3.2-26 5-28.7 6.6-58 12-86.9 18.8-19.5 4.5-40.4 10.6-47.8 31-3 7.9-6 13.7 1.3 20 10.6 8.7 29.4 9.3 42 10.6 77.2 8.4 154.7 11.9 232.1 13.7 17.4.6 34.9.8 52 4.5 16 3.5 29.4 12.4 44.7 16.1 15.9 3.8 32.8 2.2 49.2 1.9l62.9-1.6 236-5.8 57.6-1.3c15.6-.6 32-.3 47.4-4.5 19.5-5.6 35.4-22.8 20.3-42-20.6-26-60.8-22.3-89.3-31.5a56 56 0 0 1-22.2-11.6c-8.5-8.2-3.5-14-2.1-23.5 1.3-9.6-3.2-16.7-10.9-21.7-11.6-7.7-27-10-40.4-11.7-21.4-2.3-43.1-3.4-64.5-5a5965.8 5965.8 0 0 0-396.7-14.5c-8.5 0-8.5 13.2 0 13.2 140.8.5 281.7 6 422.6 16.4 15.9 1.3 32.2 1.6 48 4.5a87 87 0 0 1 19.1 5.3 19 19 0 0 1 6.6 4.2c5 5 1.9 9 .6 15-5.3 23 17.4 36 36.2 41.8 15 4.8 30.9 6.1 46.2 9.5 11.4 2.4 40.2 9 40 25.1-.3 14.3-28.9 16-38.4 16.4-17 1-34 1-51.3 1.6l-212.5 5.3-104.9 2.7c-17.4.5-36.5 2.9-54-.6-14.2-2.6-26.6-11.3-40.6-15-29.6-8-61.3-6.4-91.7-7.4-35-1.1-69.5-2.7-104.2-5-34-2.2-68.4-4.6-102.3-8.8-8.1-.8-16-2.6-24-5-8.5-2.7-4-.8-3.2-6 .6-2 1-3.8 1.9-5.4 5.3-10.5 20.3-14 30.9-17.1 27-7.5 55.2-11.2 82.5-17.8 16.3-4 33-6 49.1-10 8.2-2.1 20.6-5.6 23.5-14.8 3-9.3-3.4-15.3-10.5-19-4.3-2.4-11.7-3.2-15-6.6-10.7-10 18.7-12 23.4-12 39.1.3 78.3 3.2 117.4 4.8 8.4.3 8.4-13 0-13.2l.5 1Z"/>
		<path fill="#F9A97E" d="m865.8 1343.8 8.4-88.2a34.7 34.7 0 0 1 33.9-35.5c19-.5 34.8 14.8 35.4 33.9v1.8l-1.9 46.8c-.2 3.4 0 7.1.5 10.6l9.3 61c1 6.9 1.3 13.8 1 20.6l-9.7 189.5a22 22 0 0 1-22.5 21 21.8 21.8 0 0 1-20.9-21l-14.8-105.1-17.1-98.1c-2.4-12.7-3-25.1-1.6-37.3Z"/>
		<path fill="#F9A97E" d="m877.7 1670.8 14.5-30.7a28.8 28.8 0 0 0 2.6-15.6l-1.3-11.9c-.2-2.3 0-5 .5-7.4l5.3-21.1a21.6 21.6 0 0 1 43.1-1.3v1.5l3.7 9.3c1.3 3.4 2.4 6.9 2.7 10.6l1.5 14.5c0 1.3.3 2.6.6 3.7l6.8 33.6c.3 1.6.8 3.1 1.6 4.7l3.7 7.7a8 8 0 0 1-.8 7.7l-1.3 2a8.3 8.3 0 0 1-6.9 3.8l-71-.6a6.4 6.4 0 0 1-5.6-3.1c-.8-2.4-1-5.3.3-7.4Zm-19.6-615.3 16.1-86.7c3-37 22-71.9 59.5-71.9a71.2 71.2 0 0 1 70.8 71.6s2.7 23.5-25.3 71.1c-2.4 4-10.6 35.7-16 68.5-8.4 54.7-19 122-19 122-.5 4-1 7.8-1 11.7v13.8c.5 19-14.8 34.8-33.8 35.4a34.7 34.7 0 0 1-35.4-34v-4.7a251 251 0 0 0-1.9-31.5l-11-88c-3-25.6-4-51.5-3-77.4Z"/>
		<path fill="#F68B62" d="M909.6 1599.2s3.7 32.2 3.7 41.4c0 3.7-8.2 11.1-11.3 18.6-3 7-4.5 15-5 22.7h-3c-1-9.3 0-18.5 3-27.3 4.2-12.1 9.7-18.7 8.7-19.8-4.8-4.7 4-35.6 4-35.6Zm37.8 60.5s-18.5-32.8-4.7-40.2c5.5-3 3.4 8.5 3.4 8.5l1.3 31.7Z"/>
		<path fill="#F9A97E" d="m1091.2 1672.4-14.3-31c-2.3-5-3.1-10.3-2.3-15.6l1.3-11.8c.3-2.4.3-5-.5-7.5l-5.3-21.1a21.5 21.5 0 0 0-43.1-.3l-4 9.3a37.3 37.3 0 0 0-2.6 10.3l-1.6 14.5c-.3 1.4-.3 2.7-.5 3.7l-7.4 33.6c-.3 1.6-1 3.2-1.6 4.8l-3.7 7.6c-1.3 2.4-1 5.3.5 7.7l1.3 2.1a8.3 8.3 0 0 0 6.9 3.7l71.1.3c2.4 0 4.5-1.4 5.5-3.2a7.6 7.6 0 0 0 .3-7.1Zm25.4-615.6-13.5-89.3c-2.4-37-23-69.8-60.8-69.8a71.5 71.5 0 0 0-71.6 70.8s-3 23.5 24.6 71.4c2.4 4 10.3 35.7 15.3 68.7l18 122.4c.5 4 .8 7.6.8 11.6v13.8a34.6 34.6 0 1 0 69.2 2v-5c0-10.5.8-20.8 2.1-31.4l12-88c3.4-25.4 4.7-51.3 3.9-77.2Z"/>
		<path fill="#F9A97E" d="m1106.3 1345.7-7.7-88.3a34.6 34.6 0 0 0-69.3-.3l1.4 46.8c0 3.5 0 7.2-.8 10.6l-9.8 61c-1 7-1.6 13.8-1.3 20.7l8 189.5a21.5 21.5 0 0 0 43 .2l15.9-105.2 18.2-98a116 116 0 0 0 2.4-37Z"/>
		<path fill="#F68B62" d="M1060.6 1600s-4 32.2-4 41.4c0 3.7 8 11.1 11 18.8a67 67 0 0 1 4.9 22.7h2.9a63 63 0 0 0-2.7-27.2c-4.2-12.2-9.8-18.8-8.4-20 4.7-4.8-3.7-35.8-3.7-35.8Zm-38.4 60.2s18.8-32.5 5.3-40c-5.5-2.8-3.4 8.5-3.4 8.5l-1.9 31.5Zm31.2-1276.3 3.4-2.1a7.7 7.7 0 0 1 10.1 1.6c1 1 1.6 2.6 1.3 4v2.6a57.7 57.7 0 0 1-6 24l-.3.5a58.3 58.3 0 0 1-6.4 15.9c-1.5.3-3.1 0-4.2-.8-.5-.3-.8-.8-.8-1.6l1.3-42c.3-.5.8-1.6 1.6-2.1Zm-125.8-.5-3.4-2.2a7.7 7.7 0 0 0-10 1.6 4.2 4.2 0 0 0-1.4 4v2.6c.3 8.5 2.1 16.7 5.8 24l.3.6c.5 2.1 4.7 15.3 6 15.9 1.7.2 3 0 4.3-.8.5-.3.8-.8.8-1.6l-1-42c0-.6-.6-1.6-1.4-2.1Z"/>
		<path fill="#F9A97E" d="M1042.6 513.4a16 16 0 0 1-8.5-10.8l-7.9-38.6-72.2-.3-8.2 38.6c-1 4.7-4.2 8.4-8.4 10.6l105.2.5Z"/>
		<path fill="#F9A97E" d="M1052.6 318.9c-9.5-14.3-27.2-28.8-60-28.8-40.1-.3-57.9 21.1-65.5 37.8-4 8.7-5.8 18.5-5.3 28.2.3 8.5 1 21.2 2.4 33.9 2 20 5.5 39.6 5.5 39.6a55.2 55.2 0 0 0 18.8 34.9c5.8 5.3 11.9 9.8 18.5 14.3a88.3 88.3 0 0 0 16.4 7.1 26.3 26.3 0 0 0 17.4-.3 75 75 0 0 0 14-6.6c7.7-5.3 14.8-11.3 21.2-18a53 53 0 0 0 14-24.3l9.5-44.9 3.2-32.5a64 64 0 0 0-10-40.4Z"/>
		<path fill="#754C29" d="M1064.3 399.2v-.3l12.4-37.5c.5-3.2.5-6.6 0-9.8l-2.4-15.8c-.3-1.9-.3-3.5.3-5a18 18 0 0 0-1-12.7l-9.3-18.8a30.1 30.1 0 0 0-5.3-7.7l-5.3-5.8a37 37 0 0 0-4.2-3.7l-4-2.9a85.4 85.4 0 0 0-33-15l-3.2-.8a85.3 85.3 0 0 0-31.7-1.1l-22 3.2c-2.6.5-5.3 1-7.6 2.4l-10.3 4.7a8.9 8.9 0 0 0-5 7.4v.3c0 1.3-.9 2.4-2.2 2.9l-3.4 1a9.2 9.2 0 0 0-5.8 5L911 312.9c-2.2 5-3.2 10.6-3.2 16.1l.3 12.2c0 1.8.2 3.7.5 5.5l3.7 22.7v.3l2.4 21.7 1 2.6c1.9 4.5 3.2 9.3 3.5 14.3v.3l16.3 34.6c0 .3.3.5.3.8l13 20.6c3.7 6 9 10.8 15.6 13.7l12.4 9.3a9.8 9.8 0 0 0 9-.3l4-2c.5-.4 1.2-.6 1.8-.4l9.2 2.7c.6 0 1 0 1.6-.3l11.6-4.5a32.6 32.6 0 0 0 17.2-15.3l9.8-17.4c1-1.4 1.8-3 2.4-4.3 1.6-5 8.4-14.5 9.5-17.4.3-.5.3-1 .5-1.6l10.9-27.5Z"/>
		<path fill="#F9A97E" fill-rule="evenodd" d="m824.3 212.4 36 .5-1.7-42.8 7.2-5.9 13.4-18.2 9.8-17.4 11.7-11.7c.5-.5.7-1 1-1.8 0-.8-.5-1.3-1-1.9-4.8-4.7-14.8.3-18.8 5.9l-8.5 12.1-4.5-.3-3.1-15.3a38 38 0 0 0-3.2-15.3c-3.4-7.4-8.5.8-8.5.8l-19.5-.5-8.5 5.8-9.5 6.8a7.9 7.9 0 0 0-3.2 7.4L819 153l5.5 16.9-.2 42.6Z" clip-rule="evenodd"/>
		<path fill="#F9A97E" fill-rule="evenodd" d="m837.5 103.5 3.4-55.8c0-2.4 1.9-4 4.2-4.2h.8c1.4 0 2.7.5 3.7 1.5 1.1 1.1 1.6 2.4 1.4 3.7l-2 58.3-11.6-3.4Z" clip-rule="evenodd"/>
		<path fill="#F9A97E" fill-rule="evenodd" d="m847.3 106.9 4.2-56.8c.3-1.4.8-2.7 1.6-3.7a4 4 0 0 1 5.8.2c.5.6.8 1 .8 1.6 1 3.2.8 9 1.3 10.9l4 48.8-17.7-1Zm-23.6 4.2 7.2-60.8c.2-2.3 2-4.2 4.5-4h.5c1.3 0 2.4.9 3 1.7.7 1 1 2 1 3.4l-1.9 52.2-14.3 7.5Z" clip-rule="evenodd"/>
		<path fill="#F9A97E" fill-rule="evenodd" d="m813.4 119.5 6.4-47.5c-.3-2.6 1.3-5 3.7-5a3.9 3.9 0 0 1 4.2 3.7v1l-1.8 38.6-12.5 9.2Z" clip-rule="evenodd"/>
		<path fill="#FBBA97" fill-rule="evenodd" d="M849.1 50.6c.3-1 .3-2.4 0-3.4 0 1 0 2-.3 3.1a3.2 3.2 0 0 1-4 2.7 3.7 3.7 0 0 1-2.8-3v-3.4a8.8 8.8 0 0 0 0 3.7c.2 2.1 1.8 3.5 4 3.2 1.8 0 3.1-1 3.1-2.9Zm10.3 2.9c.3-1 .6-2.1.6-3.2 0 .8-.3 1.9-.6 2.7a3.6 3.6 0 0 1-4.2 1.8 3.4 3.4 0 0 1-2.1-3.1l.2-3c-.2 1.1-.5 2.2-.5 3.5-.3 1.8 1.3 3.4 3.2 3.7 1.6 0 2.9-1 3.4-2.4ZM825.3 73c.3-1 .6-1.8.6-2.8 0 .7-.3 1.8-.6 2.6-.5 1.6-2 2.1-3.7 1.6-1.3-.5-1.8-1.6-1.8-3a2489.8 2489.8 0 0 0-.3.5 3 3 0 0 0 2.7 3.5c1.3.3 2.9-.8 3.1-2.3Zm73.7 41.3s-9.4.5-6.5 8.2c-.3-1.9-.8-6.4 6.6-8.2Zm-60.5-61.1c.3-1 .3-2.3 0-3.4 0 1 0 2.1-.2 3.2a3.2 3.2 0 0 1-4 2.6 3.7 3.7 0 0 1-2.9-2.9v-3.4a8.8 8.8 0 0 0 0 3.7c.3 2 1.9 3.4 4 3.1 1.8 0 3.1-1 3.1-2.9Z" clip-rule="evenodd"/>
		<path fill="#F9A97E" fill-rule="evenodd" d="m1162.3 210.2-36 .6 1.7-42.9-7.2-5.8-13.5-18.2-9.7-17.4-11.7-11.7c-.5-.5-.8-1-1-1.8 0-.8.5-1.3 1-1.9 4.8-4.7 14.8.3 18.8 5.8l8.5 12.2 4.5-.3 3.1-15.3c0-5.3 1-10.6 3.2-15.3 3.4-7.4 8.5.8 8.5.8l19.5-.6 8.5 5.9 9.5 6.8a7.9 7.9 0 0 1 3.2 7.4l-5.6 32.3-5.5 16.9.2 42.5Z" clip-rule="evenodd"/>
		<path fill="#F9A97E" fill-rule="evenodd" d="m1149.4 101-3.5-55.7c0-2.4-1.8-4-4.2-4.2h-.8c-1.3 0-2.6.5-3.7 1.6-1 1-1.6 2.3-1.3 3.7l1.8 58.1 11.7-3.4Z" clip-rule="evenodd"/>
		<path fill="#F9A97E" fill-rule="evenodd" d="m1139.6 104.5-4-56.8a9.3 9.3 0 0 0-1.6-3.7 4 4 0 0 0-5.8.3c-.5.5-.8 1-.8 1.5-1 3.2-.8 9-1.3 10.9l-4.8 50.8 18.3-3Zm23.5 4.2L1156 48c-.3-2.4-2.2-4.3-4.5-4h-.5c-1.4 0-2.4.8-3 1.6-.8 1-1 2-1 3.4l2 52 14.1 7.7Z" clip-rule="evenodd"/>
		<path fill="#F9A97E" fill-rule="evenodd" d="m1173.2 116.8-6.4-47c0-2.6-1.3-5-3.7-5-2.1 0-4.2 1.7-4.2 4v.8l1.8 38.6 12.5 8.6Z" clip-rule="evenodd"/>
		<path fill="#FBBA97" fill-rule="evenodd" d="M1137.5 48.2c-.3-1-.3-2.4 0-3.4 0 1 0 2.1.2 3.2a3.2 3.2 0 0 0 4 2.6 3.7 3.7 0 0 0 2.9-3c.3-1 .3-2 0-3.3.3 1.3.3 2.6 0 3.7 0 2-1.8 3.4-4 3.4a3 3 0 0 1-3.1-3.2Zm-10.1 2.9c-.2-1-.5-2-.5-3.1 0 1 .3 1.8.5 2.9a3.6 3.6 0 0 0 4.3 1.8 3.4 3.4 0 0 0 2-3.2l-.2-2.9c.3 1 .5 2.4.5 3.5 0 1.8-1.3 3.4-3.1 3.4-1.6 0-3.2-.8-3.5-2.4Zm33.9 19.6c-.3-1-.6-1.9-.6-3 0 .9.3 2 .6 2.7.5 1.6 2 2.1 3.7 1.6 1.3-.5 1.8-1.6 1.8-2.9 0-.8-.3-1.9-.5-2.6l.8 3.1a3 3 0 0 1-2.7 3.5c-1.3.2-2.6-.8-3.1-2.4Zm-73.8 41.5s9.5.5 6.6 8.2c.3-1.9.8-6.4-6.6-8.2Zm60.5-61.3c-.2-1.1-.2-2.4 0-3.5 0 1 0 2.1.3 3.2a3.2 3.2 0 0 0 4 2.6 3.7 3.7 0 0 0 2.9-2.9 11.5 11.5 0 0 1 0 .3c0 2.1-1.9 3.4-4 3.4a3 3 0 0 1-3.2-3.1Z" clip-rule="evenodd"/>
		<path fill="#FCCB0B" d="M1149.1 568.9c2.1-15 22-78 28.3-104.1 4.2-18 11.6-54.5 13.7-73 1.6-14.5 2.7-52.8 3-66 0-3-.3-5.9-.6-8.8-2.6-15.6-12.4-69.2-17.2-89-4.2-16.7-13-62.7-13-62.7a54.5 54.5 0 0 0-37.7 5.6s1.3 51.2.5 105.1c-.3 15.4 7.7 60.6 7.7 60.6s-18.3 79.5-26 105.4c-5 17.2-18.4 52.4-36.7 61.3-7.9 4-23 10.6-23 10.6l-115-1.8s-22.4-5-29.5-12c-12-11.3-25.7-43.8-30.4-59.7-8-25.6-23.8-104.4-23.8-104.4s6.6-46 7.6-61.5c1.9-23.8 3.5-95.2 3.5-95.2-3.7-5-9-8.7-14.8-10.6-9.3-2.9-21.4 0-21.4 0s-13.2 39.7-17.5 57.1c-5 20.1-14.2 75-16.9 91.2-.5 3-.8 6-.8 9.3 0 13.2 0 50.7 1.6 64.7 1.6 16.7 8.2 50 11.6 66.4 5.8 26.7 25.1 94 25.4 106.2 1 56.6 50 195.3 48.6 209-1.3 13.8 5 14 1.9 21.7-3.2 7.7 1 26-1.6 31.2-2.6 5.3 3.2 6.1-.3 15.4-3.4 9.2 2.7 25.9-1.8 40.4s-2.1 29.9-2.1 36.5c0 6.6-3.2 8.2-3.2 19.8-.3 10.6-1.3 21.1-3.2 31.7-1 .5-1.3 1.9-.8 3v.2c-1 5.3-1.3 10.6-.8 15.8 0 0 24.6 14.3 51.8 14.3l50.3-.5c14.5.5 29.8.8 46.2.3 14.8.2 30.4.5 45.7 1 27.5.8 51.6-13.7 51.6-13.7.8-5 .5-10.3-.3-15.4 0 0 2.1-.8-.8-3.4a184.3 184.3 0 0 1-2.6-32c0-11.6-3-13.2-3-19.8 0-6.6 2.7-22-1.5-36.5s2.1-31.2-1.3-40.4c-3.5-9.3 2.3-10-.3-15.3-2.6-5.3 2.1-23.6-1.3-31.2-3.5-7.7 3.1-8 1.8-21.7s44.4-176.3 48.4-205.1Z"/>
		<path fill="#FCCB0B" d="m1047.9 514.4-12.7-8.7c-16.7 6.1-32 5.3-45.2 5.3a168 168 0 0 1-45.7-5.5l-11.4 7.1c-.8 5.5 15.6 20.6 57.9 20.6 44.7.3 57-14 57-18.8Z"/>
		<path stroke="#ED1C24" stroke-miterlimit="10" stroke-width="1.8" d="M933.2 512.6c7.1 8.2 31.7 18 56.8 18 40.2 0 58.1-16.2 58.1-16.2"/>
		<path fill="#231F20" fill-opacity=".3" d="M1056.6 1002.4c18.5 1.3 35.4-4 54-13.5a50 50 0 0 0-.3-15.4s2-.8-.6-3.4a184.4 184.4 0 0 1-2.6-32c0-11.6-3-13.2-3-19.8 0-6.6 2.7-22-1.5-36.5-1.6-6.8-2.1-14-1-21.1-11.7 20 3.4 30.6-3.3 48.6-7 19.6 4.3 24 4.5 34.6.3 10.6-2.9 18.3 1.1 23.3s6.6 14 5.3 14c-6.4-.3-2.4 7.7-10.9 5.3-8.4-2.4-14.5 2.1-10 4.5-.8 0-9 8.7-31.7 11.4ZM898 1000c-4-2.1-6.9-10-6.6-13.8.3-8.7-7.7-13.7-16.1-9.8-8.5 4-7.7-3.7-1-12.6 6.5-9 10.5-12.7 1.5-29.1 0 0-4.2-10 1.6-32 4.2-16.1 3.4-27-1.3-37.3.2 5.3-.3 10.6-1.6 15.6-4.5 14.3-2.1 29.9-2.1 36.5 0 6.6-3.2 8.2-3.2 19.8a215 215 0 0 1-3.2 31.8c-1 .5-1.3 1.8-.8 2.9v.2c-1 5.3-1.3 10.6-.8 15.9 10.6 5.3 22 9.5 33.6 11.9Zm-14.8-200.4c9.3-7.1-7.7-6.3-6.3-32 0 2.2-.3 3.8-.3 5-1.6 13.8 5 14 1.9 21.7a37 37 0 0 0-1.4 13.3c1.4-3.5 3.5-6.1 6.1-8Zm-7.9 47.6c1.8-2.9 4.2-5.5 7.1-7.4 8.5-5.8-.2-9.2-5-18a7 7 0 0 1-.8 3.2c-2.6 5.3 3.2 6-.3 15.3a22 22 0 0 0-1 7Zm218.8-46.8c-9.2-7.4 8-6.3 6.6-32 0 2.2.3 3.7.3 5 1.3 13.8-5.3 14-1.9 21.7 1.4 4.3 1.6 8.8 1.1 13.3a20 20 0 0 0-6-8Zm7.4 48.1a23.9 23.9 0 0 0-7.1-7.4c-8.5-6 .3-9.2 5-18 0 1.1.3 2.2.8 3.2 2.6 5.3-3.2 6.1.3 15.4.8 2 1 4.4 1 6.8Z"/>
		<path fill="#EC2227" fill-rule="evenodd" d="m871.3 924.6 116.6 1.1 117 1.3c.8 3.7 3.8 13.8 4.5 20.1 0 1 .3 1.9.3 3 6 71.8 10.8 78.7 26.2 243.3l-132.7 16.7-15.9-129.3-17.4 129.3-132.4-18c16.4-134.8 18.5-148.5 29.3-243.7.3-2.9-.2-5.3.3-8.4.5-3.2 1.6-6.4 2.4-9.3l1.3-4.5.5-1.6Z" clip-rule="evenodd"/>
		<path fill="#EC2227" d="M1076.8 598h14.9v4.3h-9.4v4.2h8.7v4.3h-8.7v4.8h9.7v4.4h-15.2v-22Zm-13.6 22.4c-1.6 0-3-.2-4.2-.6a7 7 0 0 1-4.5-4.6c-.4-1-.5-2.3-.5-4V598h5.5v13.5l.1 1.9.7 1.1 1.3.8a4.8 4.8 0 0 0 3.3 0 3 3 0 0 0 1.2-.8l.7-1.1.2-1.9V598h5.5v13.3c0 1.6-.2 2.9-.6 4a7 7 0 0 1-4.5 4.5 13 13 0 0 1-4.2.6Zm-20 0c-2 0-3.9-.5-5.5-1.3-1.7-1-3-2.2-4-4-.9-1.6-1.4-3.7-1.4-6.1 0-2.4.5-4.4 1.6-6.1 1-1.8 2.3-3 4-4a11.6 11.6 0 0 1 12.4 1.2c.6.5 1 1 1.2 1.3l-2.7 3.6a6 6 0 0 0-3-2.2c-.6-.3-1.3-.4-2.1-.4-1.1 0-2.1.3-3 .8a5 5 0 0 0-2 2.3c-.5 1-.7 2-.7 3.4 0 1.3.2 2.5.7 3.5a5 5 0 0 0 2 2.3 6.4 6.4 0 0 0 8.2-1.8l2.7 3.7c-.4.6-1 1.2-1.8 1.8-.7.5-1.7 1-2.8 1.4a12 12 0 0 1-3.8.6Zm-21.6 0a15 15 0 0 1-4.7-.8c-1.5-.6-2.8-1.4-3.8-2.3l2.5-4a11 11 0 0 0 2.8 1.8 8 8 0 0 0 3.2.7 5 5 0 0 0 2.5-.5c.6-.3.8-.8.8-1.4 0-.4 0-.8-.4-1l-.7-.7-1-.4-2.1-.8c-.4 0-.7-.2-.9-.3l-.6-.2a10 10 0 0 1-3-1.6 5.4 5.4 0 0 1-1.5-1.8 6 6 0 0 1-.6-2.8 6.3 6.3 0 0 1 2.6-5c.8-.6 1.6-1 2.5-1.2a12.1 12.1 0 0 1 6.4 0 13 13 0 0 1 4.7 2.2l-2.2 3.8a8.1 8.1 0 0 0-2.5-1.6c-1-.4-2-.6-3-.6s-1.8.2-2.3.5c-.5.2-.8.7-.8 1.3 0 .4.1.7.4 1l.8.6a45 45 0 0 0 4.6 1.7c1.3.4 2.3 1 3 1.6a5.4 5.4 0 0 1 2.1 4.6c0 2.1-.8 3.9-2.3 5.2-.8.6-1.7 1-2.7 1.5-1 .3-2.3.5-3.8.5ZM996.4 598h14.8v4.3h-9.4v4.2h8.8v4.3h-8.8v4.8h9.8v4.4h-15.2v-22Zm-20.9 0h8.7c2.6 0 4.6.5 5.9 1.5a6.4 6.4 0 0 1 2.6 5.3 7 7 0 0 1-.8 3.4 6.6 6.6 0 0 1-3.4 2.8l5.5 9h-6.2l-4.6-8H981v8h-5.5v-22Zm8.3 9.9a4 4 0 0 0 2.3-.6c.4-.3.6-.6.8-1a3 3 0 0 0 0-2.6c-.2-.4-.4-.7-.8-1-.6-.3-1.3-.5-2.3-.5H981v5.7h2.8Zm-31.5-9.9h14.3v4.3h-8.8v5h8v4.3h-8v8.4h-5.5v-22Zm-20.9 0h8.7c2.6 0 4.6.5 5.9 1.5a6.4 6.4 0 0 1 2.6 5.3 7 7 0 0 1-.8 3.4 6.6 6.6 0 0 1-3.4 2.8l5.5 9h-6.2l-4.6-8H937v8h-5.5v-22Zm8.3 9.9a4 4 0 0 0 2.3-.6c.4-.3.6-.6.8-1a3 3 0 0 0 0-2.6c-.2-.4-.4-.7-.8-1-.6-.3-1.3-.5-2.3-.5H937v5.7h2.8Zm-21.9 12.5c-1.6 0-3-.2-4.2-.6a7 7 0 0 1-4.5-4.6 14 14 0 0 1-.5-4V598h5.5v13.5c0 .8 0 1.4.2 1.9.1.4.3.8.7 1.1.3.3.7.6 1.2.8a4.8 4.8 0 0 0 3.3 0 3 3 0 0 0 1.2-.8c.3-.3.6-.7.7-1.1l.2-1.9V598h5.5v13.3a13 13 0 0 1-.5 4 7 7 0 0 1-4.5 4.5c-1.2.4-2.6.6-4.3.6Zm-21 0a15 15 0 0 1-4.7-.8c-1.5-.6-2.8-1.4-3.8-2.3l2.6-4a11 11 0 0 0 2.7 1.8 8 8 0 0 0 3.2.7 5 5 0 0 0 2.5-.5 1.5 1.5 0 0 0 .5-2.4l-.8-.7-1-.4-2.1-.8a374.5 374.5 0 0 1-1.5-.5 10 10 0 0 1-3-1.6 5.5 5.5 0 0 1-1.5-1.8 6 6 0 0 1-.6-2.8 6.3 6.3 0 0 1 2.6-5c.8-.6 1.6-1 2.5-1.2a11.8 11.8 0 0 1 6.4 0 12.9 12.9 0 0 1 4.7 2.2l-2.1 3.8a8.2 8.2 0 0 0-2.6-1.6c-1-.4-2-.6-3-.6s-1.8.2-2.3.5c-.5.2-.7.7-.7 1.3 0 .4 0 .7.3 1l.8.6a99.9 99.9 0 0 0 4.7 1.7c1.2.4 2.2 1 3 1.6a5.8 5.8 0 0 1 2.1 4.6c0 2.1-.8 3.9-2.4 5.2-.7.6-1.6 1-2.7 1.5-1 .3-2.3.5-3.8.5Zm12.8-279.6c-22.2 1.3-43.3 9-61.5 22a17 17 0 0 0-7.4 8.7c-3 10.3 9.5 16.9 18.7 18.7 82.2 14.6 155.2 25.1 236.8 6.9 9-2.1 29.9-4.2 36.5-11.4 6.6-7.1 9.5-16.4 3.7-24.5-3.7-5-9.8-7.2-15.3-8.5a328 328 0 0 0-48.1-9"/>
		<path fill="#D32027" d="M1086.7 345.3s-10.5-71.1-11.9-72.2c-1.3-1-22.2-3.1-27-1.5-23.5 7.4-28.5 13.4-42.8 16.3l-.2-1.5c-33 1.3-35.7-8.8-67.4-19.9-4.8-1.6-21.2 1.4-21.2 5 0 13.3-8.4 69.8-8.4 69.8-.5 3.5 4.2 5 6 8 2 2.9 6.4 4.2 10.4 5 35.4 9.2 31.7 10.8 69.5 14.5 36.5.8 32.2.3 70.6-8.4 4-.8 15-3.7 17.1-6.4 2.1-2.6 5.8-5.5 5.3-8.7Z"/>
		<path fill="#EC2227" d="M1074.8 274.2c0 9.8-50.7 14.8-87.2 14.8s-70-7.7-70-17.2 34.6-15.3 70.8-15.3c36.2 0 86.4 8 86.4 17.7Z"/>
	</symbol>
	<symbol id="questions-signal4" viewBox="0 0 2080 1880">
		<path fill="#AEE1F0" d="M270 1408c16.2-5.2 35.2-5.8 53.5-6.3 99.2-2.6 199-1.3 298.8 3.9 28.7 1.4 58.7 3 86-.5-1.1-6-4.2-11.8-3.5-17.8 2.3-20.3 42.4-25.6 73.8-25.8a8551 8551 0 0 1 571.9 16.3l66 2c13.9.3 28.4.9 40.5 5.7 12.2 4.8 20.7 15.3 14.4 23-8.3 10.6-36.5 10-41.1 21.6-4.6 11.6 17.3 19.6 34.6 23.5 57.5 12.7 79.5 25.3 137 38 28.1 6.2 74.3 21.2 76.6 40.2 1.7 12 11.8 18.3-4.6 23.5a200 200 0 0 1-53.5 6.3c-99.2 2.5-199 1.3-298.7-4-28.8-1.4-58.7-3-86 .6 1.1 5.9 4.2 11.7 3.5 17.7-2.3 20.3-42.4 25.6-73.8 25.8-190.2 1-381.2-4.5-571.9-16.2l-66-2a124 124 0 0 1-40.5-5.8c-12.2-4.8-20.6-15.3-14.4-23 8.3-10.5 36.5-10 41.1-21.6 4.6-11.5-17.3-19.5-34.6-23.4-57.4-12.8-79.5-25.4-137-38-28.1-6.3-74.3-21.2-76.6-40.3-1.6-12-11.7-18.3 4.5-23.5Z"/>
		<path fill="#FFF2CB" d="M1685.2 1587c-15.7-6.3-34.7-8.3-53-10.1a3921.3 3921.3 0 0 0-298.2-17.4c-28.8-.6-58.7-1-85.8-6.6 1.6-5.8 5.1-11.5 4.8-17.4-.8-20.5-40.4-28.6-71.7-31a8503.3 8503.3 0 0 0-571.7-24.3l-66-2.7c-13.8-.6-28.3-1-40.8 2.9-12.5 3.9-21.6 13.8-16 22 7.6 11 35.8 12.5 39.6 24.3 3.7 11.9-18.7 18.4-36.3 21-58.1 8.6-81 19.6-139.2 28.2-28.6 4.2-75.5 15.9-79.3 34.7-2.5 11.8-13 17.5 2.9 23.8 15.8 6.2 34.6 8.3 53 10 98.7 9.6 198.3 15.4 298.2 17.4 28.7.6 58.6 1 85.7 6.6-1.6 5.8-5 11.7-4.8 17.5.9 20.3 40.5 28.5 71.8 30.9A8524 8524 0 0 0 1350 1741l66 2.7c13.8.6 28.4 1 40.8-2.9 12.5-3.9 21.7-13.8 16-22-7.6-11-35.8-12.5-39.5-24.3-3.7-11.9 18.7-18.4 36.3-21 58-8.6 81-19.6 139.1-28.2 28.6-4.2 75.5-15.9 79.4-34.7 2.4-11.9 12.9-17.5-3-23.7Z"/>
		<path fill="#fff" d="M1687.7 1577.6c-31.8-11.4-67.8-11.8-101.2-14.6a3925.6 3925.6 0 0 0-221.9-12.5c-37.9-1-76.3 0-113.8-7l6.8 12c6-17 7.4-31.3-8.3-43-15.8-11.7-38.3-14.7-57.4-17-66-7.4-133-9.7-199.5-13.2-134.9-7.3-269.9-7.5-404.8-13-27.9-1.1-60.4-7.1-87.5 1.4-13.7 4.4-29.1 17-23.4 32.8 2.7 7.4 9.1 11.5 15.9 14.8 3.3 1.7 23.8 7.6 23.8 10.4 0 8.7-74.3 17.7-82.6 19.6-24.9 5.7-49.6 12-74.7 16.2-22.3 3.6-44.6 7.1-65.7 15.8-15.9 6.6-26.3 14.2-32.3 30.2-6 16-7 25.8 10.6 33 29.7 12 66 11.7 97.4 14.2 36.9 3.2 73.8 5.8 110.7 7.8a3671 3671 0 0 0 115 5c38 1 76.4 0 113.9 7l-6.9-12c-4.4 12.7-8.1 24.5 1.2 36.1 9.2 11.6 26.4 16.6 40.3 19.6 43.6 9.7 90.5 9 135 12a8533 8533 0 0 0 316.9 14.4c51.6 1.4 103.2 1.5 154.8 2.8 24.3.6 48.6 2.5 73 3 16.8.3 36.5.3 50.3-10.7 9-7 14.5-18.5 7.9-29.2a32 32 0 0 0-12.4-10.3c-5.4-3-21.7-5.4-24-10.3-3-6.8 42-12.7 48.4-13.9 20.8-3.9 41.2-9 61.8-13.8 39.5-9.2 84.3-10 120.7-29.4 19.1-10.2 41.8-44.4 14.3-57.8-11.2-5.5-21.2 11.4-9.8 16.9 9.9 4.8-12.3 23-16.4 25a174 174 0 0 1-43.8 13.2c-33.4 6.5-66.5 12.6-99.6 20.3a710 710 0 0 1-49.8 9.7c-13.3 2.2-29.2 4.5-39.8 13.7-19.5 17.3 2.1 32.6 18.1 39.2 4.4 1.7 15.2 3.4 14.2 9.8-1.1 7.8-27.9 7.8-33.2 8-21.7.5-43.6-1.5-65.3-2.4-43.6-1.8-87.2-1.5-130.8-2.5a8435.6 8435.6 0 0 1-409.3-19c-23.5-1.7-47.5-2.2-70.5-6.5-9.1-1.4-18.1-4-26.5-7.9-12.7-6.5-11.2-11.7-6.6-25a9.8 9.8 0 0 0-6.8-12c-54-10.2-110.4-7.1-165.1-9.3-58.7-2.3-117.3-6-176-11-26.8-2.2-58-1.5-83.6-9.8-9.9-3.2-14.4-6-8.5-15.7 5.9-9.6 17.6-14 28.4-17.7 39.8-13.3 83.5-17 124.4-26.8 21.3-5 43-8 64.3-12.4 13.2-2.7 34.7-7.8 38-23.5 2.8-13-8.9-20.7-19-25.2-5.1-2.3-21.7-5.1-20.6-12.4.4-3 13.5-6.4 15.3-6.8 10.2-2.4 21.5-1.3 31.9-1 116.1 4 232.3 5.1 348.4 10 65.6 2.8 131.3 6.3 196.8 10.6 32.5 2 65.3 3.6 97.8 7 11.8 1 23.4 3 34.6 6.3a52.5 52.5 0 0 1 15 6.2c9.5 7 6.3 12.7 2.6 23a9.8 9.8 0 0 0 6.9 12c34.3 6.5 69 6.5 103.7 7.3a3753.5 3753.5 0 0 1 222 11.7c36.5 3 76.4 2.7 111.2 15.1 11.8 4.5 17-14.4 5.1-18.5Z"/>
		<path fill="#F9A97E" d="m1437.8 1238.4-8.8-96a37.6 37.6 0 0 0-75.2 0l1.9 51c0 3.8-.2 7.6-.8 11.4l-10.3 66.5c-1 7.4-1.5 14.9-1.1 22.4l9.5 205.9a23.5 23.5 0 0 0 47 0l16.5-114.3 19.2-107a141 141 0 0 0 2.1-40Z"/>
		<path fill="#F9A97E" d="m1447.7 925.1-17.2-94.3c-2.8-40.1-23.5-78.2-64.3-78.2a77.4 77.4 0 0 0-77.4 77.4s-3 25.7 27 77.5c2.5 4.2 11.5 38.7 16.9 74.3l20.1 133c.7 4.2 1 8.4 1 12.7v14.9a37.6 37.6 0 0 0 75.2 0v-3.3c0-11.3.8-22.7 2.3-34l12.4-95.7c3.6-28 5-56.1 4-84.3Zm-24.5 668.3-15.6-33.4a31 31 0 0 1-2.8-17l1.5-12.9c.3-2.6.2-5.3-.5-7.8l-5.8-23a23.5 23.5 0 0 0-46.9 0l-4.1 10.1a43.4 43.4 0 0 0-3 11.3l-1.7 15.7c0 1.3-.4 2.7-.7 3.9l-7.8 36.4c-.4 1.8-1 3.6-1.8 5.2l-4 8.5c-1.2 2.7-1 5.9.8 8.3l1.5 2.2c1.8 2.5 4.6 4 7.6 4h77.2a7 7 0 0 0 6-3.7 8.6 8.6 0 0 0 .1-7.8Z"/>
		<path fill="#F68B62" d="M1388.7 1515.6s-4 35.2-4 45c0 3.9 8.7 12 12.1 20.2 3.1 7.9 5 16.3 5.4 24.7h3.2c1-10 0-20-3-29.6-4.7-13.1-10.8-20.3-9.4-21.7 5.1-5.2-4.3-38.6-4.3-38.6Zm-41.3 65.6s20.3-35.5 5.4-43.5c-6-3.2-3.7 9.1-3.7 9.1l-1.7 34.4Z"/>
		<path fill="#F9A97E" d="m1166.5 925.1 15.2-97c2.9-40.2 25.5-75.6 66.5-75.6a77.4 77.4 0 0 1 77.4 77.4s3 25.7-27.1 77.5c-2.5 4.2-11.5 38.6-16.8 74.3l-20.2 133a86 86 0 0 0-1 12.7v14.9a37.6 37.6 0 0 1-75.2 0v-3.3c0-11.4-.7-22.7-2.2-34l-12.4-95.7a515 515 0 0 1-4.2-84.2Z"/>
		<path fill="#F9A97E" d="m1176.4 1239 9-95.9a37.6 37.6 0 0 1 75.1 0l-1.8 50.9c-.1 3.8.1 7.7.7 11.5l10.3 66.5c1.1 7.4 1.5 14.9 1.2 22.4l-9.5 205.9a23.5 23.5 0 0 1-47 0L1198 1386l-19.2-106.5a140.6 140.6 0 0 1-2.3-40.4Z"/>
		<path fill="#F9A97E" d="m1191 1594.3 15.7-33.4a31.3 31.3 0 0 0 2.8-17l-1.5-12.8c-.3-2.6-.1-5.3.5-7.8l5.8-23a23.5 23.5 0 1 1 47 0l4 10a42 42 0 0 1 3 11.4l1.8 15.7c0 1.3.4 2.7.6 3.9l7.8 36.5c.4 1.8 1 3.5 1.8 5.2l4 8.3a8 8 0 0 1-.8 8.2l-1.5 2.2a9.3 9.3 0 0 1-7.6 4h-77a6.8 6.8 0 0 1-6-3.6 8.7 8.7 0 0 1-.3-7.8Z"/>
		<path fill="#F68B62" d="M1224.8 1515.6s4 35.2 4 45c0 3.9-8.7 12-12.1 20.2a78 78 0 0 0-5.4 24.7h-3.2c-1.1-10 0-20 3-29.6 4.7-13.1 10.7-20.3 9.4-21.7-5.2-5.2 4.3-38.6 4.3-38.6Zm41.2 65.6s-20.3-35.5-5.4-43.5c6-3.2 4 9.1 4 9.1l1.4 34.4Z"/>
		<path fill="#F9A97E" d="M1249.8 335c4.8-2.1 8.2-6.5 9.3-11.6l8.8-42h78.5l8.8 42c1 5.1 4.5 9.5 9.3 11.7h-114.7Z"/>
		<path fill="#F9A97E" d="M1240.1 123.6c10.4-15.7 29.7-31 65.4-31 43.7 0 62.8 23.4 71 41.4a66 66 0 0 1 5.8 30.6 691 691 0 0 1-2.7 36.9c-2.3 21.8-6.2 43-6.2 43a59.1 59.1 0 0 1-20.6 37.8 179.2 179.2 0 0 1-20.3 15.3 88.7 88.7 0 0 1-17.7 7.6c-6.2 2-12.8 2-19-.3a73.5 73.5 0 0 1-15-7.3 158.9 158.9 0 0 1-22.7-19.5 58.6 58.6 0 0 1-15.2-26.4l-10.1-49-3.4-35.2a67 67 0 0 1 10.7-44Z"/>
		<path fill="#F68B62" d="m1238.7 194.4-3.6-2.2a8.7 8.7 0 0 0-11 1.7 6.2 6.2 0 0 0-1.6 4.3v3a63 63 0 0 0 6.6 26.2l.3.7c.5 2.5 5 16.8 6.8 17.3 1.5.5 3.3.1 4.6-.8.5-.4.8-1 .8-1.7l-1.3-45.5c0-1.2-.6-2.3-1.6-3Zm136.9 0 3.6-2.2a8.7 8.7 0 0 1 11 1.7 6 6 0 0 1 1.5 4.3v3a63 63 0 0 1-6.5 26.2l-.3.7c-.6 2.5-5.1 16.8-6.8 17.3-1.6.5-3.3.1-4.6-.8a2 2 0 0 1-.8-1.7l1.2-45.5c0-1.2.7-2.3 1.7-3Z"/>
		<path fill="#F9A97E" d="m1882.5 327-2.9 1.8c-3.5 2.2-6.8 5-9.6 8.1l-7.4 8.5c-3 3.3-7 10.6-11 12.6l-7.2 4c-10.1 3.2-16 9-14 19.8a21.9 21.9 0 0 0 25.2 17.8l2-.4 17.2-4c5-1 10-1.9 15-2.3 0 0 46-5 48.3-8.4l-3.3-5c-1.3-2-2.2-4.3-2.6-6.7l-2-11.3c-.5-3.1.1-6.4 1.8-9.2l1.3-2.9a6 6 0 0 0-.7-6.6c-1.4-1.6-10.2-3.2-16.4-2.5-5.4.6-10.9 1-10.9 1l-3.3.4c-.5-.3-.8-.9-.6-1.4.7-2.1.3-4.5-1.1-6.2l-6.6-6.8a18.2 18.2 0 0 0-11.2-.3Z"/>
		<path fill="#F9A97E" d="m1929.7 325.3-17.8 2-23-.8a10.1 10.1 0 0 0-2.6 20h2.6a43 43 0 0 0 18.1-4.4l1.9-1c3.2-1.2 6.4-2.2 9.7-3l8.3-2.5c3.7-1 6-4.8 5.2-8.6a2.3 2.3 0 0 0-2.4-1.7Zm4.5 48.7c-.6-.2-1.3-.2-2 0a6 6 0 0 0-4.4 7v.2a6.2 6.2 0 0 0 8.6 4.5l15.1-5.8a4 4 0 0 0 2.7-4.8 4.5 4.5 0 0 0-4.6-3.6l-5.5 1.2a46 46 0 0 1-9.9 1.2Z"/>
		<path fill="#F9A97E" d="M1932.8 364h-1.4a6.4 6.4 0 0 0-4.3 7.9 6.5 6.5 0 0 0 7.2 5.1l22.8-7.1a4.5 4.5 0 0 0 3-5.6 5.1 5.1 0 0 0-5-4.3h-.4l-8.9 1.8a93 93 0 0 1-13 2.3Zm-10.6-23.7c-3.3.3 0 4 0 7.5a6 6 0 0 0 6.2 5.9h.4l23.2-3.7a4.6 4.6 0 0 0 4-5.1c0-2.6-1.3-5.8-3.5-5.9h-.5l-10.6.9c-3.8.2-19.2.4-19.2.4Z"/>
		<path fill="#F9A97E" d="M1930 352.1a6.7 6.7 0 0 0 1.8 13.2h.3l.7-.2 23.8-5c2.6-.4 4.4-3 3.9-5.6a6 6 0 0 0-5-5.2h-.7l-10 1.6c-4.1.5-14.9 1.2-14.9 1.2Zm19.7 19.2c-2 .7-3.2 3-2.6 5a3.9 3.9 0 0 0 4.4 3.4h.1l11-4a3.6 3.6 0 0 0 2.2-4.3c-.3-1.8-2-3-3.8-2.7h-.2l-11 2.6Z"/>
		<path fill="#F9A97E" d="M1954.6 360.3a5 5 0 0 0-2.9 6 4.5 4.5 0 0 0 5.1 4l13.9-4.5a4 4 0 0 0 2.4-4.7c-.5-2.1-2.5-3.9-4.3-3.5l-13.9 2.8h-.3ZM1952 339c-2.3.1-4.7 3.8-4.5 6.5 0 2.4 2 4.4 4.5 4.5l14.3-2.5a4 4 0 0 0 3.2-4.2c0-2.2-1.2-5.2-3-5l-14.1.6h-.4Z"/>
		<path fill="#F9A97E" d="M1955.1 349.2a5.7 5.7 0 0 0-4 6.5 4.9 4.9 0 0 0 5.4 4.4l15.8-3.5a4 4 0 0 0 3.3-4.5v-.1c-.4-2.3-2.4-4.7-4.5-4.5l-15.7 1.7h-.4.1Zm5.9 19.4a3.2 3.2 0 0 0-2.3 3.9c.4 1.8 2.2 3.5 4 3.1h.4l6.8-2.8a4.2 4.2 0 0 0 2.1-4.2 3 3 0 0 0-3.3-1.9l-7.7 1.9Zm5.4-6c.4 1.8 2 3.2 4 3.1h.1l8.9-3a2.7 2.7 0 0 0 2-3.3c-.5-2.3-2.2-3.7-3.9-3.3l-9.1 1.5c-1.8 1-2.6 3-2 5Zm-3.6-18.8a4 4 0 0 0 3.4 3.7h.4l9.2-1.7c.7 0 4-1.6 4-4.5a3.4 3.4 0 0 0-4-3.2h-9.2c-1.9.3-4 3.5-3.8 5.7Z"/>
		<path fill="#F9A97E" d="M1968 353a4 4 0 0 0 4 3.6h.5l10.1-2.5a3.7 3.7 0 0 0 2.6-3.9c-.6-3.4-3-3.6-3.9-3.5l-10.4.8c-1.8.3-3.3 3.2-2.8 5.5Z"/>
		<path fill="#754C29" d="M1227 211v-.4l-13.3-40.9c-.6-3.6-.6-7.2 0-10.8l2.8-17.2a12 12 0 0 0-.4-5.6c-1.3-4.6-.8-9.5 1.3-13.8l10.3-20.5c1.5-3 3.4-5.8 5.8-8.3l5.9-6.5c1.4-1.5 3-2.9 4.6-4l4.5-3.4a94.6 94.6 0 0 1 36-16.2l3.6-.8c11.3-2.4 23-2.8 34.3-1l24 3.6c2.8.5 5.7 1.3 8.3 2.5l11.2 5.1a9.1 9.1 0 0 1 5.3 8.1c0 1.5 1 2.7 2.4 3.1l3.7 1a10 10 0 0 1 6.4 5.7l11 25.5a40.8 40.8 0 0 1 3.2 17.4l-.3 13.1c0 2-.3 4-.6 6l-4.2 24.6-2.8 23.7-1.2 2.7a50.9 50.9 0 0 0-3.9 15.6l-18.1 37.7c0 .3-.2.5-.4.8l-14 22.4a39.4 39.4 0 0 1-17 14.8l-13.5 10a11 11 0 0 1-9.8-.4l-4.3-2.4c-.6-.3-1.3-.4-2-.3l-10.2 2.7c-.5 0-1.1 0-1.7-.2l-12.6-5c-8-3-14.6-9-18.5-16.6l-11-18.4c-1-1.4-2-3-2.5-4.7-1.8-5.4-9-15.7-10.2-19l-.4-1.6-11.7-28Z"/>
		<path fill="#F68B62" d="m1143.6 971.8-6.1-16.4-12.2-22.3c-2.9-5-1.3-11.4 3.6-14.4a4 4 0 0 1 2.4-.8c10.5-.8 13 2 14.5 5v.2c.2.6.5 1 .9 1.5 2.5 2.7 4 6.2 3.9 10v3.2c-.1 6.3.4 12.6 1.4 18.8l1.7 9.4c0 .6 0 1.2.2 1.8.4 3-1.5 6-4.5 6.8-2.3.8-5-.5-5.8-2.8Zm-16.6-31.2a7.6 7.6 0 0 0-10-2.6 6.9 6.9 0 0 0-3.5 9.1v.3c0 .2 14.6 23.5 14.6 23.5a5.7 5.7 0 0 0 7.6 2c2.8-1 4.4-4 3.9-7v-.4l-5.3-9.7c-2.5-4.4-7.2-15.2-7.2-15.2Z"/>
		<path fill="#F68B62" d="M1138.7 964.3a6.8 6.8 0 0 0-8.5.2 5.1 5.1 0 0 0-1.3 7.2l.1.2 13 12.7c1.7 1.8 4.5 2 6.4.4 2-1.6 3.2-5 1.7-6.7l-11.1-13.7-.3-.3Z"/>
		<path fill="#F68B62" d="M1142.3 979.2a4.2 4.2 0 0 0 .3 6h.2l10 6c1.8 1 3.9.7 5.2-.8a4 4 0 0 0 .2-5.5l-.2-.2-8.8-7.5c-2.5-1-5.4-.2-6.9 2Zm-9.9-39.2c-2-3-5.8-4-9-2.3-3 1.4-4.4 5-3 8.1v.3l.4.5 12.5 20a5 5 0 0 0 6.6 2 6 6 0 0 0 3.4-6.3v-.1l-4.7-8.6c-2-4-6.2-13.6-6.2-13.6Z"/>
		<path fill="#F68B62" d="M1142.3 960.7a6 6 0 0 0-7.5.6 4.5 4.5 0 0 0-.6 6.4l.1.2 12.2 10.4a4.2 4.2 0 0 0 5.7 0c1.8-1.5 2.3-4 1-6l-10.6-11.3-.3-.3Z"/>
		<path fill="#F68B62" d="M1146.2 974a4 4 0 0 0 1.5 5h.2l9.9 3.5a4 4 0 0 0 4.2-1.8c1-1.6.6-3.7-1-4.7l-.2-.2-9.1-4.8a5 5 0 0 0-5.5 3Zm-37.9-46c.2-1.5.6-2.9 1-4.3l9.3-25.8 7-15.7.8-1.4a17 17 0 0 0 2.1-6.4l.6-4.6v-1.6l.5-18a22.3 22.3 0 0 1 15.8-21.6c12.1-4.1 25.3 2 29.9 13.9 1.9 5.2 1.6 11-.7 16l-19.5 44.7a51 51 0 0 0-4.4 19.6l-.3 10c0 2.3-.8 4.5-2.3 6.2a8.4 8.4 0 0 1-7.5 2.9l-3.9-.4a6 6 0 0 0-4.8 1.7l-7.3 7.3a9 9 0 0 1-11.2-3.2l-.6-.8c-3.9-5.4-5.5-12-4.5-18.6Z"/>
		<path fill="#FCCB0B" d="M1173.3 501s7.8 69 7 79.6c-1.8 32.7-.5 67.6-.5 67.6s1.5 38.1 2.5 56.1c1.2 21-.3 54.3 6 74.4 4 12.4-3.9 110.2-3.9 110.2l-61.7-3.1s-7-53.6-8.5-95.3c-1-26.5-.6-53-2.5-83.7-1.5-25-.5-64.6-1-105.6 0 0 2-51 1.5-89.7-.5-41 6.3-134.7 42.2-153.3 23.5-12 91.7-20.8 91.7-20.8L1371 336s84.4 4.6 115 11.3c24.5 5.4 74.7 9.2 99.7 11.7s73.5 8.6 98 7.5c10-.5 29.5-5 39.4-5h126.1c3.3 4.7 5.9 9.9 7.4 15.4 1.7 7.7 2.8 15.6 3.1 23.5 0 0-105 27.4-141.7 29.9-27.9 1.8-57.4-3.3-76.3-.8a661 661 0 0 1-119.4 6.2c-27.6-.5-51.8-1.8-51.8-1.8-11.2 70.4-40.6 173.3-39.4 185.6 1.6 14.8-5.5 15.1-2 23.4 3.6 8.4-1.2 28 1.5 33.8 2.8 5.8-3.5 6.6.3 16.7 3.8 10-3 28.2 1.8 43.9 4.7 15.6 2 32.5 2 39.5 0 7.1 3.3 8.9 3.3 21.5a203 203 0 0 0 3.3 34.6c1.1.6 1.5 2 .9 3 0 .2-.1.2-.2.3a53 53 0 0 1 .8 17.3 129 129 0 0 1-56.4 15.3s-22.3-.6-54.8-.8a647 647 0 0 1-50.1 0c-16 0-33 .4-49.8.8-29.7.7-46.4-5.5-46.4-5.5s-10.8-17-9-26.5c0 0-2.2-.9.8-4 2-11.4 3-23 3-34.6 0-12.6 3.3-14.4 3.3-21.4 0-7-6.4-17.7-1.6-33.3 4.8-15.6-3-9.6-.5-30.6a83.5 83.5 0 0 0 0-28.6c-1-6.3-5.6-23.2-2-31.5 3.5-8.4-.6-29.8 1-44.6 1.5-14.9-2.8-75.8-7-107.2Z"/>
		<path fill="#FCCB0B" d="m1244 336.3 13.9-9.4c18.1 6.8 34.8 6 49.2 6a173 173 0 0 0 49.6-5.7l12.2 7.8c.9 6.2-17.2 22.2-63 22.2-48.4-.2-61.9-15.9-61.9-21Z"/>
		<path fill="#231F20" fill-opacity=".3" d="M1232.3 866.4c-20 1.2-38.5-4.5-58.4-15-.8-5.5-.6-11.2.5-16.7 0 0-2.2-.8.8-4 2-11.4 3-23 3-34.6 0-12.6 3.3-14.4 3.3-21.4 0-7-2.7-24 2-39.6 2.3-7.5-6-231.3-6.6-238.8 12.6 21.8 3.9 249 11.1 268.6 7.7 21.2-4.8 26.2-5 37.7-.1 11.5 3.1 19.9-1.3 25.3-4.3 5.5-7.3 15.3-5.6 15.3 7-.2 2.4 8.1 11.7 5.8 9.4-2.4 15.7 2.3 10.9 4.8 0 .1 8.9 9.7 33.6 12.6Zm172.1-1.8c4.2-2.3 7.5-11 7.4-15a11.5 11.5 0 0 1 17.4-10.7c9 4.4 8.5-4 1.2-13.8-7.2-10-11.4-13.8-1.6-31.3 0 0 4.7-10.8-1.6-34.9-4.6-17.4-3.7-29.4 1.6-40.4-.4 5.7.2 11.4 1.7 16.9 4.8 15.6 2 32.5 2 39.6 0 7 3.3 8.8 3.3 21.4a203 203 0 0 0 3.3 34.6 2.3 2.3 0 0 1 .7 3.4c1.2 5.6 1.5 11.5.8 17.3a132 132 0 0 1-36.2 12.9Zm17.2-217.8c-10-7.8 8.5-6.8 7.2-34.8 0 2.3 0 4 .3 5.5 1.5 14.8-5.5 15-2 23.4a36 36 0 0 1 1.2 14.2 22.5 22.5 0 0 0-6.7-8.3Zm8.4 52a26 26 0 0 0-7.8-8c-9.2-6.6.4-10.1 5.5-19.6 0 1.1.3 2.3.8 3.3 2.8 5.8-3.5 6.6.2 16.7a23 23 0 0 1 1.3 7.6Z"/>
		<path fill="#EC2227" fill-rule="evenodd" d="m1433.8 782.8-126.7.5-127.1.8c-1 3.9-4.2 14.9-5.1 21.6l-.3 3.2c-7 78.2-12.3 85.5-29.6 264.4l144.1 18.7 17.9-140.2 18.1 140.5 144.1-18.7c-17.1-146.6-19.3-161.6-30.5-265-.4-3.2.2-5.8-.3-9.2-.5-3.4-1.9-7-2.7-10l-1.4-5-.5-1.6Z" clip-rule="evenodd"/>
		<path fill="#EC2227" d="M1422.2 441h17.4v5h-11v5h10.2v5h-10.2v5.7h11.4v5.2h-17.8V441Zm-15.9 26.3c-2 0-3.6-.2-5-.7a8.2 8.2 0 0 1-5.3-5.3c-.4-1.3-.5-2.8-.5-4.7v-15.5h6.4v15.8c0 1 0 1.6.2 2.2.1.5.4 1 .8 1.3.4.4.8.7 1.4 1l2 .2c.7 0 1.3 0 2-.3a3 3 0 0 0 1.3-.9c.4-.4.7-.8.8-1.3.2-.6.3-1.3.3-2.2v-15.8h6.4v15.5c0 1.9-.2 3.4-.6 4.7a8.2 8.2 0 0 1-5.3 5.3c-1.4.5-3 .7-5 .7Zm-23.5 0a13 13 0 0 1-6.5-1.6c-1.9-1-3.4-2.5-4.5-4.5-1.2-2-1.7-4.4-1.7-7.3 0-2.7.6-5.1 1.8-7.1 1.2-2 2.7-3.6 4.7-4.6a13.6 13.6 0 0 1 14.6 1.3l1.4 1.5-3.2 4.3a7.2 7.2 0 0 0-3.5-2.6 6.6 6.6 0 0 0-6 .4c-1 .7-1.8 1.6-2.4 2.7a8.9 8.9 0 0 0-.8 4c0 1.6.2 3 .8 4a6.3 6.3 0 0 0 2.3 2.8c1 .6 2.2 1 3.5 1a7.5 7.5 0 0 0 6.2-3.2l3.1 4.5a8 8 0 0 1-2 2c-1 .7-2 1.3-3.4 1.7a14 14 0 0 1-4.4.7Zm-25.3 0a16 16 0 0 1-5.5-1c-1.8-.7-3.3-1.6-4.5-2.7l3-4.6c.9.8 2 1.5 3.2 2 1.3.6 2.6 1 3.8 1a6 6 0 0 0 3-.6c.6-.4 1-1 1-1.8 0-.4-.2-.8-.5-1.1-.3-.4-.6-.6-1-.8l-1.2-.5-2.4-.9a153.2 153.2 0 0 1-1.7-.6c-1.5-.5-2.6-1.1-3.5-1.8a6.5 6.5 0 0 1-1.8-2.2c-.5-.9-.7-2-.7-3.3a6 6 0 0 1 1-3.5 7 7 0 0 1 2.1-2.4c.9-.6 1.8-1 2.9-1.4 1-.3 2.4-.5 4-.5a14 14 0 0 1 6.7 1.7c1 .4 1.7 1 2.3 1.5l-2.5 4.4a9.5 9.5 0 0 0-3-1.8 9.1 9.1 0 0 0-3.5-.7c-1.3 0-2.1.1-2.7.5-.6.3-1 .8-1 1.6 0 .4.2.8.5 1.1l1 .7 1.2.5a36.5 36.5 0 0 0 4.2 1.5c1.4.5 2.6 1.1 3.5 1.9.8.6 1.3 1.3 1.8 2.2.4.8.6 2 .6 3.2 0 2.5-.9 4.5-2.7 6-.9.8-2 1.3-3.2 1.8-1.2.4-2.6.6-4.4.6ZM1328 441h17.3v5h-11v5h10.3v5h-10.2v5.7h11.3v5.2H1328V441Zm-24.5 0h10.2c3 0 5.3.6 6.9 1.8 1 .6 1.6 1.5 2.2 2.6.6 1 .8 2.2.8 3.6 0 1.5-.3 2.8-1 4a7.7 7.7 0 0 1-3.8 3.3l6.4 10.6h-7.3l-5.4-9.5h-2.6v9.5h-6.4V441Zm9.7 11.6c1.2 0 2-.2 2.8-.6.3-.3.6-.7.8-1.2a3.7 3.7 0 0 0 0-3c-.2-.5-.5-.9-.8-1.2-.8-.4-1.7-.7-2.8-.7h-3.3v6.7h3.3Zm-36.9-11.6h16.8v5h-10.4v5.9h9.5v5.1h-9.5v9.9h-6.4V441Zm-24.5 0h10.2c3 0 5.4.6 7 1.8.8.6 1.6 1.5 2.1 2.6a8.3 8.3 0 0 1-.1 7.6 7.7 7.7 0 0 1-4 3.3l6.5 10.6h-7.3l-5.3-9.5h-2.6v9.5h-6.5V441Zm9.8 11.6c1 0 2-.2 2.7-.6.4-.3.7-.7.9-1.2a3.7 3.7 0 0 0 0-3c-.2-.5-.5-.9-1-1.2-.6-.4-1.5-.7-2.6-.7h-3.3v6.7h3.3Zm-25.6 14.7c-2 0-3.7-.2-5-.7a8.1 8.1 0 0 1-5.3-5.3c-.4-1.3-.6-2.8-.6-4.7v-15.5h6.4v15.8c0 1 0 1.6.2 2.2l.8 1.3c.4.4.9.7 1.5 1l2 .2c.6 0 1.3 0 1.9-.3a3.5 3.5 0 0 0 2.2-2.2l.2-2.2v-15.8h6.4v15.5c0 1.9-.2 3.4-.6 4.7a8.2 8.2 0 0 1-5.3 5.3c-1.3.5-3 .7-4.9.7Zm-24.7 0a16 16 0 0 1-5.5-1c-1.8-.7-3.3-1.6-4.5-2.7l3-4.6c.9.8 2 1.5 3.2 2 1.3.6 2.6 1 3.8 1a6 6 0 0 0 3-.6c.6-.4 1-1 1-1.8 0-.4-.2-.8-.5-1.1-.3-.4-.6-.6-1-.8a15 15 0 0 0-1.1-.5l-2.5-.9a153.2 153.2 0 0 1-1.7-.6c-1.5-.5-2.6-1.1-3.5-1.8a6.3 6.3 0 0 1-2.5-5.5 6 6 0 0 1 1-3.5c.5-1 1.2-1.8 2.1-2.4.9-.6 1.8-1 2.9-1.4a14.1 14.1 0 0 1 7.5 0 14.8 14.8 0 0 1 5.5 2.7l-2.5 4.4a9.6 9.6 0 0 0-3-1.8 9.2 9.2 0 0 0-3.6-.7c-1.2 0-2 .1-2.6.5-.6.3-1 .8-1 1.6 0 .4.2.8.5 1.1l1 .7a92.7 92.7 0 0 0 5.4 2c1.4.5 2.6 1.1 3.5 1.9a6.4 6.4 0 0 1 2.4 5.4c0 2.5-.9 4.5-2.7 6-.9.8-2 1.3-3.2 1.8-1.2.4-2.6.6-4.4.6Z"/>
		<path stroke="#EC2227" stroke-miterlimit="10" stroke-width="1.5" d="M1249.8 335c9.4 19.6 22 22.2 56.1 22.1 58.2-.2 63-22.1 63-22.1"/>
		<path fill="#EC2227" d="M1218.7 131.4c-23 1.3-45.2 8.6-64.5 21.3a17 17 0 0 0-7.8 8.4c-3.1 10 9.9 16.5 19.8 18.2 86.5 14.1 163.2 24.3 249.1 6.5 9.5-2 31.3-4.2 38.4-11 7-7 10-16.1 4-24a28.5 28.5 0 0 0-16.3-8.3 388 388 0 0 0-50.5-8.9"/>
		<path fill="#D32027" d="M1405 136s-11.2-69.2-12.5-70.5a95 95 0 0 0-28.5-1.7c-24.6 7.2-30 13.2-45.2 16V78c-34.6 1.3-37.6-8.4-71-19.2-5-1.7-22.3 1.1-22.3 4.9 0 12.8-9 67.8-9 67.8-.5 3.3 4.4 4.8 6.4 7.6 3 2.8 6.8 4.5 10.9 5 37.3 8.9 33.3 10.3 73 14.2 38.4.7 33.8.3 74.3-8.4 4-.8 15.7-3.5 18-6.2 2.5-2.8 6.4-5 6-7.9Z"/>
		<path fill="#EC2227" d="M1392.7 66.7c0 9.4-53.5 14.3-91.7 14.3-38.1 0-73.5-7.3-73.5-16.7 0-9.5 36-15 74.3-15s90.9 7.8 90.9 17.4Z"/>
		<path fill="#F9A97E" d="m550.5 933 17.2-94.3c2.8-40.2 23.4-78.3 64.3-78.3a77.4 77.4 0 0 1 77.4 77.4s3 25.7-27 77.5c-2.6 4.3-11.6 38.7-17 74.3l-20 133c-.7 4.2-1 8.5-1 12.7v15a37.6 37.6 0 0 1-75.3 0v-3.3c0-11.4-.7-22.8-2.2-34.1l-12.4-95.7c-3.7-28-5-56.1-4-84.3Z"/>
		<path fill="#F9A97E" d="m560.3 1246.2 8.8-95.9a37.6 37.6 0 1 1 75.2 0l-1.8 50.8a63 63 0 0 0 .7 11.5l10.3 66.5c1.1 7.4 1.6 15 1.2 22.4l-9.5 206a23.5 23.5 0 0 1-47 0l-16.5-114.3-19.2-106.6a141 141 0 0 1-2.2-40.4Z"/>
		<path fill="#F9A97E" d="m575.1 1601.2 15.7-33.4a31.3 31.3 0 0 0 2.8-17l-1.6-12.9c-.3-2.6 0-5.2.5-7.8l5.8-23a23.5 23.5 0 0 1 47 0l4.1 10.1c1.5 3.7 2.5 7.5 3 11.3l1.7 15.7c0 1.4.4 2.7.7 4l7.8 36.4c.4 1.8 1 3.5 1.8 5.2l4 8.3c1.2 2.6 1 5.8-.8 8.3l-1.6 2.1a9.3 9.3 0 0 1-7.6 4h-77.2a6.8 6.8 0 0 1-6-3.7 8.6 8.6 0 0 1 0-7.6Z"/>
		<path fill="#F68B62" d="M609.5 1523.4s4 35.2 4 45c0 3.9-8.7 12-12 20.2a76 76 0 0 0-5.4 24.8h-3.3c-1-10 0-20.2 3.1-29.7 4.7-13.1 10.7-20.3 9.4-21.6-5.3-5.2 4.2-38.7 4.2-38.7Zm41.2 65.6s-20.2-35.5-5.3-43.5c5.9-3.2 3.7 9.2 3.7 9.2l1.6 34.3Z"/>
		<path fill="#F9A97E" d="m831.6 933-15.2-97.1c-2.8-40.1-25.4-75.6-66.3-75.6a77.4 77.4 0 0 0-77.2 77.5s-3 25.6 27.1 77.4c2.5 4.2 11.5 38.7 16.9 74.3l20.1 133c.7 4.2 1 8.4 1 12.7v14.9a37.6 37.6 0 1 0 75.2 0v-3.2c0-11.4.7-22.8 2.2-34.1L828 1017c3.5-27.9 4.8-56 3.7-84.2Z"/>
		<path fill="#F9A97E" d="m821.8 1247-8.8-96a37.6 37.6 0 1 0-75.2 0l1.8 50.8c.1 3.8 0 7.7-.6 11.5l-10.3 66.5c-1.2 7.4-1.6 15-1.3 22.4l9.6 205.9a23.5 23.5 0 0 0 46.9 0l16.5-114.3 19.2-106.5c2.7-13.3 3.4-26.9 2.2-40.4Z"/>
		<path fill="#F9A97E" d="m807 1602.2-15.6-33.5a31.3 31.3 0 0 1-2.7-17l1.5-12.8c.3-2.6.1-5.3-.5-7.8l-5.8-23a23.5 23.5 0 0 0-47 0l-4 10.1a43.8 43.8 0 0 0-3 11.4l-1.8 15.6c0 1.4-.4 2.8-.6 4l-7.9 36.4a22 22 0 0 1-1.8 5.2l-3.9 8.3c-1.3 2.7-1 5.8.7 8.3l1.6 2.1c1.7 2.5 4.6 4 7.6 4H801c2.5 0 4.8-1.4 6-3.6a8.7 8.7 0 0 0 0-7.7Z"/>
		<path fill="#F68B62" d="M773.4 1523.4s-4.1 35.2-4.1 45c0 3.9 8.8 12 12.2 20.2a78 78 0 0 1 5.4 24.8h3.4c1-10 0-20.2-3.1-29.7-4.6-13.1-10.7-20.3-9.3-21.6 5-5.2-4.5-38.7-4.5-38.7Zm-41.3 65.6s20.3-35.5 5.4-43.5c-5.9-3.2-3.9 9.2-3.9 9.2l-1.5 34.3Z"/>
		<path fill="#F9A97E" d="M748.4 343a16.7 16.7 0 0 1-9.3-11.8l-8.8-42h-78.5l-8.8 42a16.7 16.7 0 0 1-9.3 11.7h114.7Z"/>
		<path fill="#F9A97E" d="M758.3 131.4c-10.4-15.6-29.7-31-65.4-31-43.7 0-62.8 23.4-71.1 41.4a66.9 66.9 0 0 0-5.8 30.6 642 642 0 0 0 9 79.9 59 59 0 0 0 20.6 37.8c6.4 5.6 13.2 10.7 20.3 15.3a88.7 88.7 0 0 0 17.7 7.7c6.2 2 12.8 1.9 18.9-.4a73.5 73.5 0 0 0 15-7.3c8.2-5.8 15.9-12.3 22.8-19.5a59.2 59.2 0 0 0 15.2-26.4l10-49 3.4-35.2a67 67 0 0 0-10.6-43.9Z"/>
		<path fill="#F68B62" d="m759.4 202.2 3.7-2.2a8.7 8.7 0 0 1 11 1.7c1 1.2 1.6 2.7 1.5 4.3v3a63 63 0 0 1-6.5 26.3l-.3.7c-.6 2.4-5 16.7-6.8 17.3-1.6.4-3.3 0-4.6-.9a2 2 0 0 1-.8-1.6l1.2-45.6a4 4 0 0 1 1.6-3Zm-136.8 0L619 200a8.7 8.7 0 0 0-11 1.7 6.3 6.3 0 0 0-1.6 4.3v3c.3 9.2 2.5 18.1 6.6 26.3l.2.7c.6 2.4 5.2 16.7 6.8 17.3a6 6 0 0 0 4.7-.9c.5-.4.8-1 .7-1.6l-1.2-45.6a4 4 0 0 0-1.6-3Z"/>
		<path fill="#F9A97E" d="m115.6 334.8 3 1.8c3.5 2.2 6.8 5 9.6 8.1l7.4 8.5c3 3.3 7 10.6 10.9 12.6l7.3 4c10.1 3.3 15.9 9 14 19.9a21.9 21.9 0 0 1-25.2 17.8l-2-.5-17.3-4c-4.9-1-9.9-1.8-15-2.3 0 0-46-5-48.2-8.4l3.3-5c1.3-2 2.2-4.3 2.6-6.7l2-11.3c.5-3.1-.1-6.4-1.8-9.1l-1.3-3a6.1 6.1 0 0 1 .7-6.6c1.5-1.6 10.2-3.2 16.4-2.4l10.9 1 3.3.3c.5-.3.8-.8.6-1.4A6.3 6.3 0 0 1 98 342l6.6-6.8c3.6-1.3 7.5-1.4 11.1-.3Z"/>
		<path fill="#F9A97E" d="m68.5 333.1 17.7 2 23.1-.8a10.1 10.1 0 0 1 2.5 20h-2.5a43 43 0 0 1-18.1-4.4l-2-1a78.6 78.6 0 0 0-9.6-3l-8.3-2.4a7.5 7.5 0 0 1-5.2-8.7c.3-1 1.3-1.8 2.4-1.7ZM64 381.8h1.9a6 6 0 0 1 4.4 7v.2a6.2 6.2 0 0 1-7 4.9c-.6-.1-1.1-.3-1.6-.6l-15.1-5.8a4 4 0 0 1-2.8-4.7 4.4 4.4 0 0 1 4.6-3.7l5.5 1.2a46 46 0 0 0 10 1.5Z"/>
		<path fill="#F9A97E" d="M65.4 371.9h1.3c3.4 1 5.3 4.5 4.4 7.8a6.5 6.5 0 0 1-7.2 5.1l-22.9-7a4.5 4.5 0 0 1-2.9-5.7 5.1 5.1 0 0 1 4.9-4.3h.4l9 1.8c3 1 9.8 1.9 13 2.3ZM76 348.2c3.2.2 0 3.9 0 7.5a6 6 0 0 1-6.2 5.8h-.4l-23.2-3.6a4.6 4.6 0 0 1-4-5.2c0-2.6 1.3-5.8 3.5-5.9h.5l10.6 1c3.8.2 19.1.4 19.2.4Z"/>
		<path fill="#F9A97E" d="M68.3 360a6.7 6.7 0 0 1-2 13.1h-.2l-.7-.1-23.8-5a5 5 0 0 1-4-5.6 6 6 0 0 1 5.1-5.3h.7l10 1.6c4.1.6 14.9 1.2 14.9 1.2Zm-19.9 19c2.1.8 3.3 3 2.7 5.2a4 4 0 0 1-4.4 3.3h-.1l-11-4a3.6 3.6 0 0 1-2.2-4.3c.3-1.8 2-3 3.9-2.7l11.1 2.6Z"/>
		<path fill="#F9A97E" d="M43.6 368.1a5 5 0 0 1 2.8 6.1 4.6 4.6 0 0 1-5.1 4l-13.8-4.7a4 4 0 0 1-2.4-4.6c.5-2.2 2.5-4 4.3-3.6l13.8 2.8h.4Zm2.4-21.4c2.3.2 4.7 4 4.5 6.6 0 2.5-2 4.5-4.4 4.5l-14.4-2.4a4 4 0 0 1-3.1-4.3c0-2.2 1.1-5.2 3-5l14 .6h.4Z"/>
		<path fill="#F9A97E" d="M43.2 357a6 6 0 0 1 3.9 6.6 4.9 4.9 0 0 1-5.3 4.3l-15.9-3.5a4 4 0 0 1-3.2-4.5c.3-2.4 2.4-4.8 4.5-4.5l15.6 1.6h.4Zm-6 19.4c1.7.4 2.7 2.2 2.3 3.9-.4 1.8-2.2 3.5-4 3.1h-.4l-6.8-2.8a4.2 4.2 0 0 1-2.2-4.2 3 3 0 0 1 3.4-1.8l7.7 1.8Zm-5.5-6a4 4 0 0 1-3.9 3.1h-.3l-8.8-3a2.7 2.7 0 0 1-2-3.2c.5-2.4 2.2-3.8 3.9-3.4l9.1 1.5a4 4 0 0 1 2 5Zm3.6-18.8c0 2-1.5 3.6-3.4 3.7h-.5l-9.2-1.7c-.6 0-4-1.6-4-4.5a3.4 3.4 0 0 1 4-3.2h9.3c2 .3 4 3.5 3.8 5.7Z"/>
		<path fill="#F9A97E" d="M30 360.8a4 4 0 0 1-3.8 3.6h-.3L15.7 362a3.7 3.7 0 0 1-2.5-4c.5-3.4 3-3.5 3.9-3.5l10.3.8c1.7.3 3 3.2 2.7 5.5Z"/>
		<path fill="#754C29" d="M771.1 218.8v-.4l13.4-40.9a32 32 0 0 0 0-10.7l-2.8-17.2c-.3-2-.2-3.8.4-5.6a19 19 0 0 0-1.3-13.9l-10-20.4a41 41 0 0 0-5.9-8.4l-6-6.5a24.7 24.7 0 0 0-4.5-4l-4.5-3.4a94.5 94.5 0 0 0-36-16.2l-3.6-.8a95.8 95.8 0 0 0-34.4-1L652 73a28 28 0 0 0-8.4 2.5l-11.1 5a9 9 0 0 0-5.3 8.1c0 1.5-1 2.8-2.4 3.2l-3.7 1a10 10 0 0 0-6.4 5.6l-11 25.5a40.8 40.8 0 0 0-3.3 17.4l.4 13.2c0 2 .2 4 .5 5.9l4.3 24.6 2.7 23.7 1.3 2.8a51 51 0 0 1 3.9 15.3v.3l18.1 37.6c0 .3.2.5.4.8l14 22.4c4.1 6.5 10 11.6 17 14.8l13.5 10a11 11 0 0 0 9.8-.4l4.3-2.3c.6-.4 1.3-.5 2-.4l10.2 2.7c.6 0 1.1 0 1.7-.2l12.6-5c8-3 14.6-9 18.6-16.5l10.4-19c1.1-1.4 2-3 2.6-4.7 1.8-5.3 9-15.6 10.2-19 0-.5.3-1 .4-1.6l11.8-27.6Z"/>
		<path fill="#F68B62" d="m854.6 979.6 6-16.4 12.2-22.3c3-5 1.4-11.4-3.5-14.4-.7-.5-1.6-.7-2.4-.8-10.6-.7-13 2-14.6 5v.2c-.2.6-.5 1-.8 1.5-2.5 2.7-4 6.3-4 10v3.2c.2 6.3-.3 12.6-1.3 18.8l-1.7 9.4c0 .6 0 1.2-.3 1.8-.4 3 1.6 6 4.5 6.8 2.4.8 5-.4 6-2.8Zm16.4-31.2a7.8 7.8 0 0 1 10.2-2.6c3.5 1.6 5 5.6 3.5 9v.4c0 .3-14.6 23.5-14.6 23.5a5.7 5.7 0 0 1-7.6 2 6.4 6.4 0 0 1-3.9-7v-.4l5.4-9.7c2.4-4.3 7-15.2 7-15.2Z"/>
		<path fill="#F68B62" d="M859.5 972.2c2.5-2 6-2 8.5.2a5.1 5.1 0 0 1 1.1 7.4l-13 12.6a4.7 4.7 0 0 1-6.3.4c-2-1.6-3.2-5-1.7-6.7l11-13.6.4-.3Z"/>
		<path fill="#F68B62" d="M856 987a4.2 4.2 0 0 1-.4 6h-.2l-10.4 6.4c-1.7 1-3.8.6-5.1-.8a4 4 0 0 1 0-5.7l8.8-7.6a5.7 5.7 0 0 1 7.2 1.7Zm9.8-39.2c1.9-3 5.8-4 9-2.3 3 1.4 4.4 5 3 8.1v.3l-.4.5-12.5 20.1a5 5 0 0 1-6.6 1.9 5.6 5.6 0 0 1-3.4-6.2v-.2l4.7-8.5c2-4.1 6.2-13.7 6.2-13.7Z"/>
		<path fill="#F68B62" d="M855.7 968.5a5.9 5.9 0 0 1 7.5.7 4.5 4.5 0 0 1 .5 6.5l-12.2 10.4a4.1 4.1 0 0 1-5.7 0 4.5 4.5 0 0 1-1-6l10.6-11.3.3-.3Z"/>
		<path fill="#F68B62" d="M851.8 981.7a4 4 0 0 1-1.4 5h-.4l-10 3.6a4 4 0 0 1-4.2-1.7 3.4 3.4 0 0 1 1.3-5l9-4.8a5 5 0 0 1 5.7 3Zm38.1-46c-.3-1.4-.6-2.8-1.1-4.1l-9.2-25.7-7.1-15.6-.8-1.5c-1-2-1.8-4.1-2-6.4l-.6-4.6v-1.6l-.5-18c0-9.9-6.4-18.7-15.9-21.6-12-4.1-25.2 2-29.8 14a21.2 21.2 0 0 0 .7 16l19.5 44.6a52.2 52.2 0 0 1 4.4 19.6l.2 10c0 2.3.9 4.5 2.3 6.3a8.5 8.5 0 0 0 7.5 2.8l4-.4a6 6 0 0 1 4.8 1.7l7.2 7.4c4 1.7 8.8.4 11.3-3.3l.6-.8a25.5 25.5 0 0 0 4.5-18.8Z"/>
		<path fill="#FCCB0B" d="M825 508.9s-7.9 69-7.2 79.5c1.8 32.7.5 67.6.5 67.6s-1.5 38.1-2.5 56.2c-1.1 20.8.4 54.2-6 74.3C806 798.9 826.5 892 826.5 892l55.7-3s.2-49 1.8-90.7c1-26.5.7-53 2.5-83.7 1.5-25 .5-64.6 1-105.6 0 0-2-51.1-1.5-89.7.5-41-6.3-134.7-42.2-153.3-23.5-12-91.7-20.9-91.7-20.9L627.2 344s-84.4 4.6-115 11.3c-24.5 5.4-74.7 9.2-99.7 11.8-25 2.5-73.5 8.6-98 7.4-10-.4-29.5-5-39.2-5H149.2c-3.3 4.7-5.8 10-7.4 15.5-1.7 7.7-2.7 15.6-3.1 23.4 0 0 105 27.4 141.7 30 27.9 1.7 57.4-3.4 76.3-.9 39.6 5.7 79.5 7.8 119.4 6.3a2077 2077 0 0 0 51.7-1.8c11.3 70.4 40.7 173.3 39.5 185.5-1.6 14.9 5.5 15.2 2 23.5-3.6 8.3 1.2 28-1.6 33.8-2.7 5.8 3.6 6.6-.2 16.6-3.8 10 3 28.3-1.8 44-4.7 15.6-2.3 32.2-2.3 39.3 0 7.2-3.3 8.9-3.3 21.5-.1 11.6-1.2 23.2-3.3 34.6a2.3 2.3 0 0 0-.7 3.3 53.3 53.3 0 0 0-.8 17.4 129.1 129.1 0 0 0 56.4 15.2s22.3-.6 54.8-.8c15.6.6 32.5.7 50.1 0 16 0 33 .4 49.8.8 29.7.7 46.4-5.5 46.4-5.5s10.8-17 9-26.5c0 0 2.2-.9-.7-3.9-2-11.4-3.1-23-3.2-34.7 0-12.6-3.3-14.4-3.3-21.4 0-7 6.5-17.7 1.7-33.3-4.8-15.6 3-9.6.5-30.6a82.5 82.5 0 0 1 0-28.6c.9-6.3 5.6-23.2 2-31.5-3.5-8.4.5-29.8-1-44.6-1.4-14.9 2.9-75.7 7.1-107.1Z"/>
		<path fill="#FCCB0B" d="m754.1 344-13.8-9.2c-18.1 6.8-34.8 6-49.2 6a176 176 0 0 1-49.5-5.8l-12.2 7.9c-.9 6.1 17.2 22.2 63 22.1 48.3-.1 61.7-15.8 61.7-21Z"/>
		<path fill="#231F20" fill-opacity=".3" d="M766 874.3c20 1.2 38.5-4.6 58.3-15 .8-5.6.6-11.3-.5-16.8 0 0 2.2-.8-.7-4-2-11.4-3-23-3.1-34.6 0-12.6-3.3-14.4-3.3-21.4 0-7 2.7-24-2-39.6-2.4-7.5 6-231.3 6.6-238.8-12.6 21.9-4 249-11.2 268.7-7.5 21.2 4.9 26.2 5 37.6.3 11.5-3 19.9 1.3 25.4 4.4 5.4 7.4 15.2 5.7 15.2-7-.2-2.4 8.2-11.7 5.8-9.4-2.3-15.7 2.4-10.9 4.8 0 .1-9 9.7-33.6 12.7Zm-172.4-1.9c-4.2-2.2-7.4-11-7.4-15a11.5 11.5 0 0 0-17.4-10.7c-9 4.4-8.5-3.9-1.2-13.8s11.4-13.8 1.7-31.3c0 0-4.8-10.7 1.5-34.8 4.6-17.5 3.7-29.4-1.5-40.5.3 5.7-.3 11.4-1.8 17-4.7 15.6-2 32.4-2 39.5 0 7-3.2 8.8-3.2 21.4-.2 11.6-1.3 23.2-3.4 34.6a2.3 2.3 0 0 0-.7 3.4 53.9 53.9 0 0 0-.8 17.3 132 132 0 0 0 36.2 12.9Zm-17.1-217.7c10.1-7.9-8.4-7-7.1-34.9 0 2.3 0 4.1-.3 5.5-1.5 14.8 5.5 15 2 23.5a36.5 36.5 0 0 0-1.2 14.2c1.5-3.3 3.8-6.2 6.6-8.3Zm-8.4 51.9c2-3.2 4.7-6 7.9-8 9.1-6.5-.4-10.1-5.5-19.6a14 14 0 0 1-.8 3.4c-2.8 5.7 3.5 6.5-.2 16.6a23 23 0 0 0-1.4 7.6Z"/>
		<path fill="#EC2227" fill-rule="evenodd" d="m564.3 790.7 126.7.4 127.2.8c1 3.9 4.1 15 5 21.6 0 1.1.3 2.2.4 3.2 7 78.2 12.3 85.6 29.6 264.4L709 1099.8l-18-140.2-18.2 140.6-144-18.7c17-146.7 19.2-161.6 30.5-265 .3-3.3-.2-5.9.3-9.3.5-3.4 1.8-7 2.6-10l1.5-5 .5-1.5Z" clip-rule="evenodd"/>
		<path fill="#EC2227" d="M799.3 441h17.3v5h-11v5h10.2v5h-10.1v5.6H817v5.2h-17.7V441Zm-15.9 26.2c-2 0-3.6-.3-5-.7a8.1 8.1 0 0 1-5.2-5.3 16 16 0 0 1-.6-4.6V441h6.4v15.8l.2 2.1.8 1.3c.4.4.9.7 1.5 1l2 .2c.6 0 1.3 0 1.9-.3.5-.2 1-.5 1.4-.9.4-.3.6-.8.7-1.3.2-.5.3-1.3.3-2.1V441h6.4v15.5a15 15 0 0 1-.6 4.6 8 8 0 0 1-5.3 5.3c-1.3.4-3 .7-4.9.7Zm-23.4 0a12.7 12.7 0 0 1-11-6.1c-1-2-1.6-4.4-1.6-7.2s.6-5.2 1.8-7.2c1.1-2 2.7-3.5 4.7-4.5a13.6 13.6 0 0 1 14.5 1.3 10 10 0 0 1 1.4 1.5l-3.2 4.3a7.2 7.2 0 0 0-3.4-2.6c-.8-.3-1.7-.5-2.6-.5a6.4 6.4 0 0 0-5.8 3.6 8.9 8.9 0 0 0-.9 4c0 1.5.3 2.9.8 4a7 7 0 0 0 2.4 2.7c1 .6 2.2 1 3.5 1a7.5 7.5 0 0 0 6-3.2l3.2 4.5a8 8 0 0 1-2 2c-.9.7-2 1.3-3.4 1.7a14 14 0 0 1-4.3.7Zm-25.1 0a16 16 0 0 1-5.6-1c-1.7-.7-3.2-1.6-4.4-2.7l3-4.6c.9.8 2 1.5 3.2 2a9 9 0 0 0 3.8 1 6 6 0 0 0 2.9-.6c.6-.4 1-1 1-1.7 0-.5-.2-.9-.5-1.2-.3-.3-.6-.6-.9-.7l-1.2-.6-2.4-.8a184.5 184.5 0 0 1-1.7-.6c-1.5-.5-2.7-1.2-3.6-1.9a6.4 6.4 0 0 1-1.7-2.2c-.5-.8-.7-2-.7-3.2a7.4 7.4 0 0 1 3-6c1-.5 1.9-1 3-1.3 1-.3 2.3-.5 4-.5a15 15 0 0 1 9 3.1l-2.6 4.4a9.6 9.6 0 0 0-3-1.7 9.2 9.2 0 0 0-3.5-.8c-1.2 0-2 .2-2.7.6-.6.3-.9.8-.9 1.5 0 .5.2.8.5 1.2l.9.7a101.5 101.5 0 0 0 5.4 2c1.4.5 2.6 1 3.5 1.8.8.6 1.4 1.3 1.8 2.2.4.9.6 2 .6 3.2 0 2.5-.9 4.5-2.7 6a10 10 0 0 1-3.1 1.8c-1.2.4-2.7.6-4.4.6ZM705.4 441h17.3v5h-10.9v5H722v5h-10.2v5.6h11.3v5.2h-17.7V441Zm-24.4 0h10.2c3 0 5.4.6 6.9 1.8 1 .6 1.6 1.5 2.2 2.5a8.7 8.7 0 0 1-.2 7.7 7.7 7.7 0 0 1-3.8 3.2l6.4 10.6h-7.3l-5.3-9.5h-2.6v9.5H681V441Zm9.8 11.6c1 0 2-.2 2.7-.7.4-.3.6-.7.9-1.1.2-.5.3-1 .3-1.6l-.3-1.5a3 3 0 0 0-1-1.1c-.6-.5-1.5-.7-2.6-.7h-3.3v6.7h3.3ZM654 441h16.7v5h-10.4v5.8h9.5v5.1h-9.5v9.9H654V441Zm-24.4 0h10.2c3 0 5.3.6 6.8 1.8 1 .6 1.7 1.5 2.2 2.5.6 1.1.9 2.3.9 3.7 0 1.4-.4 2.8-1 4a7.7 7.7 0 0 1-3.9 3.2l6.4 10.6H644l-5.3-9.5H636v9.5h-6.4V441Zm9.7 11.6c1.1 0 2-.2 2.7-.7l1-1.1.2-1.6c0-.5 0-1-.3-1.5a3 3 0 0 0-.9-1.1c-.7-.5-1.6-.7-2.7-.7H636v6.7h3.3Zm-25.5 14.6c-2 0-3.6-.3-5-.7a8.1 8.1 0 0 1-5.2-5.3 16 16 0 0 1-.6-4.6V441h6.4v15.8c0 .8 0 1.6.2 2.1s.4 1 .8 1.3l1.4 1 2 .2c.7 0 1.3 0 2-.3a3 3 0 0 0 1.3-.9c.4-.3.7-.8.8-1.3.2-.5.2-1.3.2-2.1V441h6.4v15.5a15 15 0 0 1-.6 4.6 7.3 7.3 0 0 1-5.2 5.2c-1.4.5-3 .8-5 .8Zm-24.5 0a16 16 0 0 1-5.5-1c-1.8-.7-3.3-1.6-4.5-2.7l3-4.6c.9.8 2 1.5 3.2 2a9 9 0 0 0 3.8 1 6 6 0 0 0 2.9-.6c.6-.4 1-1 1-1.7 0-.5-.2-.9-.5-1.2-.3-.3-.6-.6-.9-.7l-1.2-.6-2.4-.8a224.3 224.3 0 0 1-1.7-.6c-1.5-.5-2.7-1.2-3.6-1.9a6.4 6.4 0 0 1-1.7-2.2c-.5-.8-.7-2-.7-3.2a6 6 0 0 1 1-3.5c.5-1 1.2-1.8 2-2.4 1-.6 1.9-1 3-1.4 1-.3 2.3-.5 4-.5a13.8 13.8 0 0 1 6.6 1.7c1 .4 1.7 1 2.3 1.5l-2.5 4.3a9.6 9.6 0 0 0-3-1.7 9.2 9.2 0 0 0-3.5-.8c-1.2 0-2 .2-2.7.6-.6.3-.9.8-.9 1.5 0 .5.2.8.5 1.2l.9.7a101.5 101.5 0 0 0 5.4 2c1.5.5 2.6 1 3.5 1.8.8.6 1.4 1.3 1.8 2.2.4.9.7 2 .7 3.2 0 2.5-1 4.5-2.8 6a10 10 0 0 1-3.1 1.8c-1.2.4-2.7.6-4.4.6Z"/>
		<path stroke="#EC2227" stroke-miterlimit="10" stroke-width="1.5" d="M750.9 343c-9.4 19.5-22 22-56.1 22-58.2-.3-63-22.2-63-22.2"/>
		<path fill="#EC2227" d="M606.8 134c-23 1.2-45.3 8.5-64.5 21.2a17 17 0 0 0-7.8 8.4c-3.1 10 9.8 16.5 19.7 18.2 86.5 14.1 163.3 24.3 249.2 6.6 9.5-2 31.3-4.2 38.4-11.2 7-7 10-16 3.9-23.9-4.3-4.5-10-7.4-16.2-8.3-16.6-4-33.5-7-50.5-8.9"/>
		<path fill="#D32027" d="M793.1 138.3S782 69 780.5 67.8c-9.3-2-18.9-2.5-28.4-1.6-24.6 7.1-30.1 13.1-45.2 15.9v-1.6c-34.6 1.2-37.6-8.5-71-19.3-5-1.6-22.3 1.2-22.3 5 0 12.8-9 67.8-9 67.8-.5 3.2 4.3 4.7 6.4 7.5 3 2.8 6.7 4.6 10.8 5 37.4 9 33.4 10.4 73 14.2 38.5.7 33.9.4 74.4-8.3 3.9-.9 15.6-3.5 18-6.3 2.5-2.8 6.4-4.9 6-7.8Z"/>
		<path fill="#EC2227" d="M780.5 69c0 9.5-53.4 14.4-91.6 14.4-38.1 0-73.6-7.3-73.6-16.8 0-9.4 36.4-15 74.6-15 38.2 0 90.6 8 90.6 17.5Z"/>
	</symbol>
	<symbol id="questions-signal5" viewBox="0 0 2080 1880">

	</symbol>
	<symbol id="questions-signal6" viewBox="0 0 2080 1880">

	</symbol>
	<symbol id="questions-signal7" viewBox="0 0 2080 1880">

	</symbol>
	<symbol id="questions-signal8" viewBox="0 0 2080 1880">

	</symbol>
	<symbol id="questions-signal9" viewBox="0 0 2080 1880">

	</symbol>
	<symbol id="questions-signal10" viewBox="0 0 2080 1880">

	</symbol>
	<symbol id="questions-signal11" viewBox="0 0 2080 1880">

	</symbol>
	<symbol id="questions-signal12" viewBox="0 0 2080 1880">

	</symbol>
	<symbol id="questions-signal13" viewBox="0 0 2080 1880">

	</symbol>
	<symbol id="questions-signal14" viewBox="0 0 2080 1880">

	</symbol>
</svg>
