<svg xmlns="http://www.w3.org/2000/svg" fill="none" viewBox="0 0 2003 2003">
	<path fill="#EF4123" d="M1001.5 1974c537 0 972.4-435.4 972.4-972.5 0-537-435.3-972.4-972.4-972.4-537 0-972.4 435.3-972.4 972.4 0 537 435.3 972.4 972.4 972.4Z"/>
	<path fill="#fff" d="M1922 612.7A995 995 0 0 0 1708 295a999.7 999.7 0 0 0-317.7-214 992.2 992.2 0 0 0-388.8-78.5c-135 0-265.7 26.4-388.8 78.5A997.7 997.7 0 0 0 295 295.1 995.3 995.3 0 0 0 2.5 1001.5 992.7 992.7 0 0 0 81 1390.3 993.7 993.7 0 0 0 295.1 1708a994.9 994.9 0 0 0 706.4 292.5A997.1 997.1 0 0 0 1708 1708a995.5 995.5 0 0 0 292.5-706.5c0-135-26.4-265.7-78.5-388.8ZM1001.5 1940c-517.5 0-938.3-421-938.3-938.5S484 63.2 1001.5 63.2s938.3 421 938.3 938.3S1519 1940 1001.5 1940Z"/>
	<path fill="#006DB8" d="M1538.1 1196.3a567.5 567.5 0 0 1-295.3 321.4 567.4 567.4 0 0 1-240.9 53.6c-107.3 0-212.2-30-303.4-86.9A567.8 567.8 0 0 1 484 1242.2a565 565 0 0 1-19-435.5 567.5 567.5 0 0 1 295-321.4 567.5 567.5 0 0 1 241-53.6c107.3 0 212.2 30 303.4 86.9A568 568 0 0 1 1519 760.8a565 565 0 0 1 19 435.5Z"/>
	<path fill="#fff" d="M1060.3 1100.7c-.6-1.4-1.2-2.4-3.3-2.9-38.3-9.5-78-32.6-113.6-66.4a309.2 309.2 0 0 1-66.8-92.2c-1.3-2.6-2.8-2.8-6-1.2l-142 66c-2.8 1.4-3.5 3-2.1 5.7 37.1 69.1 86.3 97.6 92.4 161.5 5.7 60.8-56.6 134-66.3 145-1.3 1.5-1.4 3.4-.5 4.6 1.4 1.9 4.4 0 6-.8 109.2-62.9 241.4-16.3 275.5 117.7.4 1.7 1.5 4.3 3.9 4 2 0 3.2-1.4 3.2-5 0-63.3 1-133.5 28-184.3a121.7 121.7 0 0 1 36.9-42.7c2.7-1.9 3.2-3.5 2.2-5.5l-47.5-103.5Z"/>
	<path fill="#FFD400" d="m944.2 847.7-107.4-234c-1.1-2.4-3.4-3-6-1.5A291.8 291.8 0 0 0 704 961c.7 2 2.5 3.7 5.3 2.4l232.8-108.5c2.4-1.2 3.7-3.7 2-7.1Z"/>
	<path fill="#fff" d="m1051.7 853.5-131.5 61.3c-3 1.4-3.9 2.4-3 4.7 24.8 58.1 87 115.5 144.3 132.8 1.7.3 2.6-.2 3.4-1.8 24.2-55.7 21.2-140.2-6.9-195.5-1.5-3-2.8-3.2-6.4-1.5Z"/>
	<path fill="#EF4123" d="M985.4 829.3c1.1 2.5 3 3.8 6.2 2.4L1228.9 721c2-1 3-3.3 1.4-5.6a290.6 290.6 0 0 0-349.8-126.6c-2.3 1-4 3.2-2.6 6.1l107.5 234.4Z"/>
	<path fill="#fff" d="M1598.8 979.6a593.8 593.8 0 0 0-55.7-230.6 595.4 595.4 0 0 0-224.6-254.2 598.6 598.6 0 0 0-317.4-91A592.5 592.5 0 0 0 749 459.9a595.7 595.7 0 0 0-309 337.2 595.6 595.6 0 0 0 20 457 595.3 595.3 0 0 0 224.5 254 598.8 598.8 0 0 0 317.4 91.1c87.4 0 172.3-18.9 252.1-56.1a595.7 595.7 0 0 0 309-337.2c26.6-73 38.6-149 35.8-226.3Zm-597 558.8a538 538 0 0 1-285-81.8A534.7 534.7 0 0 1 515 1228.3 533.3 533.3 0 0 1 497 818a535 535 0 0 1 277.7-303 532.2 532.2 0 0 1 226.5-50.4 538 538 0 0 1 285.2 81.8A534.7 534.7 0 0 1 1488 774.7a533.3 533.3 0 0 1 18 410.4 535.1 535.1 0 0 1-277.7 302.9 532 532 0 0 1-226.4 50.4Z"/>
	<path fill="#fff" d="M1254.7 763.5c-1.3-3-2.7-3.4-5.8-2l-147.6 68.8c-3.5 1.7-3.7 3-2 6.3 35 71 36.7 173.9 2.3 242a4.4 4.4 0 0 0 0 3.9l49.5 107.7c1.3 2.8 2 3.8 6.2 3.6 32.4-1.8 66.1 4.8 84.4-3a41 41 0 0 0 25.7-38c.5-15-7-31.8-4.3-45 2.2-10.6 17-14.8 15.4-23.8-1.6-9-15.3-6.5-20.6-7.2-3.8-.4-3.8-4 0-4.8 2.9-.6 22-1.5 24.8-12.3 3.1-11.8-11.2-19.5-8.3-30.3 4.9-18.4 40.9-5.5 48.8-25.8 10.1-26.2-43.2-56.6-49.5-100.4-4.6-32 7.7-77.6-19-139.7Zm-99 549.5h15v38.8h6V1313h15v-5.3h-36v5.3Zm62.6 32h-.1l-12.7-37.3h-8.6v44.2h5.8v-37.1l12.5 37h6l12.4-37v37h5.7v-44.1h-8.5l-12.5 37.4Zm159.9-1130.4a3 3 0 0 1 4-1.1l142.1 81.4a3 3 0 0 1 1.1 4l-16.8 29.4a3 3 0 0 1-4 1.1l-101.3-58-23.3 40.7 94.2 54a3 3 0 0 1 1.1 4l-17 29.7a3 3 0 0 1-4 1L1360 347l-38 66.3a3 3 0 0 1-4 1l-38.2-21.8a3 3 0 0 1-1.1-4.1l99.5-173.7ZM629.3 378.4c13 12.2 30.8 15.6 60.4 1 28.7-14.3 32.6-27.2 26.7-39.1-6.3-12.8-18.4-15.7-60.6-3-69.5 20.8-91.5 5.8-103.8-19-18.3-37 7.9-73.4 51.6-95 54.2-27 86.5-13.2 102.7 4.1.7.8 1.3 3-.5 4.2l-35.5 25.5a2.9 2.9 0 0 1-3.8-.3c-7.4-7.3-20-14.2-48.2-.2-21.3 10.6-28.8 22.8-22.8 34.7 5.2 10.7 15.5 12.3 53.3 1.3 76.4-22.2 97.9-6.4 111.2 20.4 15.9 32 3.6 70.3-58.4 101-52 25.8-88.6 18-111.5-6-.8-.8-1.8-2.8.4-4.4l35.3-25.6c1.7-1.1 3 0 3.4.4Zm600.5-48.8 2-10c6.7-36.5-13.6-48.5-21.2-53.4a48.3 48.3 0 0 0 44.2-41.3c6.5-34.8-16-62.9-60.6-71.2l-109.7-20.5c-1.6-.3-3 .7-3.3 2.3l-36.8 197.1c-.3 2 .5 3 2.3 3.3l43 8c1.6.3 3-.4 3.3-2l14.1-75.6 41.2 7.7c29.6 5.5 35.5 15.5 31.7 36l-1.3 6.6c-3.7 20-5.5 31.8-4.4 41 0 .8.6 2.2 2.4 2.5l44.7 8.4c2.3.4 3.5-1.8 3.5-3-.1-10 2.6-23.6 5-35.9Zm-65-90.7-50.8-9.5 9.5-50.8 51.1 9.6c23.2 4.3 32.1 15.4 29.1 31.4-3.2 17-15.1 23.8-39 19.3ZM906.9 349.5c-60.7 8.6-99.7-16-108.5-78l-16.2-114.1a3 3 0 0 1 2.4-3.3l44-6.2a3 3 0 0 1 3.2 2.5l16 112.5c6 43 26.9 51.7 53.6 47.9 26.7-3.8 44.3-18 38.2-61l-16-112.4a3 3 0 0 1 2.5-3.3l43.9-6.3a3 3 0 0 1 3.2 2.5l15.7 110.4c8.8 62-21.3 100.2-82 108.8Zm-567.6 731.3a3 3 0 0 1 3.6 2.2l10.5 42.8a3 3 0 0 1-2.2 3.6l-158.4 38.9 21.6 88c.4 1.7-.6 3-2.3 3.2l-33.2 8.2c-2 .5-3-.2-3.5-1.8l-32.8-133.7a3 3 0 0 1 2.2-3.7l194.4-47.7Zm63.5 201.1a3 3 0 0 1-1.6 4l-184 78.9a3 3 0 0 1-3.9-1.6l-17.4-40.4a3 3 0 0 1 1.6-4l184-79a3 3 0 0 1 4 1.6l17.3 40.5ZM628.7 1685a3 3 0 0 1-4.2.9l-93-62.4-26.2 39 99 66.3c2 1.3 2.2 3 .9 5l-18.7 27.8a3.6 3.6 0 0 1-4.5.5l-138-92.5a3 3 0 0 1-.9-4.1L554.5 1499a3 3 0 0 1 4.2-.8l137.3 92a3 3 0 0 1 .9 4.2l-19 28.3a3 3 0 0 1-4.2.8l-98.2-65.8-21.8 32.4 93.1 62.4a3 3 0 0 1 .9 4.2l-19 28.3Zm827.5-199a3 3 0 0 1 4.3.3l132.5 150a3 3 0 0 1-.3 4.3l-33 29.1a3 3 0 0 1-4.2-.2l-132.5-150a3 3 0 0 1 .2-4.3l33-29.2Zm214.1 73.4a3 3 0 0 1-4.2.8l-165.5-112.5a3 3 0 0 1-.8-4.2l29.9-44c1-1.4 3-2.5 4.7-2.5l170 3.6-118.3-78.7a3 3 0 0 1-.8-4.2l22.4-33a3 3 0 0 1 4.1-.7l165.6 112.5a3 3 0 0 1 .8 4.2l-27.9 41c-.9 1.3-3 2.4-4.6 2.4l-181.8-7 128 85.2a3 3 0 0 1 .8 4.2l-22.4 33ZM424.2 1334.3a3 3 0 0 1 4.2.6l99 130.3a3 3 0 0 1-.6 4.2l-26.9 20.5a3 3 0 0 1-4.2-.6l-70.6-92.9-37.3 28.4 65.7 86.5a3 3 0 0 1-.6 4.2l-27.1 20.6a3 3 0 0 1-4.2-.6l-65.7-86.4-60.8 46.2a3 3 0 0 1-4.2-.6l-26.7-35a3 3 0 0 1 .6-4.3l159.4-121ZM1854.5 1206c-16.4 64.7-72 97-130.5 82.2-58.3-14.8-95.6-65.1-77.5-136.6 12.3-48.6 39.3-71 64.9-78.4 1.4-.4 3.5.5 3.8 2l7 41.5c.3 1.8-.9 3-2.3 3.3-11.4 2.2-29.1 10.7-36.8 41-10.3 40.9 14.3 66 51.5 75.4 39.2 10 73.2-1.2 83.6-42 8.5-33.8-3.9-58.7-27.7-64.7l-3.2-.8-11.6 46c-.4 1.6-1.8 2.4-3.5 2l-31.8-8a3 3 0 0 1-2.1-3.6l22.8-90.1c.4-1.7 1.7-2.5 3.5-2.1 5.6 1.1 18.4 3.9 29.6 7.3 47.8 14.7 77.7 56.6 60.3 125.6Zm-484.1 583.7c-1.5.8-3.7.5-5-.6l-163.3-142.3c-1.2-1.1-1-2.6.4-3.3l44.1-22.3c1.5-.7 3.7-.4 4.9.7l123.7 115-18-168.3c-.2-1.6.9-3.6 2.4-4.3l42.4-21.4c1.5-.8 2.8 0 2.9 1.6l16 216.6c.2 1.7-.9 3.6-2.4 4.4l-48 24.2Zm-524.9 8.9c4 17.4 17 30 49.8 34.3 31.7 4 42.2-4.5 43.9-17.7 1.8-14.1-6.6-23.3-48.8-36-69.4-21.3-79.4-46-75.9-73.4 5.2-40.9 47.2-56.7 95.6-50.5 60 7.6 79.3 37 83.1 60.4.2 1-.5 3.1-2.7 3.2l-43.7 1.5a3 3 0 0 1-3-2.3c-2-10.2-8.7-22.9-40-26.9-23.6-3-36.5 3-38.2 16.2-1.5 11.8 6.1 18.9 43.7 30.6 75.9 24 85 49 81.3 78.6-4.6 35.5-36 60.5-104.6 51.8-57.6-7.4-83.7-34.2-89.5-66.9-.2-1 0-3.3 2.8-3.4l43.6-1.7c2 0 2.4 1.6 2.6 2.2Zm244.9 20.8-9.4 46.2a5 5 0 0 1-3.5 3.5l-47.1 8c-1.7.2-2.7-.9-2.4-2.5l46.2-211.3c.3-1.6 2-3.2 3.6-3.4l62.4-10.6a5 5 0 0 1 4.5 2L1262 1835c1 1.4.3 2.7-1.3 3l-47.2 8c-1.6.3-3.6-.7-4.5-2l-24.2-40.6-94.4 16Zm72.6-53-46.2-77.8-18 88.7 64.2-10.9Z"/>
</svg>
