<svg height="700pt" preserveAspectRatio="xMidYMid meet" viewBox="0 0 700 700" width="700pt" xmlns="http://www.w3.org/2000/svg"><g transform="matrix(.1 0 0 -.1 0 700)"><path d="m3205 6990c-859-77-1624-439-2221-1052-541-556-869-1255-965-2053-18-143-18-594-1-740 131-1109 726-2044 1667-2617 428-261 915-426 1425-483 171-19 541-22 705-6 574 58 1120 251 1585 559 226 151 357 257 551 451 299 299 501 584 682 961 204 422 312 849 336 1326 51 985-313 1935-1009 2634-559 562-1271 909-2060 1006-148 18-553 26-695 14zm319-322c16-75 48-422 42-459-15-102-86-172-219-215-75-25-96-27-242-28-177-1-219 9-279 70-54 55-66 95-92 303-13 108-24 210-24 227v31l88 12c93 12 152 14 152 6 0-2 11-100 25-217 27-224 34-248 86-276 31-17 155-10 195 11 75 39 77 59 44 329-11 91-20 175-20 186 0 17 11 21 88 29 144 16 151 16 156-9zm596-62c124-30 252-64 285-76 198-68 266-222 145-324-18-14-51-31-75-37l-44-11 31-26c51-43 60-78 52-203-4-60-11-109-16-109s-56 12-114 26l-104 27 2 103c2 141-8 152-181 194-69 17-95 20-100 11-4-6-18-57-31-112s-27-102-32-105c-4-3-57 7-118 21-85 21-110 30-110 43 0 10 35 158 77 329 63 255 80 312 93 308 8-2 116-29 240-59zm-1742-221c40-17 82-52 82-69 0-6-48-35-106-65-101-51-106-52-124-36-50 45-240-39-240-106 0-44 55-41 230 12 223 67 327 64 382-14 32-45 36-125 8-179-58-114-250-243-428-289-85-22-130-24-186-8-46 13-126 83-111 97 6 6 54 34 108 62l98 52 22-20c34-30 62-35 120-18 107 31 192 110 167 156-16 30-68 26-226-20-157-45-253-58-306-41-87 29-122 125-79 215 48 97 225 224 376 267 76 22 165 24 213 4zm2947-308c149-104 272-191 274-193 5-5-67-114-75-114-4 0-87 56-185 125s-180 125-182 125c-6 0-80-110-76-114 2-1 72-49 154-106 83-57 152-105 154-107 6-5-16-43-48-82l-27-33-156 110c-142 100-158 109-171 94-7-10-40-55-72-102s-60-87-61-89c-2-2-179 115-202 134-9 7 383 553 392 547 6-3 133-91 281-195zm-1619-358c523-51 1017-291 1384-675 324-338 527-757 595-1229 24-160 24-448 0-605-94-636-438-1188-955-1534-290-195-588-309-940-361-152-23-453-23-605-1-478 72-888 271-1232 600-577 550-812 1378-612 2153 163 633 607 1171 1199 1451 355 168 771 240 1166 201zm-2761-2421c29-123 41-210 31-213-6-2-114-24-240-49-125-25-230-47-233-50-2-2 14-95 36-207 23-111 38-205 35-208-8-8-127-31-132-26-7 6-134 646-130 650 5 5 586 123 610 124 10 1 20-8 23-21zm5289-45c-7-32-18-83-25-114-10-49-15-57-42-67-56-21-107-127-107-222 1-51 32-113 76-146 34-26 45-29 113-29 96 0 132 22 169 104 34 74 41 190 15 240-29 56-40 49-59-39-14-64-20-79-33-76-9 3-33 8-54 12-21 3-41 12-44 20-4 10 30 175 69 330 10 41 11 42 41 34 18-5 94-23 170-40l139-32-7-37c-18-101-23-111-60-111h-34l16-42c35-95 12-262-54-392-34-66-117-152-178-184-68-36-188-38-252-4-192 102-239 389-108 659 59 120 144 192 227 193h36zm-5085-715c23-53 41-101 41-105s-37-23-83-42c-45-19-176-75-291-123-115-49-212-86-216-81-9 10-85 195-85 206s578 256 587 248c3-3 24-50 47-103zm4934-261c141-93 257-171 257-173s-30-49-66-103c-77-116-41-102-334-126-107-9-206-18-219-21-21-5 1-22 143-114l167-110-62-92c-34-51-63-94-63-95-2-2-520 341-534 352-2 2 27 48 63 103 77 116 46 103 310 127 94 8 192 18 219 21l48 6-165 110-166 110 62 93c34 51 67 91 72 87 6-3 126-82 268-175zm-4629-269 195-268-52-39c-29-21-55-37-58-35-4 2-62 80-130 174-68 93-126 170-130 170-9 0-99-70-99-77 0-3 13-22 28-42 16-20 65-86 110-148l81-112-48-35c-27-20-51-36-55-36-3 0-31 34-61 75s-80 109-110 150l-55 75-96-70c-53-38-100-70-103-70-4 0-21 19-37 43-17 23-47 65-68 94l-37 51 253 186c139 102 258 185 265 183 7-1 100-122 207-269zm3992-557c112-129 204-237 203-240-1-11-169-153-177-149-8 3-48 48-325 365l-97 111 86 77c47 42 90 75 95 73 6-2 102-109 215-237zm-3398-12 290-203-36-53c-21-29-39-53-42-53s-95 63-205 139l-200 139-32-45-32-46 184-129c123-86 182-134 178-142-5-6-21-30-37-53l-28-42-42 28c-22 16-106 74-185 130l-144 101-33-47c-19-27-34-50-34-53 1-3 91-68 201-144 110-77 202-142 204-146s-14-32-36-63l-41-57-82 58c-45 31-182 127-304 212s-220 160-218 166c3 9 149 219 313 452 26 37 50 61 58 58 7-2 143-96 303-207zm2935-256c4-141 7-301 7-355v-99l-122-58c-97-46-126-56-139-47-42 30-519 430-519 435 0 4 48 30 106 59l105 52 29-22c15-13 101-92 189-177 89-84 161-151 161-147 0 15-40 436-45 468l-5 38 107 54c60 30 111 55 114 55 3 1 9-114 12-256zm-761-424c117-154 214-283 216-287 2-7-191-42-230-42-9 0-26 15-37 33-48 74-30 71-207 42-87-14-158-26-159-28-1-1-10-29-21-62l-19-59-115-18c-63-9-118-17-121-18-5 0 227 679 234 687 6 5 232 40 239 36 4-2 103-129 220-284zm-1077 271c193-28 334-121 335-222 0-32-1-32-105-18-130 18-135 19-135 41 0 42-133 90-205 73-21-5-43-17-49-26-19-31 20-55 168-104 161-53 220-81 271-125 91-80 55-209-74-266-54-23-226-29-336-9-203 35-315 113-331 230-7 48-7 49 17 43 13-3 68-11 122-18 85-11 97-15 97-32 0-34 60-83 118-96 112-24 184-8 190 41 4 36-16 48-176 103-213 73-282 115-303 186-44 146 134 236 396 199z"/><path d="m4060 6433c-5-21-13-54-16-73l-6-35 114-28c62-15 125-27 141-27 60 0 89 76 45 117-13 12-54 30-93 41-69 20-159 42-169 42-3 0-10-17-16-37z"/><path d="m3250 5599c-932-107-1680-820-1835-1749-23-135-30-401-16-543 66-634 400-1190 927-1542 842-564 1980-438 2679 297 393 413 610 986 581 1538-54 1040-819 1868-1846 1996-123 15-369 17-490 3zm-84-1140c131-281 240-514 241-518 1-3-35-23-80-43-45-21-268-125-496-233-228-107-417-195-422-195-11 0-53 134-76 241-14 66-18 127-17 279 0 180 2 203 28 295 54 197 150 360 291 493 75 70 252 192 280 192 7 0 119-230 251-511zm1417-191c38-157 44-279 21-460-8-60 17-115 113-259 87-130 103-160 103-199 0-56-38-75-169-83-61-3-71-21-46-88l18-53-32-27c-32-27-33-27-12-38 29-16 27-53-5-91l-27-31 18-74c18-70 18-75 1-119-35-91-116-126-290-126h-111l-94 198c-87 184-92 199-81 227 7 17 21 57 32 90 81 244 57 558-63 824-16 35-29 66-29 68s57 32 128 65c315 151 497 237 503 237 4 1 13-27 22-61zm-719-373c59-137 78-222 83-380 6-149-8-256-46-366-16-48-21-54-45-52-37 3-219 91-297 144-81 54-203 176-254 253-47 73-97 188-86 199 9 9 591 286 602 287 4 0 23-38 43-85zm-730-331c72-154 178-284 321-392 78-59 244-146 349-183l69-24 78-162c43-90 80-171 84-181 4-16-5-23-54-41-87-31-152-95-201-194-59-120-72-200-79-492l-6-250-23 39c-36 61-132 185-197 255-277 297-620 380-920 223-86-45-89-60 30 143 105 179 158 285 191 382 46 138 19 228-112 373-105 116-151 175-180 231l-24 47 68 32c37 18 141 67 232 110s203 96 250 119c47 22 86 41 87 41s18-34 37-76zm1126-1354c0-5-11-10-25-10-23 0-24-3-27-77-2-50-7-78-15-81-10-3-13 17-13 77v81h-30c-16 0-30 5-30 10 0 6 30 10 70 10s70-4 70-10zm81-60c13-38 25-67 28-64s15 33 27 67c13 39 27 63 37 65 15 3 17-8 17-87 0-54-4-91-10-91s-10 31-11 73l-1 72-25-73c-14-40-30-71-36-69s-21 32-33 68l-22 64-3-65c-2-36-8-65-14-65-10 0-20 138-11 162 13 33 36 10 57-57z"/><path d="m3873 728c-17-62-31-113-30-114 3-3 192 29 196 32 5 5-120 194-128 194-3 0-20-51-38-112z"/></g></svg>