<svg xmlns="http://www.w3.org/2000/svg" xmlns:xlink="http://www.w3.org/1999/xlink" width="101" height="116">
  <defs>
    <path id="a" d="M.4 0h35.8v14.4H.4z"/>
    <path id="c" d="M.2 0h36v14.6H.2z"/>
  </defs>
  <g fill="none" fill-rule="evenodd">
    <path fill="#D8AF8E" d="M51.6 33.7l-1.3-2L49 28s3-.6 5.4-.6c2.3 0 3.2.4 3.2.4s.1 1.9-.5 2.2c-.6.3-.6.7-.6.7l.3 2.6s0 .3-1.4 0c-1.3-.1-3.7-.2-3.8.4"/>
    <path stroke="#000" stroke-width=".15" d="M51.6 33.7l-1.3-2L49 28s3-.6 5.4-.6c2.3 0 3.2.4 3.2.4s.1 1.9-.5 2.2c-.6.3-.6.7-.6.7l.3 2.6s0 .3-1.4 0c-1.3-.1-3.7-.2-3.8.4z"/>
    <path fill="#FAD463" d="M49.7 28.1s.3 1.3 1.3 1.3h1s0 2.5 2 2.1c2.1-.3 2.4-.3 2.4-1.4 0-1 1.3-.8 1.2-1.5v-.8l-4.9-.2c-1.1 0-3 .5-3 .5"/>
    <path stroke="#000" stroke-width=".15" d="M49.7 28.1s.3 1.3 1.3 1.3h1s0 2.5 2 2.1c2.1-.3 2.4-.3 2.4-1.4 0-1 1.3-.8 1.2-1.5v-.8l-4.9-.2c-1.1 0-3 .5-3 .5z"/>
    <path fill="#D02F3B" d="M49.5 28.2l-1 .2-.2-1.3s1-5 3.8-5.4a5 5 0 0 1 5.3 3c.8 1.7.4 3 .4 3l-8.3.5"/>
    <path stroke="#000" stroke-width=".15" d="M49.5 28.2l-1 .2-.2-1.3s1-5 3.8-5.4a5 5 0 0 1 5.3 3c.8 1.7.4 3 .4 3l-8.3.5z"/>
    <path fill="#FAD463" d="M52.5 26.8l-.5-.4s.4-2 2.3-2c1.8 0 2.6 1.4 2.6 2 0 .4-4.4.4-4.4.4"/>
    <path stroke="#000" stroke-width=".15" d="M52.5 26.8l-.5-.4s.4-2 2.3-2c1.8 0 2.6 1.4 2.6 2 0 .4-4.4.4-4.4.4z"/>
    <path fill="#FAD463" d="M52.5 26.8l-.5-.4s.4-2 2.3-2c1.8 0 2.6 1.4 2.6 2 0 .4-4.4.4-4.4.4"/>
    <path stroke="#000" stroke-width=".15" d="M52.5 26.8l-.5-.4s.4-2 2.3-2c1.8 0 2.6 1.4 2.6 2 0 .4-4.4.4-4.4.4z"/>
    <path fill="#D02F3B" d="M57 33l1.6 1.2s-1 2-2.7 1.5c-1.7-.6-4.5-1-4.5-1v-1.1s1.3-.4 2.9-.3c1.6 0 2.2 0 2.6-.4"/>
    <path stroke="#000" stroke-width=".15" d="M57 33l1.6 1.2s-1 2-2.7 1.5c-1.7-.6-4.5-1-4.5-1v-1.1s1.3-.4 2.9-.3c1.6 0 2.2 0 2.6-.4z"/>
    <path fill="#D02F3B" d="M57 33l1.6 1.2s-1 2-2.7 1.5c-1.7-.6-4.5-1-4.5-1v-1.1s1.3-.4 2.9-.3c1.6 0 2.2 0 2.6-.4"/>
    <path stroke="#000" stroke-width=".15" d="M57 33l1.6 1.2s-1 2-2.7 1.5c-1.7-.6-4.5-1-4.5-1v-1.1s1.3-.4 2.9-.3c1.6 0 2.2 0 2.6-.4z"/>
    <path fill="#F9C623" d="M51.7 34.8s-6-2-8-2.2c-1.8-.2-6.7-2.8-6.7-2.8l-2-1.2s-1.8-.4-3.4-1.2L28.9 26s-.4 4.7-1 4.6c-.6-.2 1.4 1.4 2.2 1.6.9 0 1.8 2.3 1.8 2.3l3.4 1.7s3.7 3.6 5 4.3c1.4.8 3.2 2.5 3.2 2.5s.4 7.8 1 9.6c.4 1.7 0 2.8.3 3.2l.9 1.1s1.7 0 4.5-1.2c2.8-1 3.2-1.4 4.6-.3 1.3 1.1 1.5-.1 3.1.1 1.7.2 1.6.6 1.6.6s1.9-3.6 2-5.4c0-2 2.8-7.9 2.8-7.9l7-5.4 2.5-1.6s2.4-.7 3.8-1.6c1.5-.8 3.9-2 4.6-2.6.8-.6 1.9.3 1.9.3s-.4-4.1-1-4.2c-.7 0-2.5.7-2.5.7s-9.6 2-10.9 2.8c-1.2.8-5.3 2.3-5.3 2.3h-2.2l-3.8.6s-1 1.6-2.6 1.6c-1.5 0-4-.9-4-.9"/>
    <path stroke="#000" stroke-width=".15" d="M51.7 34.8s-6-2-8-2.2c-1.8-.2-6.7-2.8-6.7-2.8l-2-1.2s-1.8-.4-3.4-1.2L28.9 26s-.4 4.7-1 4.6c-.6-.2 1.4 1.4 2.2 1.6.9 0 1.8 2.3 1.8 2.3l3.4 1.7s3.7 3.6 5 4.3c1.4.8 3.2 2.5 3.2 2.5s.4 7.8 1 9.6c.4 1.7 0 2.8.3 3.2l.9 1.1s1.7 0 4.5-1.2c2.8-1 3.2-1.4 4.6-.3 1.3 1.1 1.5-.1 3.1.1 1.7.2 1.6.6 1.6.6s1.9-3.6 2-5.4c0-2 2.8-7.9 2.8-7.9l7-5.4 2.5-1.6s2.4-.7 3.8-1.6c1.5-.8 3.9-2 4.6-2.6.8-.6 1.9.3 1.9.3s-.4-4.1-1-4.2c-.7 0-2.5.7-2.5.7s-9.6 2-10.9 2.8c-1.2.8-5.3 2.3-5.3 2.3h-2.2l-3.8.6s-1 1.6-2.6 1.6c-1.5 0-4-.9-4-.9z"/>
    <path fill="#F9C623" d="M51.7 34.8s-6-2-8-2.2c-1.8-.2-6.7-2.8-6.7-2.8l-2-1.2s-1.8-.4-3.4-1.2L28.9 26s-.4 4.7-1 4.6c-.6-.2 1.4 1.4 2.2 1.6.9 0 1.8 2.3 1.8 2.3l3.4 1.7s3.7 3.6 5 4.3c1.4.8 3.2 2.5 3.2 2.5s.4 7.8 1 9.6c.4 1.7 0 2.8.3 3.2l.9 1.1s1.7 0 4.5-1.2c2.8-1 3.2-1.4 4.6-.3 1.3 1.1 1.5-.1 3.1.1 1.7.2 1.6.6 1.6.6s1.9-3.6 2-5.4c0-2 2.8-7.9 2.8-7.9l7-5.4 2.5-1.6s2.4-.7 3.8-1.6c1.5-.8 3.9-2 4.6-2.6.8-.6 1.9.3 1.9.3s-.4-4.1-1-4.2c-.7 0-2.5.7-2.5.7s-9.6 2-10.9 2.8c-1.2.8-5.3 2.3-5.3 2.3h-2.2l-3.8.6s-1 1.6-2.6 1.6c-1.5 0-4-.9-4-.9"/>
    <path stroke="#000" stroke-width=".15" d="M51.7 34.8s-6-2-8-2.2c-1.8-.2-6.7-2.8-6.7-2.8l-2-1.2s-1.8-.4-3.4-1.2L28.9 26s-.4 4.7-1 4.6c-.6-.2 1.4 1.4 2.2 1.6.9 0 1.8 2.3 1.8 2.3l3.4 1.7s3.7 3.6 5 4.3c1.4.8 3.2 2.5 3.2 2.5s.4 7.8 1 9.6c.4 1.7 0 2.8.3 3.2l.9 1.1s1.7 0 4.5-1.2c2.8-1 3.2-1.4 4.6-.3 1.3 1.1 1.5-.1 3.1.1 1.7.2 1.6.6 1.6.6s1.9-3.6 2-5.4c0-2 2.8-7.9 2.8-7.9l7-5.4 2.5-1.6s2.4-.7 3.8-1.6c1.5-.8 3.9-2 4.6-2.6.8-.6 1.9.3 1.9.3s-.4-4.1-1-4.2c-.7 0-2.5.7-2.5.7s-9.6 2-10.9 2.8c-1.2.8-5.3 2.3-5.3 2.3h-2.2l-3.8.6s-1 1.6-2.6 1.6c-1.5 0-4-.9-4-.9z"/>
    <path fill="#AE7936" d="M83.3 29s-1 2.4-1.7 1.3c-.7-1-4 .4-4.4 1-.4.6-2 2-2.8 1-1-.8-2.4 2.8-3 1.6-.5-1.2-2 1.9-2.5.7s-1.4 1.3-2.7 0c-1.2-1.3-2.4-1-2.4-1l-4.8.7s0 3.2-2 3.3c-2 0-3.2-2-4.7-1.4-1.5.5-1.9 2.5-3.2.9-1.2-1.7-4-.6-5-2.1s-3 .3-4-1c-1-1.5-4.8-2.4-4.8-2.4L32.7 29l-2.5-1.6s-2 3-1.1 3.4c.9.5 2.8 2 3.5 3.2.4.7 1.5 1.2 3 2.2 1.3 1 3 2.3 3.7 2.5 1.5.4 2.1.5 2.5 1.5.3.5 1.6 1.5 2.1 2.9.5 1.1.2 2.6.8 3.2 1.2 1.3 1.8 1.7 3 3.4A8.8 8.8 0 0 0 54 53c2.6.2 3.4.6 4.6-1.8 1.1-2.4 4-7.2 4-7.2l2.4-2.3 9-6.6c1.4-.8 2.8-.8 5-1.8 2.4-1 3.7-2.3 3.7-2.3l1 .3-.4-2.4z"/>
    <path fill="#D02F3B" d="M83.2 27.8l1.6-.3s1 2.6.9 3.3l-.3 1.2-1-.1s-.8-3.7-1.2-4.1"/>
    <path stroke="#000" stroke-width=".15" d="M83.2 27.8l1.6-.3s1 2.6.9 3.3l-.3 1.2-1-.1s-.8-3.7-1.2-4.1z"/>
    <path fill="#D02F3B" d="M83.2 27.8l1.6-.3s1 2.6.9 3.3l-.3 1.2-1-.1s-.8-3.7-1.2-4.1"/>
    <path stroke="#000" stroke-width=".15" d="M83.2 27.8l1.6-.3s1 2.6.9 3.3l-.3 1.2-1-.1s-.8-3.7-1.2-4.1z"/>
    <path fill="#D02F3B" d="M28 30.7l-2.4-.7s1.5-2.4 1.9-3.5l.3-1 1.1.3s-.7 4.6-.9 5"/>
    <path stroke="#000" stroke-width=".15" d="M28 30.7l-2.4-.7s1.5-2.4 1.9-3.5l.3-1 1.1.3s-.7 4.6-.9 5z"/>
    <path fill="#D02F3B" d="M28 30.7l-2.4-.7 1.9-3.5c.3-.8.1-1.1.3-1l1.1.3s-.7 4.6-.9 5"/>
    <path stroke="#000" stroke-width=".15" d="M28 30.7l-2.4-.7 1.9-3.5c.3-.8.1-1.1.3-1l1.1.3s-.7 4.6-.9 5z"/>
    <path fill="#0073A5" d="M45.8 57s3.9.8 7 .3c3.1-.6 7 0 7 0l.1-1.2-2-.6-4.5-.8s-5 1.8-6.6 1.6c-1.4-.2-2.2 0-2.2 0l1.2.8z"/>
    <path stroke="#000" stroke-width=".15" d="M45.8 57s3.9.8 7 .3c3.1-.6 7 0 7 0l.1-1.2-2-.6-4.5-.8s-5 1.8-6.6 1.6c-1.4-.2-2.2 0-2.2 0l1.2.8z"/>
    <path fill="#0073A5" d="M45.8 57s3.9.8 7 .3c3.1-.6 7 0 7 0l.1-1.2-2-.6-4.5-.8s-5 1.8-6.6 1.6c-1.4-.2-2.2 0-2.2 0l1.2.8z"/>
    <path stroke="#000" stroke-width=".15" d="M45.8 57s3.9.8 7 .3c3.1-.6 7 0 7 0l.1-1.2-2-.6-4.5-.8s-5 1.8-6.6 1.6c-1.4-.2-2.2 0-2.2 0l1.2.8z"/>
    <path fill="#D02F3B" d="M45.3 57.2s-1.7 2.3-1.8 6.5c-.1 4.1-1.8 12.4-1.8 12.4s2.5 1.5 5.4 1.4a38 38 0 0 1 4.6 0l2-4.3-.2 4.5s5.3-.3 7.2-.2c1.9 0 1.7.3 1.9-.2.1-.6-.1-10.8-.1-12.5 0-1.8-.6-3.6-.6-3.6s.2-2-.8-2.8c-1-.8-1-1-1-1s-3.4-.5-6.1-.1c-2.8.3-8.7-.1-8.7-.1"/>
    <path stroke="#000" stroke-width=".15" d="M45.3 57.2s-1.7 2.3-1.8 6.5c-.1 4.1-1.8 12.4-1.8 12.4s2.5 1.5 5.4 1.4a38 38 0 0 1 4.6 0l2-4.3-.2 4.5s5.3-.3 7.2-.2c1.9 0 1.7.3 1.9-.2.1-.6-.1-10.8-.1-12.5 0-1.8-.6-3.6-.6-3.6s.2-2-.8-2.8c-1-.8-1-1-1-1s-3.4-.5-6.1-.1c-2.8.3-8.7-.1-8.7-.1z"/>
    <path fill="#442628" d="M47.5 77.3s-.3-6.4.6-8.4c1-2 1.6 0 2.6-1.7l2.5-4s-.2-5-.7-4c-.5.8-.3 1.4-1.5.2-1.1-1.3-2-1.8-2-1.8s5.2-.5 7.1-.4c2 0 4 .5 4 .5s2.2 5.9 1.8 9.3c-.4 3.3 0 10.3 0 10.3s-7.6.3-7.5 0c.1-.4-.2-4-.2-4l-2.5 4.1-4.2-.1z"/>
    <g>
      <path fill="#D8AF8E" d="M44.3 77.2l1.9 8s-.3 1-.3 1.8c.1.8.4 1.4.4 1.4s-.7 3.5-.5 6.7c.2 3.3 1.7 11.3 1 12.2l-3.3 3.6s3.1.6 4.5.6h2.3s-.7-2.5-.5-3.3c.2-.9.7-8.8.7-8.8s1.2-3.3.7-6.5l-.4-3.9s1-3 1-4.7v-6.8s-4.2 0-5 .2c-.7.1-2.5-.5-2.5-.5"/>
      <path stroke="#000" stroke-width=".15" d="M44.3 77.2l1.9 8s-.3 1-.3 1.8c.1.8.4 1.4.4 1.4s-.7 3.5-.5 6.7c.2 3.3 1.7 11.3 1 12.2l-3.3 3.6s3.1.6 4.5.6h2.3s-.7-2.5-.5-3.3c.2-.9.7-8.8.7-8.8s1.2-3.3.7-6.5l-.4-3.9s1-3 1-4.7v-6.8s-4.2 0-5 .2c-.7.1-2.5-.5-2.5-.5z"/>
    </g>
    <g>
      <path fill="#D8AF8E" d="M55 77.7s.4 7.6 1 8c.7.3.1 1.6.7 3.1.5 1.5 1 1 .7 2.4-.2 1.4-.2 7.7.2 11a15 15 0 0 1-.2 5.4l-.4 2.7s1 1.1 2.5 1.1c1.6 0 1.7-.2 1.7-.2l.1-1.5-.9-.9s.6-.8.5-1.6c-.1-1-.5-1.3-.5-1.3s2.4-12.1 2.3-14.3c-.2-2.1-1.3-3.1-1.4-6.5 0-3.4.3-7.5.3-7.5l-6.6.1z"/>
      <path stroke="#000" stroke-width=".15" d="M55 77.7s.4 7.6 1 8c.7.3.1 1.6.7 3.1.5 1.5 1 1 .7 2.4-.2 1.4-.2 7.7.2 11a15 15 0 0 1-.2 5.4l-.4 2.7s1 1.1 2.5 1.1c1.6 0 1.7-.2 1.7-.2l.1-1.5-.9-.9s.6-.8.5-1.6c-.1-1-.5-1.3-.5-1.3s2.4-12.1 2.3-14.3c-.2-2.1-1.3-3.1-1.4-6.5 0-3.4.3-7.5.3-7.5l-6.6.1z"/>
    </g>
    <g fill="#A47544">
      <path d="M44.9 78.2s2.7.3 4.1 1l2.5.9.2-2.4a188.6 188.6 0 0 1-5.3.2c-.5-.3-1.9-.5-1.9-.5l.4.8z"/>
      <path d="M44.9 78.2s2.7.3 4.1 1l2.5.9.2-2.4a188.6 188.6 0 0 1-5.3.2c-.5-.3-1.9-.5-1.9-.5l.4.8z"/>
    </g>
    <g fill="#A47544">
      <path d="M55.3 78.7s3 .6 3.9 1c.8.5 2 .8 2 .8l.1-2.7h-6.2l.2.9z"/>
      <path d="M55.3 78.7s3 .6 3.9 1c.8.5 2 .8 2 .8l.1-2.7h-6.2l.2.9z"/>
    </g>
    <g>
      <path fill="#343534" d="M48.4 27.7l-1.8.8c-.3.3.6.5 1.2.4H49l-.1-.5h-.4l-.2-.7z"/>
      <path stroke="#000" stroke-width=".15" d="M48.4 27.7l-1.8.8c-.3.3.6.5 1.2.4H49l-.1-.5h-.4l-.2-.7z"/>
    </g>
    <g stroke="#000" stroke-width=".15">
      <path d="M51.6 28.3s.3 1.4 1 1.6M51.6 28.3s.3 1.4 1 1.6"/>
    </g>
    <g stroke="#000" stroke-width=".15">
      <path d="M52.7 28.7s-.8 1.5.5 1.9c1.4.5 2.6 0 2.6-.1"/>
      <path d="M52.7 28.7s-.8 1.5.5 1.9c1.4.5 2.6 0 2.6-.1"/>
    </g>
    <path stroke="#000" stroke-width=".15" d="M51.2 29.6l.5 3.5"/>
    <g>
      <path fill="#D8AF8E" d="M27.5 26.1l-1.8-.6-1.6-1.8-1.4-1H22l-.4-.3s-.3.1-.2.3c0 .3.5.7.6.7l.5.5-2.8.3-1.7.2s-.3 0-.3.3l.1.4h-.7s-.4.3-.2.6c.2.2.5.2.5.2s-.4 0-.4.3.6.4.6.4l.6.2s-.1.3.4.4l2 .7 2.1.4h1.6a89.7 89.7 0 0 0 1.9.7l.7-1.3.6-1.6z"/>
      <path stroke="#000" stroke-width=".15" d="M27.5 26.1l-1.8-.6-1.6-1.8-1.4-1H22l-.4-.3s-.3.1-.2.3c0 .3.5.7.6.7l.5.5-2.8.3-1.7.2s-.3 0-.3.3l.1.4h-.7s-.4.3-.2.6c.2.2.5.2.5.2s-.4 0-.4.3.6.4.6.4l.6.2s-.1.3.4.4l2 .7 2.1.4h1.6a89.7 89.7 0 0 0 1.9.7l.7-1.3.6-1.6z"/>
    </g>
    <path stroke="#000" stroke-width=".15" d="M20.5 25.1l-1.4-.1h-1.5M19.9 26.1l-1.5-.2-1.3-.1M20 27l-2-.3M23 23.8l-.6.1"/>
    <g>
      <path fill="#D8AF8E" d="M84 28l1.6-.4s1.4-1.5 1.8-1.7a22 22 0 0 0 1.4-.9h.7l.4-.2s.3.1.2.3c0 .2-.5.6-.6.6-.2 0-.6.5-.6.5s2.5.3 2.8.5l1.7.2s.3 0 .3.4c0 .2-.2.3-.2.3h.7s.4.4.2.7l-.4.2s.3 0 .3.3c0 .2-.6.4-.6.4l-.7.1s.1.3-.3.4c-.5 0-2 .6-2 .6l-2.2.3-1.5-.1-1.1.2-1.3.3-.5-3z"/>
      <path stroke="#000" stroke-width=".15" d="M84 28l1.6-.4s1.4-1.5 1.8-1.7a22 22 0 0 0 1.4-.9h.7l.4-.2s.3.1.2.3c0 .2-.5.6-.6.6-.2 0-.6.5-.6.5s2.5.3 2.8.5l1.7.2s.3 0 .3.4c0 .2-.2.3-.2.3h.7s.4.4.2.7l-.4.2s.3 0 .3.3c0 .2-.6.4-.6.4l-.7.1s.1.3-.3.4c-.5 0-2 .6-2 .6l-2.2.3-1.5-.1-1.1.2-1.3.3-.5-3z"/>
    </g>
    <path stroke="#000" stroke-width=".15" d="M90.8 27.5h2.9M91.4 28.5l1.5-.1h1.3M91.3 29.4l1.9-.1M88.4 26.1h.7"/>
    <g>
      <path fill="#D02F3B" d="M83.2 27.8l1.6-.3s1 2.6.9 3.3l-.3 1.2-1-.1s-.8-3.7-1.2-4.1"/>
      <path stroke="#000" stroke-width=".15" d="M83.2 27.8l1.6-.3s1 2.6.9 3.3l-.3 1.2-1-.1s-.8-3.7-1.2-4.1z"/>
    </g>
    <g>
      <path fill="#000" d="M12 22.4l2.7-7 4.5 4.9z"/>
      <g transform="translate(16 4)">
        <mask id="b" fill="#fff">
          <use xlink:href="#a"/>
        </mask>
        <path fill="#000" d="M36.2 0h-1.3l-1.2.1h-1.3l-1.2.2-1.2.1-1.3.2-1.2.1-1.2.2-1.2.3-1.2.3-1.2.3-1.3.2-1.1.4-1.2.4-1.2.4-1.1.4-1.1.5-1.2.5-1.1.4-1.1.6-1.1.5-1.1.6-1 .6-1.1.6-1 .7-1 .6-1 .7-1 .7-.9.7-.9.8-1 .8-.8.7.7.8.9-.7.8-.8.9-.7 1-.7.9-.7 1-.7 1-.6 1-.7 1-.6 1-.6 1.1-.5 1.1-.6 1-.4 1.1-.5 1.1-.5 1.2-.4 1.1-.5 1.2-.4 1.1-.4 1.2-.3 1.1-.3 1.2-.3 1.2-.3 1.2-.2 1.2-.2 1.2-.2 1.2-.1 1.2-.2 1.2-.1 1.3-.1h2.4z" mask="url(#b)"/>
      </g>
      <g transform="translate(52 4)">
        <mask id="d" fill="#fff">
          <use xlink:href="#c"/>
        </mask>
        <path fill="#000" d="M36.2 13.8l-.9-.8-.9-.8-.9-.7-1-.8-.9-.7-1-.7-1.1-.6-1-.7-1-.6-1.1-.6-1.1-.7-1.1-.5-1.1-.5-1.1-.5-1.1-.5-1.2-.5-1.1-.4-1.2-.4-1.2-.4-1.2-.3-1.2-.3-1.2-.3-1.2-.3-1.3-.3L8.9.7 7.7.6 6.4.4 5.2.3 3.9.1H2.7L1.4 0H.2v1.1h2.4l1.3.1 1.2.1 1.2.2 1.2.1 1.2.2L10 2l1.2.2 1.2.3 1.2.3 1.1.3 1.2.3 1.1.4 1.2.4 1.2.5 1.1.4 1.1.5 1.1.5 1.1.5 1.1.6 1 .5 1 .6 1 .6 1.1.7.9.6 1 .7 1 .7.9.7.9.7.9.8.8.8z" mask="url(#d)"/>
      </g>
      <path fill="#000" d="M92.4 22.5l-2.6-6.9-4.6 4.8z"/>
    </g>
  </g>
</svg>
