<svg xmlns="http://www.w3.org/2000/svg" xmlns:xlink="http://www.w3.org/1999/xlink">
	<symbol id="slsa-logo" viewBox="0 0 81 81">
		<g fill="none" fill-rule="evenodd">
			<path fill="#1B5694" d="M40.36 16.033c-13.434 0-24.325 10.892-24.325 24.326 0 13.436 10.891 24.328 24.325 24.328 13.436 0 24.328-10.892 24.328-24.328
			0-13.434-10.892-24.326-24.328-24.326"/>
			<path fill="#FFFFFE" d="M40.36 64.687c-13.434 0-24.325-10.892-24.325-24.328 0-13.434 10.891-24.326 24.325-24.326 13.436 0 24.328 10.892 24.328 24.326 0
			13.436-10.892 24.328-24.328 24.328zm0-49.999c-14.178 0-25.67 11.492-25.67 25.671 0 14.181 11.492 25.673 25.67 25.673 14.181 0 25.673-11.492 25.673-25.673
			0-14.179-11.492-25.671-25.673-25.671z"/>
			<path fill="#1B5694" d="M40.36 78.583c-21.107 0-38.221-17.113-38.221-38.224 0-21.11 17.114-38.222 38.221-38.222 21.111 0 38.221 17.112 38.221 38.222 0
			21.111-17.11 38.224-38.221 38.224zM40.36 0C18.072 0 0 18.07 0 40.359c0 22.291 18.072 40.36 40.36 40.36 22.291 0 40.36-18.069 40.36-40.36C80.72 18.07
			62.651 0 40.36 0z"/>
			<path fill="#1B5694" d="M40.36 66.032c-14.178 0-25.67-11.492-25.67-25.673 0-14.179 11.492-25.671 25.67-25.671 14.181 0 25.673 11.492 25.673 25.671 0
			14.181-11.492 25.673-25.673 25.673zm0-53.347c-15.282 0-27.671 12.39-27.671 27.674 0 15.284 12.389 27.677 27.671 27.677 15.284 0 27.674-12.393
			27.674-27.677 0-15.284-12.39-27.674-27.674-27.674z"/>
			<path fill="#FADA2C" d="M27.819 40.941c-2.441-6.259-1.261-14.073 6.022-17.537l5.631 12.046c-4.936 2.328-9.741 4.589-11.653 5.491"/>
			<path fill="#D9332C" d="M40.888 34.781l-5.6-11.972c7.194-2.535 13.874 1.465 16.826 6.674l-11.226 5.298"/>
			<path fill="#FFFFFE" d="M35.896 38.868l-7.441 3.507c.107.213.22.427.334.638 1.368 2.451 3.594 3.248 3.594 5.712 0 1.99-3.182 6.673-3.741 7.793 0 0
			7.256-5.765 14.221 5.565 0 0-.462-5.686.633-8.26.677-1.609 1.611-2.548 3.326-2.919l-2.01-4.223c-4.142-1.28-7.456-3.774-8.916-7.813M55.052
			40.612c-1.748-2.447-2.074-3.179-1.678-4.372.383-1.165-.139-4.272-.567-5.351l-7.386 3.485c1.88 3.573 2.358 8.078.593 11.707l2.214 4.644a17.09 17.09 0 0 1
			1.225-.005c3.213.101 3.858-1.559
			3.381-2.857-.424-1.175-.12-.851.197-1.296.394-.588.195-1.039-.365-1.097.306-.194.823-.454.814-.675-.013-.186-.106-.322-.211-.59-.314-.813-.28-1.099.855-1.064.801.024
			2.739.011.928-2.529"/>
			<path fill="#FFFFFE" d="M44.876 45.29c1.401-3.447 1.111-7.158-.649-10.354l-3.458 1.634-3.606 1.7c.235.733.523 1.439.996 2.175 1.096 1.722 3.061 3.642
			6.717 4.845"/>
			<path fill="#D9332C" d="M40.36 68.036c-15.282 0-27.671-12.393-27.671-27.677 0-15.284 12.389-27.674 27.671-27.674 15.284 0 27.674 12.39 27.674 27.674 0
			15.284-12.39 27.677-27.674 27.677zm0-65.899c-21.107 0-38.221 17.112-38.221 38.222 0 21.111 17.114 38.224 38.221 38.224 21.111 0 38.221-17.113
			38.221-38.224 0-21.11-17.11-38.222-38.221-38.222z"/>
			<path fill="#FFFFFE" d="M26.377 9.962c-1.56.453-3.008 1.08-3.285.545-.237-.453.372-.942.915-1.224.772-.4 1.71-.626
			1.995.024l2.528-1.31c-.82-1.552-3.115-1.213-5.041-.212-1.823.943-3.648 2.638-2.865 4.15.657 1.268 2.342.961 3.874.523 1.543-.444 2.989-1.045
			3.305-.435.266.514-.419 1.114-1.18 1.51-1.076.556-1.916.661-2.392-.125l-2.525 1.31c.928 1.765 3.263 1.441 5.488.287 2.135-1.105 3.939-2.752
			3.029-4.506-.648-1.249-2.303-.981-3.846-.537M41.28 8.093l-.532-4.539-2.832.331.554 4.659c.116.999-.339 1.569-1.725
			1.733-1.383.162-1.96-.286-2.076-1.282l-.551-4.659-2.825.33.535 4.542c.266 2.242 1.841 3.189 5.124 2.802 3.283-.389 4.595-1.674 4.328-3.917M47.091
			6.095l2.203.543c.769.192 1.33.601 1.192 1.163-.144.571-.665.779-1.499.571l-2.316-.571.42-1.706zm-.797 3.23l2.094.518c1.295.321 1.276 1.149 1.163
			1.93-.024.218-.162.971.011 1.283l2.737.677c-.305-.367-.073-1.489-.027-1.816.091-.741-.015-1.722-1.097-2.192l.004-.02c1.191-.034 1.931-.67
			2.136-1.486.377-1.525-1.317-2.584-3.187-3.047l-5.409-1.339-1.87 7.562 2.762.684.683-2.754zM62.431 15.189l-3.685-2.584.914-1.302 4.262
			2.986.932-1.332-6.591-4.619-4.471 6.379 2.33 1.634 1.722-2.458 3.684 2.583.903-1.287M5.75 46.405l5.669-1.134-.547-2.726-7.305 1.465 1.52 7.601
			1.641-.328-.978-4.878M12.75 50.353L5.884 53.25l1.083 2.561 6.862-2.9-1.079-2.558M13.604 58.586l1.228-.895 2.996 4.103 1.256-.916-4.627-6.349-6.023 4.387
			1.636 2.248 2.318-1.688 2.588 3.546 1.216-.887-2.588-3.549M15.813 67.942l7.086 4.955.959-1.369-4.813-3.361.814-1.165 4.285
			2.996.862-1.232-4.286-2.998.747-1.067 4.689 3.279.892-1.275-6.968-4.87-4.267 6.107M36.345 69.067c-1.985-.267-4.395.052-4.61 1.665-.184 1.355 1.341 2.045
			2.809 2.547 1.486.504 2.977.831 2.891 1.481-.076.549-.959.639-1.79.53-1.168-.158-1.899-.54-1.845-1.417l-2.755-.371c-.238 1.897 1.81 2.929 4.237 3.255
			2.326.31 4.683.014 4.939-1.856.177-1.335-1.297-2.037-2.78-2.542-1.501-.505-3.011-.812-2.934-1.381.064-.483.824-.533 1.415-.455.846.112 1.719.452 1.585
			1.118l2.753.371c.21-1.668-1.813-2.664-3.915-2.945M44.444 73.922l.782-2.771.029-.002 1.578 2.388-2.389.385zm-.913-4.591l-2.764 7.988 2.814-.452.455-1.421
			3.675-.59.858 1.216 2.863-.46-5.116-6.727-2.785.446zM54.993 65.59l.558 5.9-.029.012-4.314-4.058-2.602 1.274 6.292 5.213 2.873-1.405-.176-8.208-2.602
			1.272M58.429 63.195l4.901 5.611 2.089-1.824-4.897-5.617-2.093 1.83M65.748 54.721l3.823 2.536-.015.025-5.872.554-1.576 2.376 6.209 4.118
			1.446-2.18-3.873-2.568.017-.022 5.918-.523 1.576-2.379-6.211-4.117-1.442 2.18M77.117 43.65l-3.978-.909-1 4.366 1.404.32.434-1.891c.628.296.859 1.3.551
			2.638-.401 1.749-1.632 2.171-2.708 1.924-1.078-.247-2.004-1.164-1.605-2.91.252-1.094.827-1.879 1.466-1.826l.621-2.706c-1.875-.172-3.207 1.946-3.701
			4.1-.72 3.148.492 5.57 2.599 6.049 2.103.485 4.249-1.171 4.97-4.316.221-.963.255-2.241-.283-3.114l.828.02.402-1.745M47.699
			55.575h.685v1.773h.275v-1.773h.681v-.243h-1.641v.243M51.128 55.332l-.568
			1.707h-.006l-.577-1.707h-.394v2.016h.263v-1.19c0-.061-.004-.316-.004-.499h.004l.57 1.689h.272l.568-1.692h.006c0
			.186-.006.441-.006.502v1.19h.263v-2.016h-.391"/>
		</g>
	</symbol>
</svg>
